<svg width="24" height="24" viewBox="0 0 24 24" fill="none" xmlns="http://www.w3.org/2000/svg">
<g opacity="0.7">
<path d="M8 11.9999C8 13.0999 7.1 13.9999 6 13.9999C4.9 13.9999 4 13.0999 4 11.9999C4 10.8999 4.9 9.99994 6 9.99994C7.1 9.99994 8 10.8999 8 11.9999ZM10 11.9999C10 10.8999 10.9 9.99994 12 9.99994C13.1 9.99994 14 10.8999 14 11.9999C14 13.0999 13.1 13.9999 12 13.9999C10.9 13.9999 10 13.0999 10 11.9999ZM16 11.9999C16 10.8999 16.9 9.99994 18 9.99994C19.1 9.99994 20 10.8999 20 11.9999C20 13.0999 19.1 13.9999 18 13.9999C16.9 13.9999 16 13.0999 16 11.9999Z" fill="#20253B"/>
</g>
</svg>
