<svg width="24" height="15" viewBox="0 0 24 15" fill="none" xmlns="http://www.w3.org/2000/svg">
<path d="M9.27058 14.3125H22.3904C22.735 14.3125 23 14.0475 23 13.7029V0.609607C22.9735 0.265047 22.7084 0 22.3904 0H9.27058C8.92602 0 8.66097 0.265047 8.66097 0.609607V13.7294C8.66097 14.0475 8.92602 14.3125 9.27058 14.3125ZM21.7808 13.0933H9.88019V1.21922H21.7808V13.0933Z" fill="white"/>
<path d="M0.233292 7.57929C0.233292 7.55279 0.206788 7.55279 0.206788 7.55279C0.206788 7.55279 0.206786 7.52628 0.180282 7.52628C0.180282 7.52628 0.180282 7.49978 0.153777 7.49978C0.153777 7.49978 0.153778 7.47327 0.127273 7.47327C0.127273 7.47327 0.127274 7.44677 0.100769 7.44677V7.42026V7.39376V7.36725V7.34075V7.31425V7.28774V7.26124V7.23473V7.20823V7.18172V7.15522V7.12871V7.10221V7.0757V7.0492V7.02269V6.99619V6.96968C0.100769 6.96968 0.100768 6.94318 0.127273 6.94318C0.127273 6.94318 0.127273 6.91668 0.153777 6.91668C0.153777 6.91668 0.153777 6.89017 0.180282 6.89017C0.180282 6.89017 0.180283 6.86367 0.206788 6.86367C0.206788 6.86367 0.206788 6.83716 0.233292 6.83716C0.233292 6.83716 0.233292 6.83716 0.259796 6.81066C0.259796 6.81066 0.259796 6.81066 0.286301 6.81066L2.48619 4.90232C2.75124 4.69028 3.1223 4.71679 3.33434 4.95533C3.54638 5.22038 3.51987 5.59144 3.28133 5.80348L2.32716 6.65163H7.36305C7.70761 6.65163 7.97266 6.91668 7.97266 7.26124C7.97266 7.6058 7.70761 7.87084 7.36305 7.87084H2.27415L3.22832 8.71899C3.49337 8.93103 3.49337 9.3286 3.28133 9.56714C3.14881 9.69967 2.98978 9.77918 2.83075 9.77918C2.69823 9.77918 2.5392 9.72617 2.43318 9.62015L0.233292 7.71182C0.233292 7.71182 0.233293 7.71182 0.206788 7.71182C0.233293 7.6058 0.233292 7.6058 0.233292 7.57929Z" fill="white"/>
<path d="M12.5321 5.59104H19.1052C19.4498 5.59104 19.7148 5.32599 19.7148 4.98143C19.7148 4.63687 19.4498 4.37183 19.1052 4.37183H12.5586C12.214 4.37183 11.949 4.63687 11.949 4.98143C11.9225 5.29949 12.214 5.59104 12.5321 5.59104Z" fill="white"/>
<path d="M12.5321 9.93919H19.1052C19.4498 9.93919 19.7148 9.67414 19.7148 9.32958C19.7148 8.98502 19.4498 8.71997 19.1052 8.71997H12.5586C12.214 8.71997 11.949 8.98502 11.949 9.32958C11.9225 9.67414 12.214 9.93919 12.5321 9.93919Z" fill="white"/>
</svg>
