<svg width="23" height="24" viewBox="0 0 23 24" fill="none" xmlns="http://www.w3.org/2000/svg">
<mask id="mask0" mask-type="alpha" maskUnits="userSpaceOnUse" x="-1" y="0" width="24" height="24">
<rect x="-1" width="24" height="24" fill="#C4C4C4"/>
</mask>
<g mask="url(#mask0)">
<path d="M17.2272 15.5825H19L18.9552 15.5914V18.1952C18.9552 18.2259 18.9768 18.2565 18.9753 18.2868C18.9723 18.3474 18.9841 18.4073 18.9751 18.4662C18.9527 18.6133 18.9145 18.7547 18.8585 18.8876C18.8361 18.9408 18.8122 18.993 18.785 19.0434C18.7713 19.0686 18.7576 19.0942 18.7428 19.1187C18.654 19.2653 18.5449 19.3997 18.4189 19.5145C18.3979 19.5336 18.3767 19.5556 18.3548 19.5738C18.2891 19.6281 18.2195 19.6845 18.1464 19.7291C17.8784 19.8924 17.5638 19.9999 17.2272 19.9999H14.5501V18.2222H17.1824V15.5914L17.2272 15.5825ZM17.2272 4H14.5501V5.77778H17.1824V8.42651L17.2272 8.41751H19L18.9552 8.42645V5.75084C18.9552 4.76897 18.2063 4 17.2272 4ZM9.17796 5.77778H12.7773V4H9.17796V5.77778ZM3 5.75084V8.42651L3.04475 8.41751H4.81756L4.77281 8.42645V5.77778H7.40515V4H4.81756C3.83848 4 3 4.76897 3 5.75084ZM17.1824 13.8047H18.9552V10.1953H17.1824V13.8047ZM4.77281 10.1953H3V13.8047H4.77281V10.1953ZM4.77281 15.5914L4.81756 15.5824H3.04475L3 15.5914V18.1952C3 18.2259 3.02315 18.2564 3.02471 18.2867C3.02777 18.3473 3.04507 18.4071 3.05404 18.4659C3.07645 18.6131 3.12248 18.7543 3.17852 18.8872C3.20092 18.9404 3.22869 18.9922 3.25598 19.0426C3.26963 19.0679 3.28526 19.0926 3.30009 19.1171C3.38894 19.2637 3.49902 19.3964 3.62494 19.5112C3.64595 19.5303 3.6677 19.5489 3.68962 19.567C3.75527 19.6214 3.82511 19.6845 3.89822 19.7291C4.16629 19.8924 4.4811 19.9999 4.81766 19.9999H7.40515V18.2222H4.77281V15.5914ZM9.17796 20H12.7773V18.2222H9.17796V20Z" fill="#20253B"/>
</g>
</svg>
