<svg width="32" height="21" viewBox="0 0 32 21" fill="none" xmlns="http://www.w3.org/2000/svg">
<path d="M19.6307 0H19.3698L11.4299 4.13806H5.69108C2.55301 4.13806 0 6.56165 0 9.54066C0 12.2051 2.04383 14.4194 4.71981 14.8593L2.87993 21H9.22789L11.0424 14.9442H11.4299L19.3701 19.0816H19.631C21.312 19.0816 22.68 17.7833 22.68 16.1872V2.89442C22.6796 1.29863 21.3117 0 19.6307 0ZM7.6929 19.0701H5.57149L6.68708 15.3465H8.80849L7.6929 19.0701ZM5.69108 13.0143C3.67368 13.0143 2.03265 11.4558 2.03265 9.54066C2.03265 7.62552 3.67368 6.06767 5.69108 6.06767H11.9513L14.6212 4.6761V14.4055L11.9513 13.0143H5.69108ZM20.647 16.1872C20.647 16.6484 20.3041 17.0346 19.8485 17.1295L16.6538 15.4649V3.61706L19.8485 1.95213C20.3045 2.047 20.647 2.43357 20.647 2.89474V16.1872Z" fill="#FEDB29"/>
<path d="M26.5806 5.37683L25.127 6.75683C25.878 7.74447 26.3259 8.95305 26.3259 10.2613C26.3259 11.5699 25.878 12.7785 25.127 13.7658L26.5806 15.1458C27.6928 13.798 28.3585 12.1025 28.3585 10.2613C28.3585 8.42016 27.6928 6.72467 26.5806 5.37683Z" fill="#FEDB29"/>
<path d="M29.1684 2.91901L27.7266 4.28775C29.1267 5.91795 29.9682 7.99711 29.9682 10.2596C29.9682 12.5224 29.1267 14.6012 27.7266 16.2314L29.1684 17.6002C30.9337 15.6159 32.0009 13.0543 32.0009 10.2596C32.0009 7.46486 30.9337 4.90329 29.1684 2.91901Z" fill="#FEDB29"/>
</svg>
