<svg width="23" height="23" viewBox="0 0 23 23" fill="none" xmlns="http://www.w3.org/2000/svg">
<path d="M22.1786 1.64286H19.7143V0.821429C19.7143 0.603572 19.6277 0.394639 19.4737 0.240591C19.3196 0.0865431 19.1107 0 18.8929 0C18.675 0 18.4661 0.0865431 18.312 0.240591C18.158 0.394639 18.0714 0.603572 18.0714 0.821429V1.64286H4.92857V0.821429C4.92857 0.603572 4.84203 0.394639 4.68798 0.240591C4.53393 0.0865431 4.325 0 4.10714 0C3.88929 0 3.68035 0.0865431 3.52631 0.240591C3.37226 0.394639 3.28571 0.603572 3.28571 0.821429V1.64286H0.821429C0.603572 1.64286 0.394639 1.7294 0.240591 1.88345C0.0865431 2.0375 0 2.24643 0 2.46429V17.25C0 17.4679 0.0865431 17.6768 0.240591 17.8308C0.394639 17.9849 0.603572 18.0714 0.821429 18.0714H3.28571V22.1786C3.28571 22.3964 3.37226 22.6054 3.52631 22.7594C3.68035 22.9135 3.88929 23 4.10714 23C4.325 23 4.53393 22.9135 4.68798 22.7594C4.84203 22.6054 4.92857 22.3964 4.92857 22.1786V21.3571H18.0714V22.1786C18.0714 22.3964 18.158 22.6054 18.312 22.7594C18.4661 22.9135 18.675 23 18.8929 23C19.1107 23 19.3196 22.9135 19.4737 22.7594C19.6277 22.6054 19.7143 22.3964 19.7143 22.1786V18.0714H22.1786C22.3964 18.0714 22.6054 17.9849 22.7594 17.8308C22.9135 17.6768 23 17.4679 23 17.25V2.46429C23 2.24643 22.9135 2.0375 22.7594 1.88345C22.6054 1.7294 22.3964 1.64286 22.1786 1.64286ZM18.0714 19.7143H4.92857V18.0714H18.0714V19.7143ZM21.3571 16.4286H1.64286V3.28571H21.3571V16.4286Z" fill="#FEDB29"/>
</svg>
