<svg width="55" height="66" viewBox="0 0 55 66" fill="none" xmlns="http://www.w3.org/2000/svg">
<g filter="url(#filter0_d)">
<path fill-rule="evenodd" clip-rule="evenodd" d="M38.3571 55C36.7714 55 35.7143 53.9333 35.7143 52.3333V23C35.7143 21.4 36.7714 20.3333 38.3571 20.3333C39.9429 20.3333 41 21.4 41 23V52.3333C41 53.9333 39.9429 55 38.3571 55ZM27.7857 55C26.2 55 25.1429 53.9333 25.1429 52.3333V33.6666C25.1429 32.0666 26.2 31 27.7857 31C29.3714 31 30.4286 32.0666 30.4286 33.6666V43V52.3333C30.4286 53.9333 29.3714 55 27.7857 55ZM17.2143 55C15.6286 55 14.5714 53.9333 14.5714 52.3333V9.66665C14.5714 8.06665 15.6286 6.99998 17.2143 6.99998C18.8 6.99998 19.8571 8.06665 19.8571 9.66665V52.3333C19.8571 53.9333 18.8 55 17.2143 55ZM6.64286 55C5.05714 55 4 53.9333 4 52.3333V25.6666C4 24.0666 5.05714 23 6.64286 23C8.22857 23 9.28571 24.0666 9.28571 25.6666V52.3333C9.28571 53.9333 8.22857 55 6.64286 55Z" fill="#20253B"/>
</g>
<defs>
<filter id="filter0_d" x="0" y="-3.05176e-05" width="55" height="66" filterUnits="userSpaceOnUse" color-interpolation-filters="sRGB">
<feFlood flood-opacity="0" result="BackgroundImageFix"/>
<feColorMatrix in="SourceAlpha" type="matrix" values="0 0 0 0 0 0 0 0 0 0 0 0 0 0 0 0 0 0 127 0"/>
<feOffset dx="5" dy="2"/>
<feGaussianBlur stdDeviation="4.5"/>
<feColorMatrix type="matrix" values="0 0 0 0 0 0 0 0 0 0 0 0 0 0 0 0 0 0 0.15 0"/>
<feBlend mode="normal" in2="BackgroundImageFix" result="effect1_dropShadow"/>
<feBlend mode="normal" in="SourceGraphic" in2="effect1_dropShadow" result="shape"/>
</filter>
</defs>
</svg>
