<svg width="34" height="34" viewBox="0 0 34 34" fill="none" xmlns="http://www.w3.org/2000/svg">
<path d="M28.3336 12.3111V8.50027C28.3336 6.94193 27.0586 5.66693 25.5002 5.66693H21.6894L18.9977 2.97526C17.8927 1.87026 16.0936 1.87026 14.9886 2.97526L12.3111 5.66693H8.50023C6.9419 5.66693 5.6669 6.94193 5.6669 8.50027V12.3111L2.97523 15.0028C1.87023 16.1078 1.87023 17.9069 2.97523 19.0119L5.6669 21.7036V25.5003C5.6669 27.0586 6.9419 28.3336 8.50023 28.3336H12.3111L15.0027 31.0253C16.1077 32.1303 17.9069 32.1303 19.0119 31.0253L21.7036 28.3336H25.5002C27.0586 28.3336 28.3336 27.0586 28.3336 25.5003V21.6894L31.0252 18.9978C32.1302 17.8928 32.1302 16.0936 31.0252 14.9886L28.3336 12.3111ZM17.0002 25.5003C12.3111 25.5003 8.50023 21.6894 8.50023 17.0003C8.50023 12.3111 12.3111 8.50027 17.0002 8.50027C21.6894 8.50027 25.5002 12.3111 25.5002 17.0003C25.5002 21.6894 21.6894 25.5003 17.0002 25.5003ZM17.0002 11.3336C13.8694 11.3336 11.3336 13.8694 11.3336 17.0003C11.3336 20.1311 13.8694 22.6669 17.0002 22.6669C20.1311 22.6669 22.6669 20.1311 22.6669 17.0003C22.6669 13.8694 20.1311 11.3336 17.0002 11.3336Z" fill="#FEDB29"/>
</svg>
