<svg width="29" height="31" viewBox="0 0 29 31" fill="none" xmlns="http://www.w3.org/2000/svg">
<path d="M17.8637 0H10.1483C9.69064 0 9.31955 0.363907 9.31955 0.812654V8.37863C9.31955 8.82738 9.69064 9.19128 10.1483 9.19128H13.1883L13.3207 25.595L9.37275 25.5949V22.6215C9.37275 22.1728 9.00165 21.8089 8.54404 21.8089H0.828713C0.371098 21.8089 0 22.1728 0 22.6215V30.1873C0 30.6361 0.371098 31 0.828713 31H8.54404C9.00165 31 9.37275 30.6361 9.37275 30.1873V27.2137L14.1592 27.2138C14.615 27.2104 14.9816 26.8451 14.9782 26.3981L14.8941 15.9921H19.6271V18.9625C19.6271 19.4112 19.9982 19.7751 20.4558 19.7751H28.1713C28.6289 19.7751 29 19.4112 29 18.9625V11.3965C29 10.9478 28.6289 10.5838 28.1713 10.5838H20.4558C19.9982 10.5838 19.6271 10.9478 19.6271 11.3965V14.3668H14.8809L14.8391 9.19128H17.8637C18.3214 9.19128 18.6925 8.82738 18.6925 8.37863V0.812654C18.6925 0.363907 18.3214 0 17.8637 0ZM1.65743 23.4342H7.71532V29.3747H1.65743V23.4342ZM21.2845 12.2092H27.3426V18.1498H21.2845V12.2092ZM10.977 1.62531H17.035V7.56598H10.977V1.62531Z" fill="#FEDB29"/>
</svg>
