<svg width="27" height="22" viewBox="0 0 27 22" fill="none" xmlns="http://www.w3.org/2000/svg">
<path d="M11.3587 10.9449L11.657 11.0483L11.8786 10.8234L16.2759 6.36133H17.5377V7.65637L17.3427 7.85427L16.4517 7.78097C16.1811 7.74527 15.9604 7.86882 15.8253 7.99214C15.6831 8.12202 15.5815 8.29537 15.5307 8.47583L15.5064 8.56197L15.5135 8.65117L15.5877 9.5795L15.5085 9.65984L14.6176 9.58653C14.3525 9.55166 14.1244 9.66851 13.9825 9.81248C13.8403 9.95682 13.7294 10.1838 13.7627 10.4441L13.8357 11.3573L13.1099 12.0937L12.8889 12.318L12.9957 12.6143C13.3432 13.578 13.1348 14.6797 12.3708 15.4549L12.3708 15.4549L12.367 15.4588C11.3339 16.5304 9.63179 16.5362 8.56619 15.4549L8.56621 15.4549L8.56231 15.451C7.50309 14.3995 7.49664 12.6617 8.56349 11.5762C9.32693 10.827 10.4113 10.6166 11.3587 10.9449ZM17.2709 7.92705C17.2711 7.92692 17.2712 7.9268 17.2713 7.92667L17.2709 7.92705L17.4081 8.06219L17.2709 7.92705ZM10.8931 15.2401L10.8996 15.2335L10.9058 15.2267C11.4365 14.6467 11.4365 13.7427 10.9058 13.1627L10.8996 13.1559L10.8931 13.1493C10.314 12.5617 9.39115 12.5617 8.81206 13.1493C8.23698 13.7328 8.23698 14.6566 8.81206 15.2401C9.39115 15.8277 10.314 15.8277 10.8931 15.2401Z" fill="#333333" stroke="#20253B"/>
<path d="M19.1848 18.434L19.1864 18.4326C19.3491 18.2911 19.5828 18.3019 19.74 18.4669C19.8706 18.6328 19.8382 18.8846 19.6963 18.9977L19.6891 19.0035L19.6821 19.0095C17.8009 20.6267 15.4526 21.4998 13 21.4998C7.31525 21.4998 2.65949 16.7861 2.65949 10.9997V10.222V9.72196H2.15949H0.708614C0.678375 9.72196 0.587043 9.68824 0.518642 9.5919C0.49205 9.5234 0.489971 9.43154 0.538567 9.33528L2.85448 5.71352L2.85919 5.70616L2.86363 5.69864C2.87798 5.67438 2.92539 5.63165 3.02523 5.63165C3.12312 5.63165 3.18978 5.67436 3.2188 5.71711L5.54056 9.34802C5.59862 9.44457 5.58357 9.54276 5.56627 9.57085L5.54799 9.60053L5.534 9.63247C5.52224 9.65931 5.50489 9.67845 5.48074 9.69299C5.45486 9.70858 5.41524 9.72196 5.36237 9.72196H3.91149H3.41149V10.222V10.9997C3.41149 16.3523 7.70737 20.722 13 20.722C15.2524 20.722 17.4495 19.9307 19.1848 18.434Z" fill="#333333" stroke="#20253B"/>
<path d="M23.3422 11.7778V12.2778H23.8422H25.293C25.3233 12.2778 25.4147 12.3116 25.4832 12.4081C25.5129 12.4838 25.5055 12.5668 25.4708 12.6247L23.154 16.2756C23.0923 16.3587 23.0173 16.389 22.9662 16.389C22.8831 16.389 22.8302 16.3593 22.7896 16.2934L22.7898 16.2934L22.7828 16.2826L20.4329 12.6781C20.3758 12.582 20.3908 12.4847 20.408 12.4567L20.4263 12.4271L20.4403 12.3951C20.452 12.3683 20.4694 12.3491 20.4935 12.3346C20.5194 12.319 20.559 12.3056 20.6119 12.3056H22.0628H22.5628V11.8056V11.0278C22.5628 5.67525 18.2669 1.30557 12.9743 1.30557C10.722 1.30557 8.52512 2.09678 6.78988 3.59326C6.63285 3.72766 6.39102 3.69906 6.27949 3.55502L6.27395 3.54786L6.26816 3.54092C6.13006 3.37531 6.1611 3.11709 6.30535 3.00208L6.31258 2.99631L6.3196 2.99028C8.20071 1.3731 10.5491 0.5 13.0017 0.5C18.6864 0.5 23.3422 5.2137 23.3422 11.0001V11.7778Z" fill="#333333" stroke="#20253B"/>
</svg>
