<svg width="30" height="30" viewBox="0 0 30 30" fill="none" xmlns="http://www.w3.org/2000/svg">
<g clip-path="url(#clip0)">
<path opacity="0.7" d="M15.0076 22.4193C14.548 22.4193 14.1768 22.0481 14.1768 21.5885L14.1709 15.8315L8.40799 15.8315C7.94837 15.8315 7.57714 15.4602 7.57714 15.0006C7.57714 14.541 7.94837 14.1698 8.40799 14.1698L14.1709 14.1698L14.1709 8.40684C14.1709 7.94722 14.5421 7.57599 15.0018 7.57599C15.4614 7.57599 15.8326 7.94722 15.8326 8.40684L15.8326 14.1698H21.5955C22.0551 14.1698 22.4264 14.541 22.4264 15.0006C22.4264 15.4602 22.0551 15.8315 21.5955 15.8315L15.8326 15.8315L15.8326 21.5944C15.8326 22.0422 15.4555 22.4193 15.0076 22.4193Z" fill="#20253B"/>
</g>
<defs>
<clipPath id="clip0">
<rect width="20" height="20" fill="white" transform="matrix(0.707107 0.707107 0.707107 -0.707107 0.859375 15.0006)"/>
</clipPath>
</defs>
</svg>
