<svg width="32" height="25" viewBox="0 0 32 25" fill="none" xmlns="http://www.w3.org/2000/svg">
<path d="M20.4593 7.72578C19.9287 7.19525 19.0998 7.19525 18.5693 7.72578L15.7508 10.5442L12.9324 7.72578C12.4019 7.19525 11.573 7.19525 11.0424 7.72578C10.5119 8.2563 10.5119 9.08525 11.0424 9.61578L13.8608 12.4342L11.0424 15.2526C10.5119 15.7831 10.5119 16.6121 11.0424 17.1426C11.3077 17.4079 11.6393 17.5405 11.9708 17.5405C12.3024 17.5405 12.634 17.4079 12.8993 17.1426L15.7177 14.3242L18.5361 17.1426C18.8014 17.4079 19.133 17.5405 19.4645 17.5405C19.7961 17.5405 20.1277 17.4079 20.393 17.1426C20.9235 16.6121 20.9235 15.7831 20.393 15.2526L17.6408 12.4342L20.4593 9.61578C20.9566 9.08525 20.9566 8.2563 20.4593 7.72578Z" fill="#FEDB29"/>
<path d="M19.0658 0H12.4342C5.57053 0 0 5.57053 0 12.4342C0 19.2979 5.57053 24.8684 12.4342 24.8684H19.0658C25.9295 24.8684 31.5 19.2979 31.5 12.4342C31.5 5.57053 25.9295 0 19.0658 0ZM19.0658 22.2158H12.4342C7.02947 22.2158 2.65263 17.8389 2.65263 12.4342C2.65263 7.02947 7.02947 2.65263 12.4342 2.65263H19.0658C24.4705 2.65263 28.8474 7.02947 28.8474 12.4342C28.8474 17.8389 24.4705 22.2158 19.0658 22.2158Z" fill="#FEDB29"/>
</svg>
