<svg width="21" height="40" viewBox="0 0 21 40" fill="none" xmlns="http://www.w3.org/2000/svg">
<path d="M19.7914 5.625H16.1655V3.75C16.1655 3.41848 16.0381 3.10054 15.8115 2.86612C15.5848 2.6317 15.2774 2.5 14.9568 2.5H7.70504V1.25C7.70504 0.918479 7.5777 0.600537 7.35104 0.366117C7.12437 0.131696 6.81695 0 6.4964 0C6.17585 0 5.86843 0.131696 5.64177 0.366117C5.41511 0.600537 5.28777 0.918479 5.28777 1.25V30H3.6259C2.66425 30 1.74199 30.3951 1.062 31.0983C0.382013 31.8016 0 32.7554 0 33.75V38.75C0 39.0815 0.127338 39.3995 0.354001 39.6339C0.580663 39.8683 0.888084 40 1.20863 40H12.0863C12.4069 40 12.7143 39.8683 12.941 39.6339C13.1676 39.3995 13.295 39.0815 13.295 38.75V33.75C13.295 32.7554 12.913 31.8016 12.233 31.0983C11.553 30.3951 10.6307 30 9.66906 30H7.70504V12.5H8.91367V15.625C8.91367 15.9565 9.04101 16.2745 9.26767 16.5089C9.49433 16.7433 9.80175 16.875 10.1223 16.875H19.7914C20.1119 16.875 20.4193 16.7433 20.646 16.5089C20.8727 16.2745 21 15.9565 21 15.625V6.875C21 6.54348 20.8727 6.22554 20.646 5.99112C20.4193 5.7567 20.1119 5.625 19.7914 5.625ZM10.8777 33.75V37.5H2.41727V33.75C2.41727 33.4185 2.5446 33.1005 2.77127 32.8661C2.99793 32.6317 3.30535 32.5 3.6259 32.5H9.66906C9.98961 32.5 10.297 32.6317 10.5237 32.8661C10.7504 33.1005 10.8777 33.4185 10.8777 33.75ZM7.70504 5H13.7482V10H7.70504V5ZM18.5827 14.375H11.3309V12.5H14.9568C15.2774 12.5 15.5848 12.3683 15.8115 12.1339C16.0381 11.8995 16.1655 11.5815 16.1655 11.25V8.125H18.5827V14.375Z" fill="#FEDB29"/>
</svg>
