<svg width="23" height="20" viewBox="0 0 23 20" fill="none" xmlns="http://www.w3.org/2000/svg">
<path d="M16.6823 16.414C15.2293 17.7019 13.3889 18.3837 11.5 18.3837C7.0684 18.3837 3.46017 14.621 3.46017 9.99979V9.29271H4.74363C4.9858 9.29271 5.20374 9.16645 5.30061 8.93918C5.42169 8.73715 5.39748 8.45938 5.27639 8.25735L3.218 4.94925C2.97584 4.57046 2.37043 4.57046 2.15248 4.94925L0.0940912 8.25735C-0.0269906 8.48463 -0.0269907 8.73715 0.0698748 8.93918C0.190957 9.1412 0.408904 9.29271 0.626851 9.29271H1.91032V9.99979C1.91032 15.5049 6.22083 19.9998 11.5 19.9998C13.7763 19.9998 15.9558 19.1665 17.6994 17.6261C18.0384 17.3483 18.0626 16.818 17.7963 16.4897C17.5057 16.1614 17.0213 16.1109 16.6823 16.414Z" fill="#333333"/>
<path d="M22.9297 11.0607C22.8086 10.8587 22.5907 10.7071 22.3727 10.7071H21.0893V10.0001C21.0893 4.49498 16.7788 0 11.4996 0C9.22325 0 7.04377 0.833338 5.3002 2.37375C4.96117 2.65153 4.93695 3.18184 5.20333 3.51012C5.46971 3.86366 5.97825 3.88891 6.29307 3.61113C7.74605 2.32325 9.58649 1.64142 11.4754 1.64142C15.907 1.64142 19.5152 5.40407 19.5152 10.0253V10.7324H18.2317C17.9896 10.7324 17.7716 10.8587 17.6748 11.0859C17.5537 11.2879 17.5779 11.5657 17.699 11.7677L19.7816 15.0506C19.9027 15.2526 20.0964 15.3536 20.3143 15.3536C20.5323 15.3536 20.726 15.2274 20.8471 15.0506L22.9055 11.7172C23.0266 11.5152 23.0266 11.2627 22.9297 11.0607Z" fill="#333333"/>
</svg>
