<svg width="28" height="25" viewBox="0 0 28 25" fill="none" xmlns="http://www.w3.org/2000/svg">
<path d="M7.30767 14.1129H6.83758L4.91441 15.3684C4.93204 15.4851 4.94118 15.6044 4.94118 15.7258C4.94118 17.062 3.83506 18.1452 2.47059 18.1452C1.10612 18.1452 0 17.062 0 15.7258C0 14.3896 1.10612 13.3065 2.47059 13.3065C3.11206 13.3065 3.69642 13.5459 4.1356 13.9384L6.13142 12.6354C6.2667 12.5471 6.42565 12.5 6.58824 12.5H7.01191C7.00401 12.3666 7 12.2321 7 12.0968C7 11.4337 7.09613 10.7927 7.27549 10.1863L4.65202 9.22284C4.33059 9.10481 4.11765 8.80391 4.11765 8.46774V4.70105C3.15808 4.36892 2.47059 3.47276 2.47059 2.41935C2.47059 1.08318 3.57671 0 4.94118 0C6.30564 0 7.41176 1.08318 7.41176 2.41935C7.41176 3.47276 6.72428 4.36892 5.76471 4.70105V7.90888L7.91858 8.69982C9.12442 6.63412 11.3962 5.24194 14 5.24194C14.5154 5.24194 15.0178 5.29648 15.5015 5.4L17.4193 2.39516C17.5698 2.15937 17.8337 2.01613 18.1176 2.01613H21.5523C21.8915 1.07646 22.8066 0.403226 23.8824 0.403226C25.2468 0.403226 26.3529 1.48641 26.3529 2.82258C26.3529 4.15875 25.2468 5.24194 23.8824 5.24194C22.8066 5.24194 21.8915 4.5687 21.5523 3.62903H18.5741L17.0949 5.94662C19.4086 7.06526 21 9.39902 21 12.0968C21 12.3696 20.9837 12.6387 20.9521 12.9032H21.5346L23.1739 11.619C23.0992 11.3881 23.0588 11.1422 23.0588 10.8871C23.0588 9.55092 24.1649 8.46774 25.5294 8.46774C26.8939 8.46774 28 9.55092 28 10.8871C28 12.2233 26.8939 13.3065 25.5294 13.3065C25.0262 13.3065 24.558 13.1591 24.1676 12.9061L22.338 14.3394C22.192 14.4538 22.0105 14.5161 21.8235 14.5161H20.5515C19.8798 16.2596 18.5032 17.6644 16.762 18.3974L18.5839 21.371H21.5523C21.8915 20.4313 22.8066 19.7581 23.8824 19.7581C25.2468 19.7581 26.3529 20.8412 26.3529 22.1774C26.3529 23.5136 25.2468 24.5968 23.8824 24.5968C22.8066 24.5968 21.8915 23.9235 21.5523 22.9839H18.1176C17.8284 22.9839 17.5603 22.8352 17.4115 22.5923L15.1267 18.8633C14.7599 18.9214 14.3835 18.9516 14 18.9516C13.136 18.9516 12.3086 18.7983 11.5445 18.518L9.19724 21.4734C9.37194 21.8052 9.47059 22.1816 9.47059 22.5806C9.47059 23.9168 8.36447 25 7 25C5.63553 25 4.52941 23.9168 4.52941 22.5806C4.52941 21.2445 5.63553 20.1613 7 20.1613C7.35271 20.1613 7.68816 20.2337 7.9917 20.3641L10.0582 17.7623C8.7622 16.8959 7.77876 15.6142 7.30767 14.1129ZM4.94118 3.22581C5.396 3.22581 5.76471 2.86475 5.76471 2.41935C5.76471 1.97396 5.396 1.6129 4.94118 1.6129C4.48635 1.6129 4.11765 1.97396 4.11765 2.41935C4.11765 2.86475 4.48635 3.22581 4.94118 3.22581ZM23.8824 3.62903C24.3372 3.62903 24.7059 3.26797 24.7059 2.82258C24.7059 2.37719 24.3372 2.01613 23.8824 2.01613C23.4275 2.01613 23.0588 2.37719 23.0588 2.82258C23.0588 3.26797 23.4275 3.62903 23.8824 3.62903ZM14 17.3387C16.9563 17.3387 19.3529 14.9918 19.3529 12.0968C19.3529 9.20173 16.9563 6.85484 14 6.85484C11.0437 6.85484 8.64706 9.20173 8.64706 12.0968C8.64706 14.9918 11.0437 17.3387 14 17.3387ZM25.5294 11.6935C25.9842 11.6935 26.3529 11.3325 26.3529 10.8871C26.3529 10.4417 25.9842 10.0806 25.5294 10.0806C25.0746 10.0806 24.7059 10.4417 24.7059 10.8871C24.7059 11.3325 25.0746 11.6935 25.5294 11.6935ZM23.8824 22.9839C24.3372 22.9839 24.7059 22.6228 24.7059 22.1774C24.7059 21.732 24.3372 21.371 23.8824 21.371C23.4275 21.371 23.0588 21.732 23.0588 22.1774C23.0588 22.6228 23.4275 22.9839 23.8824 22.9839ZM7 23.3871C7.45482 23.3871 7.82353 23.026 7.82353 22.5806C7.82353 22.1353 7.45482 21.7742 7 21.7742C6.54518 21.7742 6.17647 22.1353 6.17647 22.5806C6.17647 23.026 6.54518 23.3871 7 23.3871ZM2.47059 16.5323C2.92541 16.5323 3.29412 16.1712 3.29412 15.7258C3.29412 15.2804 2.92541 14.9194 2.47059 14.9194C2.01577 14.9194 1.64706 15.2804 1.64706 15.7258C1.64706 16.1712 2.01577 16.5323 2.47059 16.5323ZM14 16.129C11.7259 16.129 9.88235 14.3237 9.88235 12.0968C9.88235 9.86982 11.7259 8.06452 14 8.06452C16.2741 8.06452 18.1176 9.86982 18.1176 12.0968C18.1176 14.3237 16.2741 16.129 14 16.129ZM14 14.5161C15.3645 14.5161 16.4706 13.4329 16.4706 12.0968C16.4706 10.7606 15.3645 9.67742 14 9.67742C12.6355 9.67742 11.5294 10.7606 11.5294 12.0968C11.5294 13.4329 12.6355 14.5161 14 14.5161Z" fill="#FEDB29"/>
</svg>
