<svg width="21" height="26" viewBox="0 0 21 26" fill="none" xmlns="http://www.w3.org/2000/svg">
<path d="M20.1074 6.30286C18.6809 6.30286 17.2514 6.30286 15.8249 6.30286C15.5847 6.30286 15.3356 6.31759 15.0954 6.28813C15.1754 6.29991 15.2525 6.30875 15.3326 6.32054C15.1992 6.29991 15.0716 6.2675 14.9471 6.2174C15.0182 6.24687 15.0894 6.27634 15.1606 6.30581C15.0776 6.27044 14.9945 6.22919 14.9174 6.17909C14.7365 6.06417 15.0479 6.29991 14.9411 6.20267C14.9085 6.1732 14.8729 6.14373 14.8403 6.11132C14.8077 6.0789 14.778 6.04649 14.7484 6.01113C14.6475 5.89915 14.8759 6.21151 14.784 6.04943C14.7335 5.96398 14.6861 5.88147 14.6446 5.79306C14.6742 5.86379 14.7039 5.93451 14.7335 6.00523C14.6831 5.88147 14.6505 5.75476 14.6297 5.62215C14.6416 5.70171 14.6505 5.77833 14.6624 5.85789C14.6386 5.65456 14.6475 5.44829 14.6475 5.24496C14.6475 4.87366 14.6475 4.50237 14.6475 4.13107C14.6475 3.25292 14.6475 2.37773 14.6475 1.49958C14.6475 1.2933 14.6475 1.08703 14.6475 0.880753C14.1404 1.08998 13.6362 1.29625 13.1291 1.50547C13.8438 2.21565 14.5556 2.92288 15.2703 3.63306C16.4092 4.76463 17.548 5.8962 18.6868 7.02777C18.9507 7.29004 19.2117 7.54935 19.4757 7.81162C19.8049 8.13871 20.4099 8.16229 20.7331 7.81162C21.0593 7.458 21.086 6.9099 20.7331 6.56218C20.0184 5.852 19.3066 5.14477 18.5919 4.43459C17.4531 3.30302 16.3143 2.17145 15.1754 1.03988C14.9115 0.777615 14.6505 0.518297 14.3866 0.256032C14.1345 0.00555426 13.743 -0.062222 13.4168 0.0733307C13.0935 0.208883 12.8711 0.527137 12.8711 0.880753C12.8711 1.54378 12.8711 2.20976 12.8711 2.87279C12.8711 3.74504 12.8711 4.61435 12.8711 5.4866C12.8711 6.02881 12.9719 6.57691 13.3041 7.02482C13.7964 7.68491 14.5141 8.07094 15.3474 8.07094C16.1333 8.07094 16.9193 8.07094 17.7052 8.07094C18.4911 8.07094 19.2799 8.08272 20.0658 8.07094C20.0807 8.07094 20.0955 8.07094 20.1074 8.07094C20.573 8.07094 21.0178 7.66428 20.9971 7.1869C20.9763 6.70952 20.6056 6.30286 20.1074 6.30286Z" fill="#FEDB29"/>
<path d="M19.2176 7.18691C19.2176 7.72617 19.2176 8.26544 19.2176 8.8047C19.2176 10.0866 19.2176 11.3655 19.2176 12.6473C19.2176 14.1944 19.2176 15.7385 19.2176 17.2856C19.2176 18.6087 19.2176 19.9289 19.2176 21.252C19.2176 21.8649 19.2206 22.4749 19.2176 23.0878C19.2176 23.188 19.2117 23.2853 19.1969 23.3855C19.2087 23.3059 19.2176 23.2293 19.2295 23.1497C19.2028 23.3206 19.1583 23.4856 19.0901 23.6448C19.1198 23.574 19.1494 23.5033 19.1791 23.4326C19.1287 23.5446 19.0723 23.6536 19.0041 23.7568C18.9982 23.7656 18.9537 23.8363 18.9477 23.8363C18.9448 23.8363 19.096 23.6566 19.016 23.7479C18.9744 23.7951 18.9329 23.8452 18.8855 23.8894C18.844 23.9306 18.7995 23.9689 18.7579 24.0072C18.7016 24.0573 18.6156 24.0809 18.8321 23.9512C18.8113 23.963 18.7906 23.9807 18.7698 23.9954C18.663 24.0691 18.5474 24.128 18.4258 24.1811C18.497 24.1516 18.5681 24.1222 18.6393 24.0927C18.4792 24.1575 18.3131 24.2047 18.1411 24.2312C18.2212 24.2194 18.2983 24.2106 18.3783 24.1988C18.1678 24.2253 17.9542 24.2194 17.7407 24.2194C17.3789 24.2194 17.0171 24.2194 16.6523 24.2194C15.4334 24.2194 14.2116 24.2194 12.9927 24.2194C11.5069 24.2194 10.0181 24.2194 8.53227 24.2194C7.25406 24.2194 5.97585 24.2194 4.69764 24.2194C4.10451 24.2194 3.51137 24.2223 2.91823 24.2194C2.8174 24.2194 2.71953 24.2135 2.62166 24.1988C2.70174 24.2106 2.77884 24.2194 2.85892 24.2312C2.68691 24.2047 2.52083 24.1605 2.36068 24.0927C2.43186 24.1222 2.50304 24.1516 2.57421 24.1811C2.46152 24.131 2.35179 24.075 2.24799 24.0072C2.23909 24.0013 2.16791 23.9571 2.16791 23.9512C2.16791 23.9483 2.34882 24.0986 2.25688 24.019C2.20943 23.9778 2.15902 23.9365 2.11453 23.8894C2.07301 23.8481 2.03446 23.8039 1.9959 23.7626C1.94549 23.7067 1.92176 23.6212 2.05225 23.8363C2.04039 23.8157 2.0226 23.7951 2.00777 23.7744C1.93363 23.6683 1.87431 23.5534 1.82093 23.4326C1.85059 23.5033 1.88024 23.574 1.9099 23.6448C1.84465 23.4856 1.7972 23.3206 1.77051 23.1497C1.78238 23.2293 1.79127 23.3059 1.80313 23.3855C1.77051 23.132 1.78238 22.8698 1.78238 22.6163C1.78238 22.136 1.78238 21.6527 1.78238 21.1724C1.78238 20.4445 1.78238 19.7137 1.78238 18.9859C1.78238 18.096 1.78238 17.2031 1.78238 16.3131C1.78238 15.3289 1.78238 14.3476 1.78238 13.3634C1.78238 12.3703 1.78238 11.3773 1.78238 10.3842C1.78238 9.46478 1.78238 8.54538 1.78238 7.62598C1.78238 6.84803 1.78238 6.07302 1.78238 5.29507C1.78238 4.74402 1.78238 4.19297 1.78238 3.64191C1.78238 3.39733 1.78238 3.1498 1.78238 2.90521C1.78238 2.80208 1.78831 2.70189 1.80313 2.60169C1.79127 2.68126 1.78238 2.75787 1.77051 2.83744C1.7972 2.66652 1.84169 2.5015 1.9099 2.34238C1.88024 2.4131 1.85059 2.48382 1.82093 2.55455C1.87135 2.44257 1.92769 2.33354 1.9959 2.2304C2.00184 2.22156 2.04632 2.15083 2.05225 2.15083C2.05522 2.15083 1.90397 2.33059 1.98404 2.23924C2.02556 2.19209 2.06708 2.14199 2.11453 2.09779C2.15605 2.05654 2.20054 2.01823 2.24206 1.97992C2.2984 1.92982 2.38441 1.90625 2.16791 2.03591C2.18867 2.02412 2.20943 2.00644 2.23019 1.99171C2.33696 1.91804 2.45262 1.8591 2.57421 1.80606C2.50304 1.83553 2.43186 1.865 2.36068 1.89446C2.52083 1.82963 2.68691 1.78249 2.85892 1.75596C2.77884 1.76775 2.70174 1.77659 2.62166 1.78838C3.03389 1.73534 3.46985 1.76775 3.88504 1.76775C4.74213 1.76775 5.60217 1.76775 6.45926 1.76775C7.51504 1.76775 8.57379 1.76775 9.62957 1.76775C10.5519 1.76775 11.4713 1.76775 12.3936 1.76775C12.8444 1.76775 13.2952 1.77954 13.743 1.76775C13.7489 1.76775 13.7548 1.76775 13.7637 1.76775C13.5532 1.68229 13.3456 1.59389 13.135 1.50843C13.8497 2.21861 14.5615 2.92584 15.2762 3.63602C16.4151 4.76759 17.5539 5.89916 18.6927 7.03073C18.9566 7.293 19.2176 7.55231 19.4816 7.81458C19.8108 8.14167 20.4158 8.16525 20.739 7.81458C21.0652 7.46096 21.0919 6.91286 20.739 6.56514C19.9442 5.77539 19.1494 4.98565 18.3546 4.19591C17.1921 3.04077 16.0295 1.88562 14.867 0.730478C14.7335 0.597872 14.5971 0.46232 14.4636 0.329714C14.2679 0.135225 14.0306 0.00556617 13.737 0.00261938C13.3693 -0.00327422 12.9986 0.00261938 12.6308 0.00261938C10.9582 0.00261938 9.28555 0.00261938 7.61291 0.00261938C6.16862 0.00261938 4.7273 0.00261938 3.28301 0.00261938C2.57421 0.00261938 1.86838 0.082183 1.26931 0.509469C0.922327 0.759946 0.625759 1.05168 0.406298 1.42003C0.17201 1.81195 0.0593135 2.23335 0.0118626 2.6842C0.0029655 2.7844 0 2.88459 0 2.98772C0 3.82167 0 4.65561 0 5.48956C0 7.07493 0 8.66031 0 10.2457C0 12.0815 0 13.9174 0 15.7532C0 17.3386 0 18.924 0 20.5094C0 21.3433 0 22.1773 0 23.0112C0 23.1114 -1.81188e-07 23.2145 0.0118626 23.3147C0.0563478 23.7656 0.169044 24.187 0.406298 24.5789C0.634656 24.959 0.940121 25.2596 1.30193 25.513C1.85948 25.902 2.52083 25.9993 3.18218 25.9993C4.35066 25.9993 5.51914 25.9993 6.69058 25.9993C8.50261 25.9993 10.3117 25.9993 12.1237 25.9993C13.6718 25.9993 15.2199 25.9993 16.765 25.9993C17.1565 25.9993 17.5479 25.9993 17.9365 25.9993C18.0165 25.9993 18.0966 26.0022 18.1767 25.9963C18.9833 25.9639 19.79 25.6103 20.3031 24.9797C20.745 24.4375 20.9941 23.8039 21 23.1026C21 23.0289 21 22.9582 21 22.8845C21 22.469 21 22.0535 21 21.638C21 20.0998 21 18.5615 21 17.0233C21 15.211 21 13.3988 21 11.5865C21 10.3076 21 9.03161 21 7.7527C21 7.56705 21 7.3814 21 7.19575C21 6.7331 20.5907 6.29108 20.1103 6.31171C19.6239 6.32645 19.2176 6.69185 19.2176 7.18691Z" fill="#FEDB29"/>
<path d="M5.47488 13.4163C6.61073 13.4163 7.74659 13.4163 8.87948 13.4163C10.6767 13.4163 12.4769 13.4163 14.2741 13.4163C14.6893 13.4163 15.1045 13.4163 15.5196 13.4163C15.9853 13.4163 16.4301 13.0097 16.4094 12.5323C16.3886 12.052 16.0179 11.6482 15.5196 11.6482C14.3838 11.6482 13.2479 11.6482 12.115 11.6482C10.3178 11.6482 8.51767 11.6482 6.72046 11.6482C6.30527 11.6482 5.89007 11.6482 5.47488 11.6482C5.00926 11.6482 4.56441 12.0549 4.58517 12.5323C4.6089 13.0097 4.97664 13.4163 5.47488 13.4163Z" fill="#FEDB29"/>
<path d="M5.47488 17.19C6.61073 17.19 7.74659 17.19 8.87948 17.19C10.6767 17.19 12.4769 17.19 14.2741 17.19C14.6893 17.19 15.1045 17.19 15.5196 17.19C15.9853 17.19 16.4301 16.7833 16.4094 16.306C16.3886 15.8256 16.0179 15.4219 15.5196 15.4219C14.3838 15.4219 13.2479 15.4219 12.115 15.4219C10.3178 15.4219 8.51767 15.4219 6.72046 15.4219C6.30527 15.4219 5.89007 15.4219 5.47488 15.4219C5.00926 15.4219 4.56441 15.8286 4.58517 16.306C4.6089 16.7863 4.97664 17.19 5.47488 17.19Z" fill="#FEDB29"/>
<path d="M5.47488 20.9682C6.17478 20.9682 6.87171 20.9682 7.57161 20.9682C8.68671 20.9682 9.79884 20.9682 10.9139 20.9682C11.169 20.9682 11.424 20.9682 11.6821 20.9682C12.1477 20.9682 12.5925 20.5616 12.5718 20.0842C12.551 19.6039 12.1803 19.2002 11.6821 19.2002C10.9822 19.2002 10.2852 19.2002 9.58531 19.2002C8.47022 19.2002 7.35809 19.2002 6.24299 19.2002C5.98794 19.2002 5.73289 19.2002 5.47488 19.2002C5.00926 19.2002 4.56441 19.6068 4.58517 20.0842C4.6089 20.5645 4.97664 20.9682 5.47488 20.9682Z" fill="#FEDB29"/>
</svg>
