<svg width="29" height="29" viewBox="0 0 29 29" fill="none" xmlns="http://www.w3.org/2000/svg">
<path d="M19.3734 22.2021V22.9723C19.3734 23.2402 19.1929 23.4411 18.9523 23.4411H17.8994C17.6587 23.4411 17.4782 23.2402 17.4782 22.9723V22.2021C17.4782 21.9342 17.6587 21.7333 17.8994 21.7333H18.9523C19.1929 21.7667 19.3734 21.9677 19.3734 22.2021ZM20.6971 15.0358C20.1857 14.5335 19.4938 14.2991 18.6214 14.2991C17.8091 14.2991 17.1473 14.5 16.6359 14.9353C16.1846 15.3037 15.944 15.873 15.9139 16.5762C15.9139 16.7437 16.0342 16.8776 16.1846 16.8776L17.388 16.9111C17.5685 16.9111 17.749 16.7771 17.8091 16.5762C17.8392 16.4088 17.9295 16.2748 18.0197 16.1744C18.2002 16.0069 18.3807 15.9065 18.6515 15.9065C18.9523 15.9065 19.1929 16.0069 19.3734 16.2079C19.5539 16.4088 19.6141 16.6767 19.6141 17.045C19.6141 17.3799 19.5539 17.6813 19.4035 17.9157C19.2531 18.1501 19.0726 18.3845 18.832 18.552C18.3506 18.9203 18.0197 19.2552 17.8392 19.5566C17.6888 19.791 17.5985 20.0924 17.5685 20.4942C17.5384 20.6952 17.6888 20.8291 17.8693 20.8291H19.1629C19.3133 20.8291 19.4336 20.6952 19.4637 20.5277C19.4938 20.3268 19.5239 20.1594 19.584 19.9919C19.6743 19.791 19.8247 19.5901 20.0654 19.4226C20.4865 19.1882 20.8475 18.8199 21.1183 18.418C21.389 17.9827 21.5394 17.5139 21.5394 17.0115C21.4492 16.2079 21.2085 15.5381 20.6971 15.0358ZM0.992739 17.0785C0.60166 17.3799 0.391079 17.9157 0.511411 18.418C0.60166 18.9203 0.992738 19.3222 1.47407 19.3891C1.80498 19.4561 2.13589 19.4561 2.4668 19.4561C3.45954 19.4561 4.36203 19.2217 5.14419 18.8199C5.6556 19.1212 6.1971 19.3557 6.76867 19.5566C6.76867 19.4226 6.76867 19.2887 6.76867 19.1547C6.76867 18.5855 6.79876 18.0497 6.889 17.5139C6.43776 17.3129 6.0166 17.112 5.59544 16.8441L5.11411 16.5427L4.66286 16.8441C4.21162 17.1455 3.70021 17.3464 3.12863 17.4469C3.39938 17.045 3.60996 16.6097 3.76037 16.1409L3.94087 15.5716L3.57988 15.1363C2.37656 13.6963 1.74481 11.955 1.74481 10.1132C1.74481 5.65935 5.53527 2.00924 10.168 2.00924C13.7178 2.00924 16.7562 4.11894 17.9896 7.09931C18.2905 7.06582 18.5913 7.06582 18.8921 7.06582C19.223 7.06582 19.5539 7.09931 19.9149 7.09931C18.6214 2.98037 14.7407 0 10.1981 0C4.57261 0 0 4.52079 0 10.0797C0 12.1894 0.661826 14.2321 1.92531 15.94C1.68465 16.4088 1.38382 16.8106 0.992739 17.0785ZM29 18.8533C29 20.9965 28.3081 23.0727 27.0446 24.8141C27.2853 25.2829 27.5861 25.6848 27.9772 25.9527C28.3683 26.254 28.5788 26.7898 28.4585 27.2921C28.3683 27.8279 27.9772 28.1963 27.4958 28.2633C27.1649 28.3303 26.834 28.3303 26.5031 28.3303C25.5104 28.3303 24.6079 28.0958 23.7656 27.6605C22.2012 28.5312 20.4564 29 18.6515 29C12.9658 29 8.33299 24.4122 8.33299 18.8199C8.33299 13.2275 12.9959 8.67321 18.6815 8.67321C24.3672 8.67321 29 13.2275 29 18.8533ZM27.2251 18.8533C27.2251 14.3326 23.4046 10.649 18.6815 10.649C13.9585 10.649 10.138 14.3326 10.138 18.8533C10.138 23.3741 13.9585 27.0577 18.6815 27.0577C20.3662 27.0577 21.9606 26.5889 23.3745 25.7182L23.8257 25.4169L24.277 25.7182C24.7583 26.0196 25.2697 26.2206 25.8413 26.321C25.5705 25.9192 25.36 25.4503 25.2095 24.9815L25.029 24.4122L25.39 23.9769C26.5934 22.5035 27.2251 20.7286 27.2251 18.8533Z" fill="#FEDB29"/>
</svg>
