<svg width="20" height="13" viewBox="0 0 20 13" fill="none" xmlns="http://www.w3.org/2000/svg">
<g id="filter">
<path id="Vector" d="M19.2752 10.7506C19.6721 10.7506 19.9827 10.44 19.9827 10.0431C19.9827 9.64619 19.6721 9.33558 19.2752 9.33558L5.26316 9.33558C4.95255 8.19666 3.91717 7.35111 2.67472 7.35111C1.20794 7.35111 0 8.54179 0 10.0258C0 11.5099 1.20794 12.6833 2.67472 12.6833C3.89991 12.6833 4.93529 11.855 5.2459 10.7333L19.2752 10.7333V10.7506ZM2.67472 11.2855C1.98447 11.2855 1.41501 10.7161 1.41501 10.0258C1.41501 9.33558 1.98447 8.76612 2.67472 8.76612C3.36497 8.76612 3.93443 9.33558 3.93443 10.0258C3.93443 10.7161 3.36497 11.2855 2.67472 11.2855Z" fill="#20253B"/>
<path id="Vector_2" d="M0 2.69198C0 3.08887 0.310613 3.39948 0.707506 3.39948L7.98965 3.39948C8.30026 4.52114 9.33564 5.34944 10.5608 5.34944C11.786 5.34944 12.8214 4.52114 13.132 3.39948H19.2925C19.6894 3.39948 20 3.08887 20 2.69198C20 2.29508 19.6894 1.98447 19.2925 1.98447L13.132 1.98447C12.8214 0.845559 11.786 2.38419e-06 10.5436 2.38419e-06C9.30112 2.38419e-06 8.26575 0.845559 7.95513 1.98447L0.707506 1.98447C0.310613 1.98447 0 2.29508 0 2.69198ZM10.5608 1.39776C11.2511 1.39776 11.8205 1.96722 11.8205 2.65747C11.8205 3.34772 11.2511 3.91717 10.5608 3.91717C9.87058 3.91717 9.30112 3.34772 9.30112 2.65747C9.30112 1.96722 9.85332 1.39776 10.5608 1.39776Z" fill="#20253B"/>
</g>
</svg>
