<svg width="22" height="30" viewBox="0 0 22 30" fill="none" xmlns="http://www.w3.org/2000/svg">
<path d="M22 4.43628V15.1088C22 16.8178 20.8698 18.3451 19.1936 18.9271H19.1746C18.0068 19.3455 16.8013 19.5454 15.5958 19.5454C13.7877 19.5454 11.9983 19.0908 10.3784 18.2365L10.2655 18.1638C9.04137 17.5275 7.72262 17.2001 6.40421 17.2001C5.51882 17.2001 4.61479 17.3455 3.74839 17.6548C3.44693 17.7638 3.14582 17.8001 2.82536 17.8001V28.6363C2.82536 29.4 2.2038 30 1.41268 30C0.640559 30 0 29.4 0 28.6363V15.1088V4.43628C0 2.7273 1.13021 1.18165 2.80637 0.599993C3.97457 0.199998 5.19871 0 6.40421 0C8.21227 0 10.0017 0.436328 11.6216 1.30899L11.7345 1.36365C12.9586 2.01831 14.2774 2.34531 15.5958 2.34531C16.4812 2.34531 17.3662 2.19998 18.2326 1.89065H18.2516H18.2706C18.5721 1.78165 18.8922 1.72698 19.1936 1.72698C19.9471 1.72698 20.6439 2.01798 21.1526 2.50864C21.6609 2.98163 22 3.67263 22 4.43628ZM19.1746 15.1088V4.47262V4.45428C18.0068 4.87261 16.8013 5.07261 15.5958 5.07261C13.7877 5.07261 11.9983 4.61795 10.3784 3.76362L10.2655 3.69096C9.04137 3.05463 7.72262 2.7273 6.40421 2.7273C5.51882 2.7273 4.61479 2.87263 3.74839 3.18196C3.2021 3.36363 2.82536 3.87296 2.82536 4.43662V15.0912C3.99322 14.6728 5.19871 14.4728 6.40421 14.4728C8.21227 14.4728 10.0017 14.9275 11.6216 15.7818L11.7345 15.8365C12.9586 16.4911 14.2774 16.8181 15.5958 16.8181C16.4812 16.8181 17.3852 16.6728 18.2516 16.3635H18.2706C18.7979 16.1635 19.1746 15.6725 19.1746 15.1088Z" fill="#FEDB29"/>
</svg>
