<svg width="34" height="23" viewBox="0 0 34 23" fill="none" xmlns="http://www.w3.org/2000/svg">
<path d="M31.9665 10.6557C31.9665 9.88413 31.9665 8.96563 31.8951 7.90018C31.6454 3.89553 29.2907 3.01377 26.1512 2.83007C23.5111 2.64637 18.8731 2.79333 16.8395 2.09527C16.4114 1.94831 15.9833 2.24223 16.1973 2.79333C16.3401 3.12399 16.4471 3.45465 16.5541 3.82205C16.4471 3.78531 16.3044 3.71183 16.1973 3.67509C15.9476 3.60161 15.6979 3.85879 15.7692 4.11597C16.126 5.29164 15.8763 9.22281 15.8049 10.7291C14.5919 10.9496 13.9497 11.8313 13.9497 13.3009C13.9497 15.2482 15.0914 15.7258 15.8049 15.8727C15.8406 16.0564 15.8406 16.2769 15.8763 16.4606C16.3401 20.8694 16.8752 23.0003 23.9749 23.0003C31.0746 23.0003 31.6097 20.8694 32.0735 16.4606C32.1092 16.2769 32.1092 16.0932 32.1449 15.8727C32.8584 15.7258 34.0001 15.2482 34.0001 13.3009C33.893 11.7579 33.2152 10.8394 31.9665 10.6557ZM31.467 14.3664C31.0389 14.4031 30.6821 14.7705 30.6108 15.2114C30.5751 15.5788 30.5394 15.9095 30.5037 16.2401C30.1113 20.1346 29.9686 21.4205 23.8679 21.4205C17.7671 21.4205 17.6601 20.0978 17.232 16.2401C17.1963 15.9095 17.1606 15.5788 17.1249 15.2114C17.0893 14.7705 16.7325 14.4031 16.2687 14.3664C15.5908 14.2929 15.3054 14.1827 15.3054 13.2275C15.3054 12.2722 15.6265 12.1253 16.3401 12.1253C16.5541 12.1253 16.6255 12.1987 16.6611 12.3457C16.8038 12.7498 17.1963 12.9703 17.5887 12.8233C17.9812 12.6764 18.1952 12.2722 18.0525 11.8681C17.9455 11.5007 17.7314 11.2068 17.446 11.0231C17.5887 9.84739 17.7314 8.81867 18.0169 7.97365C19.0158 8.59823 20.764 9.03911 23.7965 9.03911C26.8647 9.03911 28.6485 8.59823 29.6118 7.97365C29.8972 8.81867 30.0399 9.84739 30.1826 11.0231C30.0043 11.17 29.7902 11.4639 29.6475 11.8313C29.5048 12.2355 29.7188 12.6764 30.0756 12.7866C30.4681 12.9335 30.8962 12.7131 31.0032 12.3457C31.0746 12.1987 31.1102 12.1253 31.3243 12.1253C32.0378 12.1253 32.3589 12.309 32.3589 13.2275C32.4303 14.1827 32.1449 14.2929 31.467 14.3664Z" fill="#FEDB29"/>
<path d="M11.8804 0H1.67681C0.749212 0 0 0.771538 0 1.72678V7.93582C0 8.89106 0.749212 9.66259 1.67681 9.66259H6.81426C7.5278 10.6178 8.84784 12.1976 10.4176 13.0059C10.5246 13.0794 10.6674 13.0794 10.7744 13.0794C10.9884 13.0794 11.1668 13.0059 11.3452 12.859C11.595 12.6018 11.6663 12.2344 11.5236 11.9405C11.1668 11.0955 11.0598 10.2872 11.0241 9.69934H11.8804C12.808 9.69934 13.5572 8.9278 13.5572 7.97256V1.72678C13.5572 0.771538 12.808 0 11.8804 0ZM3.46065 5.87838C2.88982 5.87838 2.4617 5.40077 2.4617 4.84967C2.4617 4.26183 2.9255 3.82095 3.46065 3.82095C4.03148 3.82095 4.4596 4.29857 4.4596 4.84967C4.4596 5.43751 3.9958 5.87838 3.46065 5.87838ZM6.77859 5.87838C6.20776 5.87838 5.77964 5.40077 5.77964 4.84967C5.77964 4.26183 6.24344 3.82095 6.77859 3.82095C7.34942 3.82095 7.77754 4.29857 7.77754 4.84967C7.77754 5.43751 7.31374 5.87838 6.77859 5.87838ZM10.0965 5.87838C9.5257 5.87838 9.09758 5.40077 9.09758 4.84967C9.09758 4.26183 9.56138 3.82095 10.0965 3.82095C10.6317 3.82095 11.0955 4.29857 11.0955 4.84967C11.0955 5.43751 10.6674 5.87838 10.0965 5.87838Z" fill="#FEDB29"/>
<path d="M23.1545 12.2717C23.2258 11.9043 23.0118 11.5737 22.6907 11.4635C22.3339 11.39 22.0128 11.6104 21.9058 11.9411C21.8344 12.1983 21.6204 12.382 21.335 12.382C21.0495 12.382 20.8355 12.1983 20.7641 11.9411C20.6928 11.5737 20.336 11.3532 19.9792 11.4635C19.6225 11.5369 19.4084 11.9043 19.5154 12.2717C19.7295 13.1168 20.4787 13.7413 21.335 13.7413C22.2269 13.7413 22.9761 13.1535 23.1545 12.2717Z" fill="#FEDB29"/>
<path d="M27.7209 11.4635C27.3642 11.39 27.0431 11.6104 26.9361 11.9411C26.8647 12.1983 26.6506 12.382 26.3652 12.382C26.0798 12.382 25.8658 12.1983 25.7944 11.9411C25.723 11.5737 25.3663 11.3532 25.0095 11.4635C24.6527 11.5369 24.4387 11.9043 24.5457 12.2717C24.7598 13.1168 25.509 13.7413 26.3652 13.7413C27.2215 13.7413 27.9707 13.1535 28.1847 12.2717C28.2561 11.9043 28.042 11.5737 27.7209 11.4635Z" fill="#FEDB29"/>
<path d="M23.8677 15.2116C22.6191 15.2116 21.5131 15.9464 20.9779 17.0118C20.6568 17.6732 21.085 18.4447 21.7985 18.4447H25.9013C26.6149 18.4447 27.0787 17.6732 26.7219 17.0118C26.2224 15.9464 25.1164 15.2116 23.8677 15.2116Z" fill="#FEDB29"/>
</svg>
