<svg width="11" height="23" viewBox="0 0 11 23" fill="none" xmlns="http://www.w3.org/2000/svg">
<path d="M9.5 5.7499V16.3299C9.5 18.4199 7.97 20.2799 5.89 20.4799C3.5 20.7099 1.5 18.8399 1.5 16.4999V4.1399C1.5 2.8299 2.44 1.6399 3.74 1.5099C5.24 1.3599 6.5 2.5299 6.5 3.9999V14.4999C6.5 15.0499 6.05 15.4999 5.5 15.4999C4.95 15.4999 4.5 15.0499 4.5 14.4999V5.7499C4.5 5.3399 4.16 4.9999 3.75 4.9999C3.34 4.9999 3 5.3399 3 5.7499V14.3599C3 15.6699 3.94 16.8599 5.24 16.9899C6.74 17.1399 8 15.9699 8 14.4999V4.1699C8 2.0799 6.47 0.219902 4.39 0.0199019C2.01 -0.210098 0 1.6599 0 3.9999V16.2699C0 19.1399 2.1 21.7099 4.96 21.9799C8.25 22.2799 11 19.7199 11 16.4999V5.7499C11 5.3399 10.66 4.9999 10.25 4.9999C9.84 4.9999 9.5 5.3399 9.5 5.7499Z" fill="#333333"/>
</svg>
