<svg width="181" height="24" viewBox="0 0 181 24" fill="none" xmlns="http://www.w3.org/2000/svg">
<path d="M2.904 23.32C2.264 23.32 1.752 23.1493 1.368 22.808C0.984 22.4667 0.792 21.9973 0.792 21.4V8.216C0.792 5.74133 1.496 3.8 2.904 2.392C4.312 0.983999 6.25333 0.279999 8.728 0.279999C9.92267 0.279999 11.0427 0.578665 12.088 1.176C13.1547 1.752 14.072 2.584 14.84 3.672C15.5867 2.56267 16.4827 1.72 17.528 1.144C18.5947 0.567999 19.7467 0.279999 20.984 0.279999C23.4587 0.279999 25.4 0.983999 26.808 2.392C28.216 3.8 28.92 5.74133 28.92 8.216V21.4C28.92 21.976 28.7173 22.4453 28.312 22.808C27.928 23.1493 27.416 23.32 26.776 23.32C26.136 23.32 25.624 23.1493 25.24 22.808C24.856 22.4667 24.664 21.9973 24.664 21.4V8.216C24.664 6.59467 24.3653 5.432 23.768 4.728C23.1707 4.00267 22.1893 3.64 20.824 3.64C19.5867 3.64 18.6267 4.03467 17.944 4.824C17.2827 5.61333 16.952 6.744 16.952 8.216V21.4C16.952 21.9973 16.76 22.4667 16.376 22.808C15.992 23.1493 15.48 23.32 14.84 23.32C14.2 23.32 13.688 23.1493 13.304 22.808C12.9413 22.4667 12.76 21.9973 12.76 21.4V8.216C12.76 6.78667 12.4187 5.66667 11.736 4.856C11.0533 4.04533 10.104 3.64 8.888 3.64C7.52267 3.64 6.54133 4.00267 5.944 4.728C5.34667 5.432 5.048 6.59467 5.048 8.216V21.4C5.048 21.976 4.84533 22.4453 4.44 22.808C4.056 23.1493 3.544 23.32 2.904 23.32ZM49.7463 23.32C47.2503 23.32 45.0956 22.84 43.2823 21.88C41.4903 20.8987 40.1249 19.544 39.1863 17.816C38.2476 16.0667 37.7783 14.0613 37.7783 11.8C37.7783 9.53867 38.2476 7.544 39.1863 5.816C40.1249 4.06667 41.4903 2.712 43.2823 1.752C45.0956 0.770665 47.2503 0.279999 49.7463 0.279999C52.2423 0.279999 54.3863 0.770665 56.1783 1.752C57.9916 2.712 59.3676 4.06667 60.3063 5.816C61.2449 7.544 61.7143 9.53867 61.7143 11.8C61.7143 14.0613 61.2449 16.0667 60.3063 17.816C59.3676 19.544 57.9916 20.8987 56.1783 21.88C54.3863 22.84 52.2423 23.32 49.7463 23.32ZM49.7463 19.96C52.1783 19.96 54.0663 19.2347 55.4103 17.784C56.7543 16.312 57.4263 14.3173 57.4263 11.8C57.4263 9.26133 56.7223 7.26667 55.3143 5.816C53.9276 4.36533 51.9649 3.64 49.4263 3.64C47.1009 3.64 45.2876 4.38667 43.9863 5.88C42.7063 7.352 42.0663 9.32533 42.0663 11.8C42.0663 14.3173 42.7383 16.312 44.0823 17.784C45.4263 19.2347 47.3143 19.96 49.7463 19.96ZM83.0213 23.32C80.5253 23.32 78.3706 22.84 76.5573 21.88C74.7653 20.8987 73.3999 19.544 72.4613 17.816C71.5226 16.0667 71.0533 14.0613 71.0533 11.8C71.0533 9.53867 71.5226 7.544 72.4613 5.816C73.3999 4.06667 74.7653 2.712 76.5573 1.752C78.3706 0.770665 80.5253 0.279999 83.0213 0.279999C85.5173 0.279999 87.6613 0.770665 89.4533 1.752C91.2666 2.712 92.6426 4.06667 93.5813 5.816C94.5199 7.544 94.9893 9.53867 94.9893 11.8C94.9893 14.0613 94.5199 16.0667 93.5813 17.816C92.6426 19.544 91.2666 20.8987 89.4533 21.88C87.6613 22.84 85.5173 23.32 83.0213 23.32ZM83.0213 19.96C85.4533 19.96 87.3413 19.2347 88.6853 17.784C90.0293 16.312 90.7013 14.3173 90.7013 11.8C90.7013 9.26133 89.9973 7.26667 88.5893 5.816C87.2026 4.36533 85.2399 3.64 82.7013 3.64C80.3759 3.64 78.5626 4.38667 77.2613 5.88C75.9813 7.352 75.3413 9.32533 75.3413 11.8C75.3413 14.3173 76.0133 16.312 77.3573 17.784C78.7013 19.2347 80.5893 19.96 83.0213 19.96ZM105.788 23.32C105.148 23.32 104.636 23.1493 104.252 22.808C103.868 22.4667 103.676 21.9973 103.676 21.4V9.336C103.676 6.49867 104.561 4.28 106.332 2.68C108.102 1.08 110.556 0.279999 113.692 0.279999C116.828 0.279999 119.281 1.08 121.052 2.68C122.822 4.28 123.708 6.49867 123.708 9.336V21.4C123.708 21.9973 123.516 22.4667 123.132 22.808C122.748 23.1493 122.236 23.32 121.596 23.32C120.956 23.32 120.433 23.1493 120.028 22.808C119.644 22.4453 119.452 21.976 119.452 21.4V9.24C119.452 7.42667 118.961 6.04 117.98 5.08C116.998 4.12 115.569 3.64 113.692 3.64C111.814 3.64 110.385 4.12 109.404 5.08C108.422 6.04 107.932 7.42667 107.932 9.24V21.4C107.932 21.976 107.729 22.4453 107.324 22.808C106.94 23.1493 106.428 23.32 105.788 23.32ZM138.637 23C137.016 23 135.757 22.5733 134.861 21.72C133.965 20.8667 133.517 19.672 133.517 18.136V5.336C133.517 3.84267 133.944 2.68 134.797 1.848C135.672 1.016 136.877 0.599998 138.413 0.599998H148.365C149.005 0.599998 149.496 0.749332 149.837 1.048C150.178 1.32533 150.349 1.73067 150.349 2.264C150.349 2.776 150.168 3.18133 149.805 3.48C149.464 3.75733 148.984 3.896 148.365 3.896H139.149C138.722 3.896 138.381 4.03467 138.125 4.312C137.89 4.58933 137.773 4.97333 137.773 5.464V9.912H145.933C146.573 9.912 147.064 10.0613 147.405 10.36C147.746 10.6373 147.917 11.0427 147.917 11.576C147.917 12.088 147.736 12.4933 147.373 12.792C147.032 13.0693 146.552 13.208 145.933 13.208H137.773V18.136C137.773 18.6267 137.89 19.0107 138.125 19.288C138.381 19.5653 138.722 19.704 139.149 19.704H149.069C149.709 19.704 150.2 19.8533 150.541 20.152C150.882 20.4293 151.053 20.8347 151.053 21.368C151.053 21.88 150.872 22.2853 150.509 22.584C150.168 22.8613 149.688 23 149.069 23H138.637ZM160.73 5.336C160.73 3.84267 161.156 2.68 162.01 1.848C162.884 1.016 164.09 0.599998 165.626 0.599998H171.322C174.5 0.599998 176.9 1.21867 178.522 2.456C180.143 3.69333 180.954 5.53867 180.954 7.992C180.954 10.2747 180.271 12.056 178.906 13.336C177.562 14.616 175.748 15.256 173.466 15.256L178.33 20.088C178.714 20.472 178.906 20.9093 178.906 21.4C178.906 21.912 178.682 22.36 178.234 22.744C177.764 23.1067 177.306 23.288 176.858 23.288C176.239 23.288 175.674 23.0107 175.162 22.456L168.25 15.384H164.986V21.4C164.986 21.9973 164.783 22.4667 164.378 22.808C163.972 23.1493 163.46 23.32 162.842 23.32C162.202 23.32 161.69 23.1493 161.306 22.808C160.922 22.4667 160.73 21.9973 160.73 21.4V5.336ZM171.194 12.088C172.602 12.088 173.7 11.9493 174.49 11.672C175.279 11.3947 175.834 10.968 176.154 10.392C176.495 9.79467 176.666 8.99467 176.666 7.992C176.666 6.54133 176.218 5.496 175.322 4.856C174.447 4.216 173.071 3.896 171.194 3.896H166.362C165.935 3.896 165.594 4.03467 165.338 4.312C165.103 4.58933 164.986 4.97333 164.986 5.464V12.088H171.194Z" fill="url(#paint0_linear)"/>
<defs>
<linearGradient id="paint0_linear" x1="49.7179" y1="-1.47525" x2="51.0015" y2="15.9998" gradientUnits="userSpaceOnUse">
<stop stop-color="#6D7CC9"/>
<stop offset="1" stop-color="#6CCFEE"/>
</linearGradient>
</defs>
</svg>
