<svg width="26" height="25" viewBox="0 0 26 25" fill="none" xmlns="http://www.w3.org/2000/svg">
<path d="M23.7665 2.46821C23.6851 1.77422 23.3465 1.13596 22.8176 0.679288C22.2888 0.222615 21.608 -0.0193158 20.9095 0.0012064H4.50955C3.8111 -0.0193158 3.13031 0.222615 2.60145 0.679288C2.07258 1.13596 1.73403 1.77422 1.65255 2.46821L0.0165481 19.7182C-0.0330308 20.2437 0.0290986 20.7738 0.198858 21.2736C0.368617 21.7734 0.642166 22.2316 1.00155 22.6182C1.40948 23.0583 1.90461 23.4085 2.45539 23.6466C3.00617 23.8847 3.60052 24.0055 4.20055 24.0012H21.2185C21.8187 24.0056 22.4133 23.8849 22.9642 23.6468C23.5152 23.4087 24.0105 23.0584 24.4185 22.6182C24.7779 22.2316 25.0515 21.7734 25.2212 21.2736C25.391 20.7738 25.4531 20.2437 25.4035 19.7182L23.7665 2.46821ZM22.9375 21.2682C22.7177 21.5031 22.4512 21.6896 22.1553 21.8158C21.8593 21.942 21.5403 22.0051 21.2185 22.0012H4.20055C3.87912 22.0056 3.56028 21.9431 3.26433 21.8176C2.96838 21.6921 2.70179 21.5064 2.48155 21.2722C2.31102 21.0909 2.18079 20.8755 2.09944 20.6402C2.01809 20.405 1.98746 20.1552 2.00955 19.9072L3.64455 2.65721C3.68358 2.46101 3.79315 2.28591 3.95254 2.16503C4.11193 2.04415 4.31009 1.98587 4.50955 2.00121H20.9095C21.1085 1.98663 21.3059 2.04527 21.4647 2.16608C21.6234 2.28689 21.7326 2.46156 21.7715 2.65721L23.4095 19.9072C23.4316 20.1552 23.401 20.405 23.3197 20.6402C23.2383 20.8755 23.1081 21.0909 22.9375 21.2722V21.2682Z" fill="#FEDB29"/>
<path d="M17.2109 3.50122C16.9457 3.50122 16.6914 3.60658 16.5038 3.79411C16.3163 3.98165 16.2109 4.236 16.2109 4.50122C16.2109 5.42948 15.8422 6.31972 15.1858 6.97609C14.5294 7.63247 13.6392 8.00122 12.7109 8.00122C11.7827 8.00122 10.8924 7.63247 10.2361 6.97609C9.57969 6.31972 9.21094 5.42948 9.21094 4.50122C9.21094 4.236 9.10558 3.98165 8.91804 3.79411C8.73051 3.60658 8.47615 3.50122 8.21094 3.50122C7.94572 3.50122 7.69137 3.60658 7.50383 3.79411C7.31629 3.98165 7.21094 4.236 7.21094 4.50122C7.21094 5.95991 7.7904 7.35886 8.82185 8.39031C9.8533 9.42176 11.2522 10.0012 12.7109 10.0012C14.1696 10.0012 15.5686 9.42176 16.6 8.39031C17.6315 7.35886 18.2109 5.95991 18.2109 4.50122C18.2109 4.236 18.1056 3.98165 17.918 3.79411C17.7305 3.60658 17.4762 3.50122 17.2109 3.50122Z" fill="#FEDB29"/>
</svg>
