<svg width="30" height="30" viewBox="0 0 30 30" fill="none" xmlns="http://www.w3.org/2000/svg">
<path d="M8.125 22.5H19.375C20.0625 22.5 20.625 21.9375 20.625 21.25C20.625 20.5625 20.0625 20 19.375 20H8.125C7.4375 20 6.875 20.5625 6.875 21.25C6.875 21.9375 7.4375 22.5 8.125 22.5ZM9.375 16.25H25C25.6875 16.25 26.25 15.6875 26.25 15C26.25 14.3125 25.6875 13.75 25 13.75H9.375C8.6875 13.75 8.125 14.3125 8.125 15C8.125 15.6875 8.6875 16.25 9.375 16.25ZM3.75 8.75C3.75 9.4375 4.3125 10 5 10H18.125C18.8125 10 19.375 9.4375 19.375 8.75C19.375 8.0625 18.8125 7.5 18.125 7.5L5 7.5C4.3125 7.5 3.75 8.0625 3.75 8.75Z" fill="white"/>
</svg>
