<svg width="27" height="32" viewBox="0 0 27 32" fill="none" xmlns="http://www.w3.org/2000/svg">
<path d="M21.6647 14.394C21.6647 14.5502 21.6333 14.7049 21.5724 14.8492C21.5114 14.9935 21.4221 15.1247 21.3095 15.2351C21.1969 15.3456 21.0632 15.4332 20.9161 15.493C20.769 15.5528 20.6113 15.5836 20.4521 15.5836H6.5479C6.22631 15.5836 5.91789 15.4582 5.69048 15.2351C5.46308 15.0121 5.33533 14.7095 5.33533 14.394C5.33533 14.0785 5.46308 13.7759 5.69048 13.5528C5.91789 13.3297 6.22631 13.2044 6.5479 13.2044H20.4521C20.7737 13.2044 21.0821 13.3297 21.3095 13.5528C21.5369 13.7759 21.6647 14.0785 21.6647 14.394ZM19.5629 17.9628H7.43713C7.11553 17.9628 6.80711 18.0881 6.57971 18.3112C6.3523 18.5343 6.22455 18.8369 6.22455 19.1524C6.22455 19.4679 6.3523 19.7704 6.57971 19.9935C6.80711 20.2166 7.11553 20.342 7.43713 20.342H19.5629C19.8845 20.342 20.1929 20.2166 20.4203 19.9935C20.6477 19.7704 20.7754 19.4679 20.7754 19.1524C20.7754 18.8369 20.6477 18.5343 20.4203 18.3112C20.1929 18.0881 19.8845 17.9628 19.5629 17.9628ZM16.976 22.7211H10.024C9.70236 22.7211 9.39393 22.8465 9.16653 23.0696C8.93913 23.2927 8.81138 23.5952 8.81138 23.9107C8.81138 24.2262 8.93913 24.5288 9.16653 24.7519C9.39393 24.975 9.70236 25.1003 10.024 25.1003H16.976C17.2976 25.1003 17.6061 24.975 17.8335 24.7519C18.0609 24.5288 18.1886 24.2262 18.1886 23.9107C18.1886 23.5952 18.0609 23.2927 17.8335 23.0696C17.6061 22.8465 17.2976 22.7211 16.976 22.7211ZM27 10.3622V24.691C26.9978 26.6288 26.2121 28.4866 24.8154 29.8568C23.4187 31.227 21.525 31.9978 19.5498 32H7.45023C5.47499 31.9978 3.58129 31.227 2.18459 29.8568C0.787883 28.4866 0.00223373 26.6288 0 24.691V10.3622C0.00223373 8.4244 0.787883 6.56658 2.18459 5.19635C3.58129 3.82611 5.47499 3.05535 7.45023 3.05316H9.96222C10.0521 2.21517 10.4551 1.43951 11.0934 0.875733C11.7318 0.311961 12.5603 0 13.4192 0C14.2781 0 15.1065 0.311961 15.7449 0.875733C16.3832 1.43951 16.7862 2.21517 16.8761 3.05316H19.5498C21.525 3.05535 23.4187 3.82611 24.8154 5.19635C26.2121 6.56658 26.9978 8.4244 27 10.3622ZM8.32635 8.44599H18.4311V5.43235H8.32635V8.44599ZM12.4345 3.05316H14.4038C14.3297 2.85544 14.1956 2.68479 14.0195 2.56424C13.8434 2.44369 13.6339 2.37905 13.4192 2.37905C13.2044 2.37905 12.9949 2.44369 12.8188 2.56424C12.6427 2.68479 12.5086 2.85544 12.4345 3.05316ZM24.5749 10.3622C24.5733 9.27843 24.2085 8.22525 23.5364 7.36507C22.8644 6.50488 21.9226 5.88548 20.8563 5.60238V9.63559C20.8563 9.95109 20.7285 10.2537 20.5011 10.4768C20.2737 10.6999 19.9653 10.8252 19.6437 10.8252H7.11377C6.79218 10.8252 6.48375 10.6999 6.25635 10.4768C6.02895 10.2537 5.9012 9.95109 5.9012 9.63559V5.67309C4.89182 5.99526 4.0121 6.62225 3.38779 7.46443C2.76348 8.30661 2.42655 9.32086 2.42515 10.3622V24.691C2.42665 25.998 2.95656 27.251 3.89862 28.1753C4.84068 29.0995 6.11796 29.6193 7.45023 29.6208H19.5498C20.882 29.6193 22.1593 29.0995 23.1014 28.1753C24.0434 27.251 24.5733 25.998 24.5749 24.691V10.3622Z" fill="#FEDB29"/>
</svg>
