<svg width="443" height="215" viewBox="0 0 443 215" fill="none" xmlns="http://www.w3.org/2000/svg">
<path d="M29.0494 221.822C29.0494 221.822 -9.90463 175.138 13.4685 130.715C36.8416 86.2923 81.2462 96.8314 143.56 51.6539C219.23 -3.19229 272.361 -6.2067 339.901 17.77C378.075 31.3107 384.306 87.0434 445.072 121.679C499.854 152.903 455.203 206.011 426.392 214.294C397.582 222.576 378.092 222.576 378.092 222.576L29.0494 221.822Z" fill="#F0F3F8"/>
<path d="M244.959 113.456C235.236 132.529 223.047 184.654 219.721 187.51C216.396 190.367 197.189 201.435 193.867 206.79C190.544 212.145 192.019 210.359 193.496 210.716C194.974 211.074 278.456 211.429 278.456 211.429C278.456 211.429 268.863 156.093 267.742 155.722C266.621 155.351 244.959 113.456 244.959 113.456Z" fill="#FEDB29"/>
<path d="M231.136 211.174C246.48 211.277 262.648 211.358 271.555 211.403L259.359 140.914C252.855 128.728 244.959 113.456 244.959 113.456C243.735 115.861 242.468 118.791 241.187 122.08C239.922 175.021 247.811 189.857 241.887 199.291C237.261 206.661 233.041 209.946 231.136 211.174Z" fill="#C8B244"/>
<path d="M404.468 214.962H3.60292C2.78282 214.962 1.99632 214.647 1.41642 214.087C0.836524 213.527 0.510742 212.766 0.510742 211.974C0.510742 211.181 0.836524 210.421 1.41642 209.86C1.99632 209.3 2.78282 208.985 3.60292 208.985H404.468C405.289 208.985 406.075 209.3 406.655 209.86C407.235 210.421 407.561 211.181 407.561 211.974C407.561 212.766 407.235 213.527 406.655 214.087C406.075 214.647 405.289 214.962 404.468 214.962Z" fill="#2E5B9A"/>
<path d="M296.156 90.4332C310.022 102.804 340.884 114.532 340.884 114.532C340.884 114.532 345.574 156.409 342.375 180.118C339.176 203.827 340.951 208.637 340.951 208.637H277.312C277.312 208.637 268.773 197.182 253.135 161.567C243.178 138.883 244.96 113.456 244.96 113.456L283.714 96.6168L296.156 90.4332Z" fill="#FEDB29"/>
<path d="M277.312 208.637H340.95C340.95 208.637 339.175 203.827 342.374 180.118C345.01 160.593 342.294 128.757 341.254 118.121L335.466 115.722C320.936 119.771 312.563 140.714 310.115 161.18C308.467 174.876 284.987 188.358 269.63 195.783C274.663 205.084 277.312 208.637 277.312 208.637Z" fill="#C8B244"/>
<path d="M261.711 47.4512C254.039 63.9644 263.246 79.2622 262.969 78.6174C262.692 77.9726 274.58 50.7365 274.58 50.7365L261.711 47.4512Z" fill="#2E5B9A"/>
<path d="M290.782 59.6636L300.509 94.0344C300.644 94.5118 300.658 95.0136 300.552 95.4976C300.445 95.9817 300.22 96.434 299.895 96.8167C297.613 99.5345 294.364 105.122 287.81 106.914C286.463 107.233 285.08 107.384 283.693 107.362C283.046 107.366 282.418 107.15 281.917 106.753C281.417 106.357 281.075 105.804 280.952 105.189L274.434 72.5918L290.782 59.6636Z" fill="#F09959"/>
<path d="M288.924 62.5491L285.368 63.9579L274.434 72.5917L280.301 101.491C290.255 95.4949 291.706 91.4488 288.924 62.5491Z" fill="#E38540"/>
<path d="M290.721 75.0564C288.533 86.4465 279.646 94.1503 270.867 92.2698C262.088 90.3893 257.902 83.0103 258.935 68.236C259.741 56.6413 265.709 44.0365 274.484 45.9235C283.26 47.8105 292.906 63.6663 290.721 75.0564Z" fill="#F09959"/>
<path d="M340.883 114.532C353.759 117.344 356.151 142.62 360.34 169.279C360.821 172.348 363.292 198.317 363.292 198.317C363.287 199.811 362.846 201.274 362.02 202.537C361.194 203.8 360.016 204.812 358.622 205.458C354.413 207.492 352.711 209.027 328.331 209.266C304.915 209.495 274.727 208.553 274.727 208.553C274.727 208.553 274.46 200.132 276.861 196.015C280.474 189.828 317.493 180.94 320.942 180.466C321.436 173.802 317.543 149.687 322.914 133.338C326.606 122.089 330.586 116.199 335.553 114.661C337.284 114.151 339.127 114.107 340.883 114.532Z" fill="#FEDB29"/>
<path d="M287.96 209.066C299.505 209.233 315.346 209.388 328.322 209.266C352.702 209.027 354.403 207.492 358.613 205.458C363.537 203.076 363.783 199.029 363.783 199.029C363.783 199.029 361.295 171.397 360.828 168.328C358.119 150.473 355.194 130.046 348.379 120.187C354.784 138.329 355.814 153.633 355.931 160.165C355.988 163.476 355.671 168.008 354.67 171.178C353.563 174.685 350.731 176.887 346.298 175.691C337.435 173.312 326.35 178.309 326.35 178.309C326.35 178.309 334.723 175.453 342.605 178.074C350.487 180.695 366.739 198.062 349.006 204.491C343.582 206.47 311.086 208.076 287.96 209.066Z" fill="#C8B244"/>
<path d="M278.824 196.808C278.824 196.808 282.109 191.414 288.831 191.414C295.552 191.414 295.069 202.054 294.085 205.535C293.101 209.017 289.158 209.185 289.158 209.185L274.711 208.54L278.824 196.808Z" fill="#96CFE0"/>
<path d="M264.176 206.087H173.099C171.719 206.087 170.6 207.168 170.6 208.502V209.195C170.6 210.528 171.719 211.609 173.099 211.609H264.176C265.556 211.609 266.674 210.528 266.674 209.195V208.502C266.674 207.168 265.556 206.087 264.176 206.087Z" fill="#75A1DE"/>
<path d="M277.019 197.443C262.899 192.523 259.196 194.377 256.004 193.478C248.122 191.256 246.154 193.155 241.064 206.648C240.063 209.333 243.035 209.504 245.99 209.504C248.946 209.504 252.555 203.949 253.706 203.314C254.857 202.679 257.976 202.347 257.976 202.347C257.976 202.347 256.975 202.347 255.51 205.203C254.046 208.06 252.228 209.169 254.51 209.169C256.791 209.169 257.135 205.519 261.405 206.312C265.674 207.106 264.033 209.169 274.704 209.011C285.375 208.853 293.431 209.011 293.257 202.824C293.09 196.953 293.764 194.016 288.003 192.985C283.587 192.208 277.019 197.443 277.019 197.443Z" fill="#F09959"/>
<path d="M277.203 197.443C286.642 196.412 283.874 207.779 282.873 208.727C281.872 209.675 288.127 209.05 288.127 209.05C288.127 209.05 291.059 204.488 288.597 199.252C286.135 194.016 281.209 193.771 281.209 193.771L277.039 196.022L277.203 197.443Z" fill="#A86B48"/>
<path d="M287.059 196.454C286.939 197.862 284.461 198.813 281.529 198.575C278.597 198.336 276.315 197.005 276.438 195.596C276.562 194.187 279.037 193.239 281.969 193.475C284.901 193.71 287.183 195.054 287.059 196.454Z" fill="#2E5B9A"/>
<path d="M286.308 195.754C286.202 197.011 283.974 197.862 281.368 197.65C278.763 197.437 276.698 196.247 276.818 194.987C276.939 193.726 279.153 192.881 281.762 193.094C284.37 193.307 286.419 194.497 286.308 195.754Z" fill="#3E6BAB"/>
<path d="M284.67 195.17C284.594 196.076 283.002 196.689 281.114 196.534C279.226 196.379 277.762 195.525 277.839 194.619C277.916 193.713 279.507 193.104 281.398 193.255C283.289 193.407 284.75 194.264 284.67 195.17Z" fill="#F0CEB4"/>
<path d="M169.766 194.171H78.035C75.6818 194.16 73.4074 193.35 71.6094 191.882C69.8114 190.415 68.6039 188.384 68.1981 186.143L56.233 122.309C55.1022 116.289 59.8222 110.738 66.0666 110.738H157.801C160.155 110.75 162.429 111.561 164.227 113.028C166.025 114.496 167.232 116.528 167.638 118.769L179.603 182.603C180.734 188.623 176.014 194.171 169.766 194.171Z" fill="#75A1DE"/>
<path d="M174.056 182.842L161.841 120.323C160.954 115.767 156.731 112.459 151.804 112.459H58.5617C57.5502 113.59 56.815 114.926 56.4108 116.369C56.0066 117.812 55.9437 119.324 56.2267 120.793L68.6155 185.976C69.0513 188.277 70.3089 190.359 72.1693 191.856C74.0297 193.354 76.3748 194.173 78.796 194.171H164.023C170.39 194.171 175.207 188.739 174.056 182.842Z" fill="#A8CEFF"/>
<path d="M151.93 202.721H134.515C131.406 202.721 128.888 200.048 128.888 196.75V165.971C128.888 160.722 124.885 156.467 119.938 156.467H110.838C105.895 156.467 101.885 160.722 101.885 165.971V200.438C101.885 206.335 106.405 211.1 111.956 211.077L159.492 210.755C159.492 206.316 156.117 202.721 151.93 202.721Z" fill="#75A1DE"/>
<path d="M102.579 166.661V200.603C102.579 203.246 103.615 205.79 105.476 207.725C107.338 209.661 109.889 210.843 112.616 211.036L159.009 210.755C159.009 210.02 155.34 208.682 150.83 208.682H131.986C131.187 208.682 130.395 208.53 129.656 208.234C128.917 207.937 128.246 207.503 127.681 206.956C127.116 206.409 126.668 205.76 126.362 205.045C126.057 204.331 125.901 203.565 125.902 202.792V166.661C125.902 164.181 124.883 161.803 123.069 160.05C121.255 158.296 118.794 157.311 116.229 157.311H112.263C110.991 157.31 109.732 157.551 108.558 158.02C107.383 158.49 106.315 159.178 105.416 160.046C104.517 160.915 103.803 161.946 103.316 163.081C102.83 164.216 102.579 165.432 102.579 166.661Z" fill="#A8CEFF"/>
<path d="M199.684 198.81C206.689 195.045 215.262 196.302 218.364 200.064C221.466 203.827 222.013 206.338 215.001 206.338C207.99 206.338 193.987 206.841 191.652 206.59C189.317 206.338 199.684 198.81 199.684 198.81Z" fill="#F09959"/>
<path d="M210.068 196.55C217.6 194.796 222.743 199.03 229.025 203.076C234.478 206.59 235.572 210.007 229.545 207.093C220.715 202.824 215.535 202.324 215.535 202.324L210.068 196.55Z" fill="#F09959"/>
<path d="M203.21 198.788C199.408 198.788 196.089 197.614 193.403 197.821C190.718 198.027 182.219 206.47 183.563 207.118C183.664 207.167 183.767 207.21 183.873 207.247C184.86 207.588 185.938 207.591 186.927 207.256C187.916 206.921 188.756 206.268 189.307 205.406C190.511 203.54 192.469 201.37 194.748 202.147C197.261 202.947 199.894 203.342 202.54 203.317L203.21 198.788Z" fill="#F09959"/>
<path d="M200.982 207.844C197.086 206.338 203.317 193.791 205.395 193.791C207.473 193.791 215.262 199.813 215.262 199.813C215.262 199.813 213.431 200.812 207.213 198.81C205.655 198.307 204.358 206.841 202.543 207.837C200.728 208.834 200.982 207.844 200.982 207.844Z" fill="#F7A96F"/>
<path d="M259.113 74.6906C258.75 88.5085 263.62 90.8459 267.029 92.7222C270.438 94.5986 285.111 91.4971 287.266 88.0797C292.78 79.3363 288.14 71.1829 289.371 71.3151C290.602 71.4472 291.733 74.8421 294.948 79.2589C295.249 79.6684 297.337 82.3991 297.443 81.4899C298.938 69.1163 305.603 65.2766 304.015 52.7611C302.847 43.5341 296.786 44.2659 296.786 44.2659C296.786 44.2659 292.877 36.5477 280.708 37.4247C272.556 38.0114 265.287 41.0806 256.885 43.173C248.482 45.2654 266.829 63.6742 277.73 56.9458C288.631 50.2174 283.247 65.0348 284.968 66.1857C286.689 67.3367 285.795 66.3372 286.582 73.9233C287.37 81.5093 277.409 86.4548 274.554 87.1029C265.424 89.1791 263.9 87.7219 261.898 84.4012C260.164 81.5093 259.113 74.6906 259.113 74.6906Z" fill="#2E5B9A"/>
<path d="M296.899 70.4124C295.852 73.8942 293.293 76.1446 291.182 75.4353C289.071 74.726 289.01 71.8889 289.257 67.8493C289.484 64.1998 292.867 62.1171 294.975 62.8264C297.083 63.5356 297.947 66.9305 296.899 70.4124Z" fill="#F09959"/>
<path d="M97.4119 25.6797H19.4704C18.623 25.6797 17.936 26.3437 17.936 27.1628V59.5798C17.936 60.3989 18.623 61.0628 19.4704 61.0628H97.4119C98.2594 61.0628 98.9464 60.3989 98.9464 59.5798V27.1628C98.9464 26.3437 98.2594 25.6797 97.4119 25.6797Z" fill="#B7E1FF"/>
<path d="M95.4911 34.9745H21.3922C20.7069 34.9745 20.1514 35.5114 20.1514 36.1738V58.2032C20.1514 58.8656 20.7069 59.4025 21.3922 59.4025H95.4911C96.1764 59.4025 96.7319 58.8656 96.7319 58.2032V36.1738C96.7319 35.5114 96.1764 34.9745 95.4911 34.9745Z" fill="white"/>
<path d="M23.7604 28.2815H21.9625C21.583 28.2815 21.2754 28.5788 21.2754 28.9456V30.3771C21.2754 30.7439 21.583 31.0412 21.9625 31.0412H23.7604C24.1399 31.0412 24.4476 30.7439 24.4476 30.3771V28.9456C24.4476 28.5788 24.1399 28.2815 23.7604 28.2815Z" fill="white"/>
<path d="M29.531 28.2815H27.7331C27.3535 28.2815 27.0459 28.5788 27.0459 28.9456V30.3771C27.0459 30.7439 27.3535 31.0412 27.7331 31.0412H29.531C29.9105 31.0412 30.2181 30.7439 30.2181 30.3771V28.9456C30.2181 28.5788 29.9105 28.2815 29.531 28.2815Z" fill="white"/>
<path d="M35.302 28.2815H33.504C33.1245 28.2815 32.8169 28.5788 32.8169 28.9456V30.3771C32.8169 30.7439 33.1245 31.0412 33.504 31.0412H35.302C35.6815 31.0412 35.9891 30.7439 35.9891 30.3771V28.9456C35.9891 28.5788 35.6815 28.2815 35.302 28.2815Z" fill="white"/>
<path d="M93.6131 40.3295H53.1079C52.9433 40.3378 52.7787 40.3137 52.6241 40.2586C52.4694 40.2035 52.328 40.1185 52.2085 40.0088C52.0889 39.8992 51.9937 39.7672 51.9287 39.6208C51.8636 39.4745 51.8301 39.3169 51.8301 39.1576C51.8301 38.9983 51.8636 38.8407 51.9287 38.6943C51.9937 38.548 52.0889 38.4159 52.2085 38.3063C52.328 38.1967 52.4694 38.1117 52.6241 38.0566C52.7787 38.0014 52.9433 37.9773 53.1079 37.9857H93.6131C93.9236 38.0014 94.2161 38.1317 94.4302 38.3498C94.6443 38.5678 94.7636 38.857 94.7636 39.1576C94.7636 39.4582 94.6443 39.7473 94.4302 39.9653C94.2161 40.1834 93.9236 40.3137 93.6131 40.3295Z" fill="#B7E1FF"/>
<path d="M63.1481 58.3966H22.6396C22.3184 58.3966 22.0104 58.2733 21.7834 58.0538C21.5563 57.8344 21.4287 57.5367 21.4287 57.2263C21.4287 56.9159 21.5563 56.6183 21.7834 56.3988C22.0104 56.1793 22.3184 56.056 22.6396 56.056H63.1481C63.4692 56.056 63.7772 56.1793 64.0043 56.3988C64.2314 56.6183 64.3589 56.9159 64.3589 57.2263C64.3589 57.5367 64.2314 57.8344 64.0043 58.0538C63.7772 58.2733 63.4692 58.3966 63.1481 58.3966Z" fill="#B7E1FF"/>
<path d="M70.61 56.056H66.417C66.1886 56.056 66.0034 56.235 66.0034 56.4558V58.0001C66.0034 58.2209 66.1886 58.3999 66.417 58.3999H70.61C70.8385 58.3999 71.0236 58.2209 71.0236 58.0001V56.4558C71.0236 56.235 70.8385 56.056 70.61 56.056Z" fill="#B7E1FF"/>
<path d="M76.9279 56.056H72.7349C72.5065 56.056 72.3213 56.235 72.3213 56.4558V58.0001C72.3213 58.2209 72.5065 58.3999 72.7349 58.3999H76.9279C77.1563 58.3999 77.3415 58.2209 77.3415 58.0001V56.4558C77.3415 56.235 77.1563 56.056 76.9279 56.056Z" fill="#B7E1FF"/>
<path d="M94.0028 45.4298H26.9256C26.8132 45.4367 26.7006 45.4213 26.5946 45.3845C26.4886 45.3477 26.3916 45.2903 26.3095 45.2158C26.2273 45.1413 26.1619 45.0514 26.1171 44.9515C26.0724 44.8516 26.0493 44.7439 26.0493 44.6351C26.0493 44.5263 26.0724 44.4186 26.1171 44.3187C26.1619 44.2188 26.2273 44.1289 26.3095 44.0544C26.3916 43.9799 26.4886 43.9225 26.5946 43.8857C26.7006 43.8489 26.8132 43.8335 26.9256 43.8404H94.0028C94.2118 43.8533 94.4079 43.9426 94.5512 44.0902C94.6945 44.2378 94.7743 44.4327 94.7743 44.6351C94.7743 44.8375 94.6945 45.0324 94.5512 45.18C94.4079 45.3276 94.2118 45.4169 94.0028 45.4298Z" fill="#B7E1FF"/>
<path d="M94.0028 48.8601H26.9256C26.8132 48.867 26.7006 48.8516 26.5946 48.8148C26.4886 48.778 26.3916 48.7206 26.3095 48.6461C26.2273 48.5716 26.1619 48.4817 26.1171 48.3818C26.0724 48.2819 26.0493 48.1742 26.0493 48.0654C26.0493 47.9565 26.0724 47.8488 26.1171 47.749C26.1619 47.6491 26.2273 47.5591 26.3095 47.4846C26.3916 47.4102 26.4886 47.3528 26.5946 47.316C26.7006 47.2792 26.8132 47.2637 26.9256 47.2707H94.0028C94.2118 47.2835 94.4079 47.3729 94.5512 47.5205C94.6945 47.6681 94.7743 47.8629 94.7743 48.0654C94.7743 48.2678 94.6945 48.4626 94.5512 48.6103C94.4079 48.7579 94.2118 48.8472 94.0028 48.8601Z" fill="#B7E1FF"/>
<path d="M37.7765 50.5237H115.715C116.122 50.5237 116.512 50.6799 116.8 50.958C117.087 51.2362 117.249 51.6134 117.249 52.0067V84.4205C117.249 84.8147 117.087 85.1927 116.799 85.4715C116.51 85.7502 116.119 85.9068 115.711 85.9068H37.7765C37.5746 85.9068 37.3746 85.8683 37.1881 85.7936C37.0015 85.7189 36.832 85.6095 36.6892 85.4715C36.5464 85.3334 36.4331 85.1696 36.3558 84.9893C36.2785 84.809 36.2388 84.6157 36.2388 84.4205V52.0067C36.2397 51.6131 36.4021 51.2359 36.6903 50.9579C36.9786 50.6798 37.3693 50.5237 37.7765 50.5237Z" fill="#9EC8FF"/>
<path d="M113.794 59.8184H39.695C39.0097 59.8184 38.4541 60.3553 38.4541 61.0177V83.0471C38.4541 83.7095 39.0097 84.2464 39.695 84.2464H113.794C114.479 84.2464 115.035 83.7095 115.035 83.0471V61.0177C115.035 60.3553 114.479 59.8184 113.794 59.8184Z" fill="white"/>
<path d="M42.0637 53.1254H40.2658C39.8863 53.1254 39.5786 53.4228 39.5786 53.7896V55.221C39.5786 55.5878 39.8863 55.8851 40.2658 55.8851H42.0637C42.4432 55.8851 42.7509 55.5878 42.7509 55.221V53.7896C42.7509 53.4228 42.4432 53.1254 42.0637 53.1254Z" fill="white"/>
<path d="M47.8337 53.1254H46.0358C45.6563 53.1254 45.3486 53.4228 45.3486 53.7896V55.221C45.3486 55.5878 45.6563 55.8851 46.0358 55.8851H47.8337C48.2132 55.8851 48.5209 55.5878 48.5209 55.221V53.7896C48.5209 53.4228 48.2132 53.1254 47.8337 53.1254Z" fill="white"/>
<path d="M53.6081 53.1254H51.8068C51.4273 53.1254 51.1196 53.4228 51.1196 53.7896V55.221C51.1196 55.5878 51.4273 55.8851 51.8068 55.8851H53.6081C53.9876 55.8851 54.2952 55.5878 54.2952 55.221V53.7896C54.2952 53.4228 53.9876 53.1254 53.6081 53.1254Z" fill="white"/>
<path d="M111.919 65.1734H71.4103C71.0998 65.1576 70.8073 65.0273 70.5932 64.8093C70.3791 64.5912 70.2598 64.3021 70.2598 64.0015C70.2598 63.7009 70.3791 63.4117 70.5932 63.1937C70.8073 62.9756 71.0998 62.8453 71.4103 62.8296H111.919C112.229 62.8453 112.522 62.9756 112.736 63.1937C112.95 63.4117 113.069 63.7009 113.069 64.0015C113.069 64.3021 112.95 64.5912 112.736 64.8093C112.522 65.0273 112.229 65.1576 111.919 65.1734Z" fill="#9EC8FF"/>
<path d="M81.4509 83.2405H40.9457C40.6246 83.2405 40.3166 83.1172 40.0895 82.8978C39.8624 82.6783 39.7349 82.3806 39.7349 82.0702C39.7349 81.7598 39.8624 81.4622 40.0895 81.2427C40.3166 81.0232 40.6246 80.8999 40.9457 80.8999H81.4509C81.772 80.8999 82.08 81.0232 82.3071 81.2427C82.5342 81.4622 82.6617 81.7598 82.6617 82.0702C82.6617 82.3806 82.5342 82.6783 82.3071 82.8978C82.08 83.1172 81.772 83.2405 81.4509 83.2405Z" fill="#9EC8FF"/>
<path d="M88.9162 80.8999H84.7232C84.4948 80.8999 84.3096 81.0789 84.3096 81.2997V82.844C84.3096 83.0648 84.4948 83.2438 84.7232 83.2438H88.9162C89.1446 83.2438 89.3298 83.0648 89.3298 82.844V81.2997C89.3298 81.0789 89.1446 80.8999 88.9162 80.8999Z" fill="#9EC8FF"/>
<path d="M95.234 80.8999H91.0411C90.8126 80.8999 90.6274 81.0789 90.6274 81.2997V82.844C90.6274 83.0648 90.8126 83.2438 91.0411 83.2438H95.234C95.4625 83.2438 95.6477 83.0648 95.6477 82.844V81.2997C95.6477 81.0789 95.4625 80.8999 95.234 80.8999Z" fill="#9EC8FF"/>
<path d="M112.309 70.2866H45.2288C45.0112 70.2866 44.8024 70.203 44.6485 70.0543C44.4947 69.9056 44.4082 69.7038 44.4082 69.4935C44.4082 69.2832 44.4947 69.0814 44.6485 68.9327C44.8024 68.784 45.0112 68.7004 45.2288 68.7004H112.309C112.527 68.7004 112.736 68.784 112.89 68.9327C113.043 69.0814 113.13 69.2832 113.13 69.4935C113.13 69.7038 113.043 69.9056 112.89 70.0543C112.736 70.203 112.527 70.2866 112.309 70.2866Z" fill="#9EC8FF"/>
<path d="M112.309 73.7041H45.2285C45.0195 73.6912 44.8234 73.6018 44.6801 73.4542C44.5368 73.3066 44.457 73.1118 44.457 72.9093C44.457 72.7069 44.5368 72.5121 44.6801 72.3645C44.8234 72.2168 45.0195 72.1275 45.2285 72.1146H112.309C112.518 72.1275 112.714 72.2168 112.858 72.3645C113.001 72.5121 113.081 72.7069 113.081 72.9093C113.081 73.1118 113.001 73.3066 112.858 73.4542C112.714 73.6018 112.518 73.6912 112.309 73.7041Z" fill="#9EC8FF"/>
<path d="M146.07 77.2472C146.071 79.258 145.454 81.2237 144.299 82.8959C143.143 84.5681 141.501 85.8714 139.579 86.6412C137.657 87.411 135.542 87.6126 133.502 87.2205C131.461 86.8283 129.587 85.8601 128.116 84.4383C126.645 83.0165 125.643 81.2049 125.237 79.2328C124.831 77.2606 125.04 75.2165 125.836 73.3589C126.633 71.5013 127.981 69.9138 129.711 68.797C131.442 67.6803 133.475 67.0846 135.556 67.0852C138.344 67.0861 141.018 68.157 142.989 70.0625C144.961 71.9681 146.069 74.5523 146.07 77.2472Z" fill="#219653"/>
<path d="M134.512 81.0031H134.482C134.373 80.9996 134.267 80.9746 134.169 80.9297C134.07 80.8847 133.983 80.8209 133.911 80.742L131.053 77.605C130.912 77.4507 130.841 77.2488 130.855 77.0439C130.869 76.8389 130.966 76.6476 131.126 76.5121C131.286 76.3766 131.495 76.3079 131.707 76.3212C131.919 76.3345 132.117 76.4287 132.257 76.583L134.555 79.1074L140.052 73.9039C140.127 73.8328 140.216 73.7767 140.314 73.7387C140.412 73.7008 140.516 73.6818 140.621 73.6829C140.726 73.6839 140.83 73.705 140.927 73.7448C141.024 73.7847 141.111 73.8426 141.185 73.9152C141.258 73.9878 141.316 74.0737 141.356 74.168C141.395 74.2623 141.415 74.3632 141.414 74.4648C141.412 74.5664 141.391 74.6669 141.349 74.7604C141.308 74.8539 141.248 74.9386 141.173 75.0097L135.072 80.7839C134.922 80.9246 134.721 81.0033 134.512 81.0031Z" fill="white"/>
<path d="M213.447 0.926086H146.584C144.863 0.926086 143.468 2.27424 143.468 3.93728V27.0274C143.468 28.6904 144.863 30.0385 146.584 30.0385H213.447C215.168 30.0385 216.563 28.6904 216.563 27.0274V3.93728C216.563 2.27424 215.168 0.926086 213.447 0.926086Z" fill="#9EC8FF"/>
<path d="M152.297 25.6443V41.7061L171.461 23.1973C171.461 23.1973 152.684 25.6443 152.297 25.6443Z" fill="#9EC8FF"/>
<path d="M210.138 3.81155H149.889C148.43 3.81155 147.248 4.95474 147.248 6.36494V24.5965C147.248 26.0067 148.43 27.1499 149.889 27.1499H210.138C211.598 27.1499 212.78 26.0067 212.78 24.5965V6.36494C212.78 4.95474 211.598 3.81155 210.138 3.81155Z" fill="white"/>
<path d="M182.936 9.58244H153.335C152.991 9.58244 152.661 9.45031 152.418 9.21511C152.174 8.97992 152.038 8.66093 152.038 8.32831C152.038 7.9957 152.174 7.67671 152.418 7.44151C152.661 7.20632 152.991 7.07419 153.335 7.07419H182.936C183.28 7.07419 183.61 7.20632 183.854 7.44151C184.097 7.67671 184.234 7.9957 184.234 8.32831C184.234 8.66093 184.097 8.97992 183.854 9.21511C183.61 9.45031 183.28 9.58244 182.936 9.58244Z" fill="#9EC8FF"/>
<path d="M207.663 12.9709H152.758C152.36 12.9709 152.038 13.2826 152.038 13.6672V13.6834C152.038 14.0679 152.36 14.3797 152.758 14.3797H207.663C208.061 14.3797 208.384 14.0679 208.384 13.6834V13.6672C208.384 13.2826 208.061 12.9709 207.663 12.9709Z" fill="#9EC8FF"/>
<path d="M207.663 15.7015H152.758C152.36 15.7015 152.038 16.0133 152.038 16.3979V16.414C152.038 16.7986 152.36 17.1104 152.758 17.1104H207.663C208.061 17.1104 208.384 16.7986 208.384 16.414V16.3979C208.384 16.0133 208.061 15.7015 207.663 15.7015Z" fill="#9EC8FF"/>
<path d="M196.312 23.3875H194.514C194.135 23.3875 193.827 23.6849 193.827 24.0517V25.4831C193.827 25.8499 194.135 26.1472 194.514 26.1472H196.312C196.692 26.1472 196.999 25.8499 196.999 25.4831V24.0517C196.999 23.6849 196.692 23.3875 196.312 23.3875Z" fill="#9EC8FF"/>
<path d="M202.083 23.3875H200.285C199.905 23.3875 199.598 23.6849 199.598 24.0517V25.4831C199.598 25.8499 199.905 26.1472 200.285 26.1472H202.083C202.462 26.1472 202.77 25.8499 202.77 25.4831V24.0517C202.77 23.6849 202.462 23.3875 202.083 23.3875Z" fill="#9EC8FF"/>
<path d="M207.854 23.3875H206.056C205.676 23.3875 205.369 23.6849 205.369 24.0517V25.4831C205.369 25.8499 205.676 26.1472 206.056 26.1472H207.854C208.233 26.1472 208.541 25.8499 208.541 25.4831V24.0517C208.541 23.6849 208.233 23.3875 207.854 23.3875Z" fill="#9EC8FF"/>
</svg>
