<svg width="521" height="283" viewBox="0 0 521 283" fill="none" xmlns="http://www.w3.org/2000/svg">
<g clip-path="url(#clip0)">
<path d="M262.173 283C403.447 283 517.971 275.426 517.971 266.084C517.971 256.741 403.447 249.168 262.173 249.168C120.9 249.168 6.375 256.741 6.375 266.084C6.375 275.426 120.9 283 262.173 283Z" fill="#EDEDED"/>
<path d="M252.369 80.8992C210.693 80.8992 180.77 107.609 180.77 169.93C180.77 240.562 210.693 259.258 252.369 259.258C294.046 259.258 325.751 238.781 325.751 169.93C325.751 96.3312 294.046 80.8992 252.369 80.8992ZM252.643 235.814C223.777 235.814 208.696 218.897 208.696 169.976C208.696 126.81 224.394 104.047 253.261 104.047C282.127 104.047 297.825 119 297.825 169.976C297.825 217.664 281.509 235.814 252.643 235.814Z" fill="#20253B"/>
<path d="M155.81 209.995H138.579V159.308C138.579 156.616 137.508 154.034 135.602 152.13C133.697 150.226 131.112 149.157 128.417 149.157H124.379C123.045 149.157 121.723 149.419 120.49 149.929C119.257 150.44 118.137 151.187 117.193 152.13C116.25 153.073 115.501 154.192 114.991 155.423C114.48 156.655 114.217 157.975 114.217 159.308V209.995H65.6129C64.613 209.995 63.6301 209.737 62.7595 209.245C61.8889 208.754 61.1602 208.046 60.6441 207.191C60.128 206.335 59.842 205.361 59.8139 204.363C59.7858 203.364 60.0164 202.376 60.4835 201.493L111.926 104.235C112.567 103.023 112.956 101.693 113.068 100.326C113.181 98.9593 113.015 97.5839 112.581 96.2829C112.147 94.9818 111.453 93.7822 110.542 92.7564C109.631 91.7305 108.521 90.8997 107.28 90.3141L104.243 88.8816C101.885 87.7694 99.1893 87.6051 96.7134 88.4229C94.2376 89.2407 92.1713 90.9779 90.9419 93.2752L28.2015 210.515C27.1332 212.512 26.5742 214.74 26.5742 217.004C26.5742 218.812 26.9306 220.602 27.6231 222.272C28.3156 223.942 29.3306 225.459 30.6102 226.737C31.8897 228.015 33.4088 229.029 35.0806 229.721C36.7524 230.413 38.5442 230.769 40.3538 230.769H114.217V262.82C114.217 264.418 114.532 266 115.144 267.476C115.756 268.953 116.654 270.294 117.785 271.424C118.916 272.554 120.259 273.45 121.736 274.061C123.214 274.673 124.798 274.988 126.398 274.988H126.398C127.997 274.988 129.581 274.673 131.059 274.061C132.537 273.45 133.88 272.554 135.011 271.424C136.142 270.294 137.039 268.953 137.652 267.476C138.264 266 138.579 264.418 138.579 262.82V230.769H155.81C158.568 230.769 161.213 229.674 163.163 227.726C165.113 225.779 166.208 223.137 166.208 220.382C166.209 217.627 165.113 214.985 163.163 213.037C161.213 211.089 158.568 209.995 155.81 209.995Z" fill="#FEDB29"/>
<path d="M474.892 209.995H457.661V159.308C457.661 156.616 456.59 154.034 454.684 152.13C452.779 150.226 450.194 149.157 447.499 149.157H443.461C442.127 149.157 440.805 149.419 439.572 149.929C438.339 150.44 437.219 151.187 436.275 152.13C435.332 153.073 434.583 154.192 434.073 155.423C433.562 156.655 433.299 157.975 433.299 159.308V209.995H384.695C383.695 209.995 382.712 209.737 381.842 209.245C380.971 208.754 380.242 208.046 379.726 207.191C379.21 206.335 378.924 205.361 378.896 204.363C378.868 203.364 379.098 202.376 379.566 201.493L431.008 104.235C431.649 103.023 432.038 101.693 432.15 100.326C432.263 98.9593 432.097 97.5839 431.663 96.2829C431.229 94.9818 430.535 93.7822 429.624 92.7564C428.713 91.7305 427.603 90.8997 426.362 90.3141L423.325 88.8816C420.967 87.7694 418.271 87.6051 415.795 88.4229C413.32 89.2407 411.253 90.9779 410.024 93.2752L347.284 210.515C346.215 212.512 345.656 214.74 345.656 217.004C345.656 220.655 347.108 224.156 349.692 226.737C352.276 229.319 355.781 230.769 359.436 230.769H433.299V262.82C433.299 266.047 434.582 269.142 436.867 271.424C439.151 273.706 442.249 274.988 445.48 274.988C448.71 274.988 451.809 273.706 454.093 271.424C456.377 269.142 457.661 266.047 457.661 262.82V230.769H474.892C477.65 230.769 480.295 229.674 482.245 227.726C484.195 225.779 485.291 223.137 485.291 220.382C485.291 217.627 484.195 214.985 482.245 213.037C480.295 211.089 477.65 209.995 474.892 209.995Z" fill="#FEDB29"/>
<path d="M160.564 204.059H143.333V153.372C143.333 152.039 143.07 150.719 142.559 149.487C142.048 148.256 141.3 147.136 140.356 146.194C139.413 145.251 138.292 144.504 137.059 143.993C135.827 143.483 134.505 143.221 133.171 143.221H129.133C126.438 143.221 123.853 144.29 121.947 146.194C120.042 148.098 118.971 150.679 118.971 153.372V204.059H70.3668C69.3669 204.059 68.384 203.801 67.5134 203.309C66.6428 202.818 65.9142 202.11 65.398 201.255C64.8819 200.399 64.596 199.425 64.5678 198.427C64.5397 197.428 64.7704 196.44 65.2375 195.557L116.68 98.2991C117.321 97.0866 117.71 95.7568 117.822 94.39C117.935 93.0232 117.769 91.6478 117.335 90.3468C116.901 89.0458 116.207 87.8462 115.296 86.8203C114.385 85.7945 113.275 84.9637 112.034 84.3781L108.997 82.9456C106.639 81.8333 103.943 81.6691 101.467 82.4869C98.9915 83.3047 96.9252 85.0419 95.6958 87.3391L32.9555 204.579C31.8871 206.576 31.3281 208.804 31.3281 211.068V211.068C31.3281 214.719 32.7799 218.22 35.3641 220.801C37.9482 223.382 41.4531 224.833 45.1077 224.833H118.971V256.884C118.971 258.482 119.286 260.064 119.898 261.54C120.51 263.016 121.408 264.358 122.539 265.488C123.67 266.618 125.013 267.514 126.49 268.125C127.968 268.737 129.552 269.051 131.152 269.051H131.152C134.382 269.051 137.481 267.77 139.765 265.488C142.049 263.206 143.333 260.111 143.333 256.884V224.833H160.564C161.93 224.833 163.282 224.564 164.543 224.042C165.805 223.52 166.951 222.755 167.917 221.79C168.882 220.826 169.648 219.681 170.171 218.421C170.693 217.16 170.962 215.81 170.962 214.446V214.446C170.962 213.082 170.693 211.731 170.171 210.471C169.648 209.211 168.882 208.066 167.917 207.101C166.951 206.136 165.805 205.371 164.543 204.849C163.282 204.327 161.93 204.059 160.564 204.059V204.059Z" stroke="#20253B" stroke-width="3.46096" stroke-miterlimit="10"/>
<path d="M483.806 204.059H466.575V153.372C466.575 150.679 465.504 148.098 463.598 146.194C461.693 144.29 459.108 143.221 456.413 143.221H452.375C451.041 143.221 449.719 143.483 448.486 143.993C447.253 144.504 446.133 145.251 445.189 146.194C444.246 147.136 443.497 148.256 442.987 149.487C442.476 150.719 442.213 152.039 442.213 153.372V204.059H393.609C392.609 204.059 391.626 203.801 390.756 203.309C389.885 202.818 389.156 202.11 388.64 201.255C388.124 200.399 387.838 199.425 387.81 198.427C387.782 197.428 388.013 196.44 388.48 195.557L439.922 98.2991C440.563 97.0866 440.952 95.7568 441.064 94.39C441.177 93.0232 441.011 91.6478 440.577 90.3468C440.143 89.0458 439.449 87.8462 438.538 86.8203C437.627 85.7945 436.517 84.9637 435.276 84.3781L432.239 82.9456C429.881 81.8333 427.185 81.6691 424.71 82.4869C422.234 83.3047 420.167 85.0419 418.938 87.3391L356.198 204.579C355.129 206.576 354.57 208.804 354.57 211.068C354.57 214.719 356.022 218.22 358.606 220.801C361.19 223.382 364.695 224.833 368.35 224.833H442.213V256.884C442.213 260.111 443.496 263.206 445.781 265.488C448.065 267.77 451.163 269.051 454.394 269.051V269.051C457.625 269.051 460.723 267.77 463.007 265.488C465.291 263.206 466.575 260.111 466.575 256.884V224.833H483.806C485.172 224.833 486.524 224.564 487.785 224.042C489.047 223.52 490.193 222.755 491.159 221.79C492.125 220.826 492.89 219.681 493.413 218.421C493.936 217.16 494.205 215.81 494.205 214.446V214.446C494.205 211.691 493.109 209.049 491.159 207.101C489.209 205.153 486.564 204.059 483.806 204.059V204.059Z" stroke="#20253B" stroke-width="3.46096" stroke-miterlimit="10"/>
<path d="M261.873 75.5571C220.197 75.5571 190.273 102.266 190.273 164.588C190.273 235.22 220.197 253.916 261.873 253.916C303.55 253.916 335.255 233.439 335.255 164.588C335.255 90.9892 303.55 75.5571 261.873 75.5571ZM262.147 230.471C233.281 230.471 218.2 213.555 218.2 164.634C218.2 121.468 233.898 98.7053 262.764 98.7053C291.631 98.7053 307.329 113.658 307.329 164.634C307.329 212.322 291.013 230.471 262.147 230.471V230.471Z" stroke="#20253B" stroke-width="3.46096" stroke-miterlimit="10"/>
<path d="M228.467 15.0899C231.922 15.0899 234.723 12.292 234.723 8.84061C234.723 5.38921 231.922 2.59131 228.467 2.59131C225.012 2.59131 222.211 5.38921 222.211 8.84061C222.211 12.292 225.012 15.0899 228.467 15.0899Z" fill="#20253B"/>
<path d="M243.727 45.4217C253.419 45.4217 261.275 35.2537 261.275 22.7109C261.275 10.168 253.419 0 243.727 0C234.036 0 226.18 10.168 226.18 22.7109C226.18 35.2537 234.036 45.4217 243.727 45.4217Z" fill="#20253B"/>
<path opacity="0.1" d="M243.727 38.5629C234.937 38.5629 227.656 30.1971 226.379 19.2815C226.246 20.4198 226.179 21.5649 226.18 22.711C226.18 35.2538 234.036 45.4218 243.727 45.4218C253.419 45.4218 261.275 35.2539 261.275 22.711C261.275 21.5649 261.209 20.4198 261.076 19.2815C259.798 30.1971 252.518 38.5629 243.727 38.5629Z" fill="#20253B"/>
<path d="M279.436 89.2205C279.059 90.7674 277.434 92.0062 275.634 92.8718C271.851 94.6916 267.184 95.2346 262.658 95.4169C261.503 95.487 260.345 95.4656 259.193 95.353C256.962 95.1374 254.869 94.1763 253.253 92.6251C253.137 92.55 253.043 92.4469 252.978 92.3254C252.914 92.204 252.881 92.0681 252.883 91.9305C252.885 91.7929 252.922 91.6581 252.99 91.5387C253.059 91.4193 253.156 91.3191 253.274 91.2476C255.684 88.6033 259.705 86.9819 263.756 85.8145C266.828 84.9293 272.185 82.6364 275.535 82.9459C278.78 83.2456 279.911 87.2673 279.436 89.2205Z" fill="#20253B"/>
<path opacity="0.1" d="M279.436 89.2205C279.059 90.7674 277.434 92.0062 275.634 92.8718C271.851 94.6916 267.184 95.2346 262.658 95.4169C261.503 95.487 260.345 95.4656 259.193 95.353C256.962 95.1374 254.869 94.1763 253.253 92.6251C253.137 92.55 253.043 92.4469 252.978 92.3254C252.914 92.204 252.881 92.0681 252.883 91.9305C252.885 91.7929 252.922 91.6581 252.99 91.5387C253.059 91.4193 253.156 91.3191 253.274 91.2476C255.684 88.6033 259.705 86.9819 263.756 85.8145C266.828 84.9293 272.185 82.6364 275.535 82.9459C278.78 83.2456 279.911 87.2673 279.436 89.2205Z" fill="#20253B"/>
<path d="M231.333 77.659C230.178 79.9199 229.969 82.5464 230.751 84.9612C231.547 87.3577 233.037 89.4645 235.033 91.0146C239.928 94.9342 246.665 95.4735 252.939 95.4191C258.437 95.3713 263.927 94.9954 269.38 94.2935C271.208 94.1317 273.003 93.7152 274.715 93.0561C276.763 92.1712 278.562 90.5481 279.291 88.4419C280.02 86.3357 279.502 83.7566 277.771 82.3509C276.25 81.1159 274.152 80.946 272.196 80.8285L261 80.1564C262.106 79.0383 263.579 78.4058 264.926 77.5929C266.713 76.5145 267.9 74.7037 269.199 73.0712C271.201 70.681 273.38 68.4438 275.716 66.3783C276.08 68.4662 277.403 70.1808 278.959 71.6214C280.515 73.0621 282.309 74.2219 283.926 75.5935C287.844 78.9157 290.665 83.4248 294.785 86.4927C297.619 85.7488 300.269 84.4274 302.567 82.6116L300.966 79.7142C300.833 79.416 300.625 79.157 300.363 78.962C299.909 78.6835 299.325 78.827 298.799 78.7482C297.392 78.5375 296.778 76.9152 296.226 75.6057C294.71 72.0107 291.809 69.2214 289.331 66.2066C287.502 63.9811 285.88 61.594 284.484 59.0749C283.651 57.5725 282.889 56.0081 281.76 54.7138C280.63 53.4194 279.047 52.4017 277.328 52.3981C275.809 52.3949 274.408 53.1651 273.103 53.94C269.125 56.3 265.298 58.9044 261.644 61.7382C259.731 63.2213 257.831 64.7882 255.587 65.6977C254.643 66.0805 253.647 66.3422 252.741 66.808C251.154 67.624 249.949 69.0045 248.653 70.2299C244.028 74.6007 237.695 77.4325 231.333 77.659Z" fill="#20253B"/>
<path d="M254.742 46.5495C254.69 47.8856 254.406 49.2023 253.902 50.4409C253.646 51.0586 253.266 51.6171 252.785 52.0815C252.303 52.5459 251.732 52.9063 251.105 53.1403C250.215 53.3785 249.282 53.4087 248.378 53.2287C247.59 53.1464 246.831 52.8881 246.156 52.4727C245.107 51.7517 244.583 50.4652 244.392 49.2062C244.202 47.9487 244.287 46.6638 244.165 45.3972C244.046 44.3742 243.851 43.3613 243.582 42.3671C243.5 42.0363 243.416 41.7071 243.333 41.3779C243.253 41.0486 243.173 40.7194 243.1 40.3902C243.033 40.0808 242.97 39.7698 242.917 39.4574C242.873 39.1937 242.833 38.9284 242.804 38.6617C242.777 37.8709 242.645 37.0872 242.412 36.3312C242.193 35.8409 241.918 35.377 241.594 34.9487C241.455 34.7506 241.321 34.5524 241.197 34.3466C240.84 33.8119 240.674 33.1722 240.726 32.5313C240.74 32.4322 240.764 32.3348 240.797 32.2402C240.81 32.2036 240.823 32.167 240.839 32.132C240.976 32.0947 241.102 32.0246 241.206 31.9276C241.31 31.8307 241.389 31.7098 241.435 31.5756C241.488 31.2872 241.463 30.9902 241.364 30.7144C241.25 30.3291 241.093 29.9575 240.898 29.6063C240.77 29.3746 240.335 28.957 240.332 28.6918C240.326 28.1583 241.37 27.7285 241.792 27.5181C243.083 26.8728 244.521 26.5814 245.961 26.6737C246.884 26.7362 247.885 27.0197 248.395 27.7925C248.853 28.489 248.792 29.3914 248.987 30.2007C249.007 30.3184 249.057 30.429 249.132 30.5224C249.231 30.613 249.357 30.6705 249.49 30.687C249.716 30.7319 249.948 30.7411 250.177 30.7144H250.179C250.239 30.7096 250.299 30.701 250.359 30.6885C250.715 30.6228 251.052 30.4774 251.344 30.2632C251.534 30.2129 251.724 30.1718 251.917 30.1398C251.924 30.139 251.932 30.1374 251.939 30.1352C252.704 32.545 252.803 35.1285 253.429 37.5825C253.738 38.8034 254.183 40.0091 254.245 41.265C254.25 41.3199 254.251 41.3763 254.253 41.4327C254.262 41.8366 254.23 42.2436 254.247 42.646C254.252 42.8272 254.273 43.0076 254.308 43.1855C254.376 43.4717 254.461 43.7537 254.562 44.03L254.567 44.0437C254.596 44.1321 254.623 44.222 254.646 44.312C254.663 44.3775 254.678 44.4415 254.691 44.5071L254.692 44.5116C254.805 45.1852 254.822 45.8713 254.742 46.5495Z" fill="#FCA19E"/>
<path d="M244.034 30.7892C249.006 30.7892 253.037 26.763 253.037 21.7964C253.037 16.8297 249.006 12.8035 244.034 12.8035C239.062 12.8035 235.031 16.8297 235.031 21.7964C235.031 26.763 239.062 30.7892 244.034 30.7892Z" fill="#FCA19E"/>
<path d="M301.187 70.7934C300.926 68.3399 300.053 65.991 298.648 63.9618C298.882 65.3488 299.116 66.7354 299.35 68.1214C299.059 68.2057 298.749 68.2031 298.459 68.114C298.169 68.0249 297.911 67.8532 297.717 67.6199C297.338 67.1471 297.048 66.6095 296.861 66.0332C295.838 63.4969 294.501 61.0989 292.88 58.8953C287.149 58.4182 281.483 56.045 276.443 53.2786C271.402 50.5136 266.684 47.1985 261.71 44.3162C260.847 43.7954 259.949 43.337 259.021 42.9443C257.465 42.3209 255.718 41.9978 254.242 41.2647C254.143 41.2159 254.044 41.1641 253.946 41.1107C253.613 40.9296 253.297 40.7178 253.003 40.4782C252.844 40.3493 252.693 40.2108 252.551 40.0636C251.815 39.208 251.231 38.2326 250.826 37.1797C250.034 35.43 249.751 33.3189 248.961 31.5691C249.324 31.23 249.732 30.9422 250.174 30.714H250.176C250.24 30.6805 250.304 30.6485 250.369 30.618C250.682 30.4709 251.007 30.352 251.341 30.2628C251.531 30.2125 251.721 30.1714 251.913 30.1394C251.921 30.1386 251.929 30.1371 251.936 30.1348C252.828 29.9897 253.741 30.0619 254.599 30.3451C255.853 30.7689 256.911 31.6148 257.965 32.415C259.678 33.6205 261.321 34.9222 262.886 36.314C263.756 37.1462 264.549 38.0607 265.485 38.8168C266.262 39.416 267.081 39.9585 267.937 40.4401C272.998 43.4519 278.06 46.4632 283.122 49.4741C284.836 50.4938 286.551 51.5135 288.226 52.5926C290.772 54.2327 293.225 56.0099 295.677 57.7857C297.122 58.8313 298.567 59.8774 300.011 60.924C300.485 61.2259 300.901 61.61 301.239 62.058C301.538 62.5668 301.724 63.134 301.784 63.721C302.146 66.0924 301.942 68.5159 301.187 70.7934Z" fill="#FCA19E"/>
<path d="M256.972 53.3121C256.365 56.0328 253.612 57.6775 252.174 60.0674C250.385 63.0336 251.115 66.4813 251.786 69.8788C250.559 70.9351 249.332 71.9914 248.104 73.0477C247.427 73.6284 246.749 74.2122 246.02 74.7259C244.956 75.4377 243.845 76.0753 242.693 76.6342C241.607 77.192 240.52 77.7504 239.434 78.3093C238.424 78.8766 237.354 79.3295 236.243 79.6598C234.103 80.2085 231.829 79.8244 229.711 79.1888C229.461 79.1233 229.221 79.0255 228.997 78.8976C228.865 78.8189 228.75 78.7148 228.658 78.5913C228.449 78.2173 228.374 77.7837 228.443 77.3612C228.658 73.8007 229.529 70.3148 230.398 66.8548C230.862 64.779 231.486 62.7422 232.264 60.7625C233.027 59.0661 233.904 57.4233 234.89 55.8453C235.977 53.8599 237.266 51.9911 238.735 50.2682C239.45 49.6051 240.052 48.8297 240.517 47.9727C241.059 46.7381 240.85 45.3221 240.96 43.9778C241.044 42.9677 241.312 41.9816 241.752 41.068V41.0665C241.987 40.5745 242.27 40.1068 242.597 39.6703C242.745 40.0148 242.893 40.3588 243.041 40.7022C243.139 40.9278 243.235 41.1529 243.331 41.3775C243.456 41.6671 243.58 41.9557 243.703 42.2432C244.059 43.0694 244.414 43.895 244.768 44.7201C245.152 45.7593 245.698 46.7312 246.386 47.5994C246.701 48.0439 247.125 48.3993 247.618 48.6309C248.112 48.8626 248.657 48.9624 249.2 48.9208C249.744 48.8792 250.267 48.6975 250.719 48.3935C251.171 48.0895 251.537 47.6735 251.78 47.1863C252.293 46.2767 252.664 45.2946 252.882 44.2735C253.183 43.0302 253.224 41.7382 253.004 40.4782C252.636 38.0516 251.603 35.5733 250.852 33.3189C250.547 32.5673 250.37 31.7697 250.329 30.9594C250.33 30.8684 250.339 30.7776 250.356 30.6881C250.361 30.6653 250.365 30.6409 250.37 30.618C250.683 30.4709 251.008 30.352 251.342 30.2629C251.531 30.2126 251.722 30.1714 251.914 30.1394C252.575 33.7122 253.237 37.2849 253.899 40.8577C253.915 40.9415 253.931 41.0254 253.947 41.1107C254.041 41.6229 254.137 42.135 254.244 42.6456C254.34 43.109 254.444 43.5708 254.56 44.0296L254.565 44.0433C254.604 44.1988 254.645 44.3528 254.688 44.5067L254.69 44.5113C254.807 44.932 254.938 45.3496 255.086 45.7611C255.984 48.241 257.548 50.7377 256.972 53.3121Z" fill="#FEDB29"/>
<path d="M293.509 91.5472C293.48 92.0713 293.582 92.5943 293.804 93.0698C294.368 94.0984 295.72 94.3322 296.89 94.4284C303.723 94.9896 310.599 94.7803 317.385 93.8047C317.754 93.7795 318.111 93.6688 318.429 93.4812C319.394 92.8055 318.799 91.1585 317.745 90.6313C316.691 90.104 315.441 90.2311 314.285 90.0028C313.136 89.714 312.043 89.2402 311.047 88.5999C308.702 87.2543 306.392 85.8515 304.116 84.3914C302.76 83.5221 301.161 82.5943 299.635 83.1098C295.501 84.5068 293.481 87.0925 293.509 91.5472Z" fill="#20253B"/>
<path d="M243.133 40.2005V40.202C243.122 40.2661 243.111 40.3286 243.098 40.391C243.081 40.4947 243.061 40.5999 243.041 40.7035C242.852 41.6714 242.62 42.6347 242.353 43.5919C241.621 46.2364 240.64 48.8382 239.666 51.402C237.054 58.2762 234.441 65.1509 231.828 72.0262C231.168 73.7577 230.511 75.4907 229.762 77.1872C229.511 77.7527 229.253 78.3227 228.997 78.8989C228.078 80.9611 227.197 83.0905 226.904 85.2854C226.63 86.7299 226.599 88.2096 226.81 89.6644C227.103 91.1033 227.978 92.5086 229.347 93.0406C230.015 93.3012 230.972 93.6503 230.788 94.3438C230.689 94.7248 230.256 94.9108 229.867 94.9748C229.353 95.0566 228.827 95.0244 228.327 94.8806C227.828 94.7368 227.365 94.4848 226.974 94.1426C226.243 93.4948 225.681 92.4873 224.709 92.3791C224.036 92.3059 223.417 92.7083 222.8 92.9903C220.286 94.138 217.356 93.3348 214.715 92.5193C214.922 91.4508 215.997 90.7466 217.063 90.5332C218.13 90.3183 219.233 90.4708 220.321 90.4418C220.669 90.4604 221.015 90.3715 221.311 90.1873C221.577 89.9438 221.763 89.6262 221.845 89.2758C222.546 87.2015 223.067 85.0709 223.403 82.9076C223.754 80.6472 223.901 78.3517 224.401 76.1187C224.79 74.3765 225.391 72.6892 225.907 70.9791C226.904 67.4579 227.723 63.8887 228.361 60.2851C228.683 58.788 228.914 57.2727 229.052 55.7475C229.139 54.4824 229.098 53.2112 229.22 51.9507C229.425 50.3108 229.767 48.6909 230.244 47.1083C230.711 45.3813 231.177 43.6554 231.643 41.9305C232.334 39.3774 233.076 36.7253 234.827 34.7408C235.436 34.0421 236.181 33.4757 237.018 33.0767C237.854 32.6776 238.764 32.4544 239.69 32.4209C240.038 32.4205 240.384 32.4578 240.723 32.5322C240.78 32.5459 240.836 32.5596 240.893 32.5748C241.263 32.6714 241.617 32.8181 241.947 33.0108C242.487 32.6678 242.762 32.7882 243.121 33.3171C243.435 33.8769 243.583 34.5145 243.548 35.1553C243.578 36.8467 243.439 38.5368 243.133 40.2005Z" fill="#FCA19E"/>
<path d="M243.727 42.2206L243.704 42.2434L243.581 42.3669L242.354 43.5909L241.753 41.0683L239.691 32.4199C240.039 32.4194 240.385 32.4567 240.724 32.5311C240.739 32.432 240.763 32.3346 240.796 32.24L240.894 32.5738L241.593 34.9485L242.916 39.4572L243.134 40.1995V40.201L243.727 42.2206Z" fill="#FEDB29"/>
<path d="M251.513 14.6301C251.512 15.4309 251.353 16.2237 251.045 16.963C250.737 17.7024 250.286 18.3739 249.718 18.9392C249.513 19.145 249.292 19.3354 249.059 19.509C248.006 20.3019 246.723 20.7311 245.405 20.7317H238.084C236.467 20.7292 234.916 20.0856 233.773 18.9422C232.63 17.7987 231.988 16.2489 231.988 14.6331C231.988 13.0172 232.63 11.4675 233.773 10.324C234.916 9.18055 236.467 8.53692 238.084 8.53442H245.405C247.022 8.53863 248.573 9.18202 249.717 10.3241C250.861 11.4662 251.507 13.0142 251.513 14.6301Z" fill="#20253B"/>
<path d="M258.377 15.0899C261.832 15.0899 264.633 12.292 264.633 8.84061C264.633 5.38921 261.832 2.59131 258.377 2.59131C254.922 2.59131 252.121 5.38921 252.121 8.84061C252.121 12.292 254.922 15.0899 258.377 15.0899Z" fill="#20253B"/>
<path opacity="0.1" d="M258.221 2.59131C258.144 2.59131 258.068 2.59435 257.992 2.59709C259.611 2.65586 261.143 3.33939 262.267 4.50385C263.391 5.66831 264.019 7.22293 264.019 8.84061C264.019 10.4583 263.391 12.0129 262.267 13.1774C261.143 14.3418 259.611 15.0253 257.992 15.0841C258.068 15.0869 258.144 15.0899 258.221 15.0899C259.88 15.0899 261.472 14.4315 262.645 13.2595C263.818 12.0876 264.477 10.498 264.477 8.84061C264.477 7.18319 263.818 5.59366 262.645 4.42169C261.472 3.24972 259.88 2.59131 258.221 2.59131Z" fill="#20253B"/>
<path opacity="0.1" d="M228.469 2.59131C228.546 2.59131 228.622 2.59435 228.698 2.59709C227.08 2.65586 225.547 3.33939 224.423 4.50385C223.299 5.66831 222.671 7.22293 222.671 8.84061C222.671 10.4583 223.299 12.0129 224.423 13.1774C225.547 14.3418 227.08 15.0253 228.698 15.0841C228.622 15.0869 228.546 15.0899 228.469 15.0899C226.811 15.0884 225.221 14.4294 224.049 13.2576C222.877 12.0858 222.219 10.4971 222.219 8.84061C222.219 7.18414 222.877 5.59544 224.049 4.42363C225.221 3.25182 226.811 2.59277 228.469 2.59131Z" fill="#20253B"/>
<path opacity="0.1" d="M249.059 19.5098C248.006 20.3027 246.723 20.7318 245.404 20.7325H238.084C236.765 20.7318 235.483 20.3027 234.43 19.5098H249.059Z" fill="#20253B"/>
<path d="M296.332 64.7911C296.332 64.7911 297.909 69.3307 299.353 68.122L298.202 62.1882L296.332 64.7911Z" fill="#FCA19E"/>
<path d="M488.253 203.229C489.722 203.763 491.295 203.948 492.848 203.771C494.401 203.593 495.891 203.058 497.202 202.207C498.512 201.356 499.607 200.213 500.4 198.867C501.192 197.522 501.661 196.01 501.769 194.453C501.878 192.895 501.622 191.334 501.024 189.892C500.425 188.45 499.499 187.166 498.318 186.142C497.138 185.119 495.736 184.383 494.223 183.993C492.709 183.603 491.126 183.569 489.597 183.895L489.85 189.083L487.392 184.636C484.98 185.769 483.117 187.811 482.211 190.315C481.89 191.192 481.694 192.11 481.631 193.042C481.476 195.228 482.038 197.406 483.233 199.244C484.428 201.082 486.191 202.481 488.253 203.229Z" fill="#EE786C"/>
<path d="M500.413 263.412C499.545 258.999 503.305 255.087 507.018 252.544C510.731 250.001 515.07 247.502 516.337 243.187C518.158 236.984 512.734 231.305 508.513 226.406C505.381 222.771 502.691 218.778 500.5 214.511C499.622 212.8 498.815 211.011 498.583 209.102C498.251 206.353 499.135 203.617 500.026 200.995C502.993 192.259 506.166 183.596 509.544 175.007" stroke="#20253B" stroke-width="3.46096" stroke-miterlimit="10"/>
<path d="M488.671 201.894C490.14 202.427 491.713 202.613 493.266 202.435C494.819 202.258 496.309 201.723 497.62 200.872C498.93 200.021 500.025 198.877 500.818 197.532C501.61 196.186 502.079 194.675 502.188 193.117C502.296 191.56 502.04 189.998 501.442 188.556C500.843 187.114 499.917 185.83 498.736 184.807C497.556 183.783 496.154 183.047 494.641 182.657C493.127 182.267 491.544 182.233 490.015 182.559L490.268 187.748L487.81 183.301C485.398 184.433 483.535 186.475 482.629 188.979C482.308 189.856 482.112 190.775 482.049 191.706C481.894 193.893 482.456 196.07 483.651 197.908C484.846 199.747 486.608 201.146 488.671 201.894V201.894Z" stroke="#20253B" stroke-width="3.46096" stroke-miterlimit="10"/>
<path d="M499.183 173.215C499.76 171.626 500.727 170.208 501.997 169.091C503.266 167.973 504.797 167.193 506.447 166.822L507.278 171.755L508.819 166.574C510.958 166.606 513.032 167.316 514.741 168.601C516.449 169.887 517.705 171.682 518.326 173.727C518.947 175.772 518.902 177.961 518.196 179.978C517.49 181.996 516.161 183.737 514.4 184.951C512.639 186.164 510.538 186.787 508.399 186.73C506.261 186.673 504.196 185.938 502.502 184.632C500.809 183.326 499.575 181.517 498.978 179.465C498.382 177.412 498.454 175.224 499.183 173.215H499.183Z" fill="#EE786C"/>
<path d="M499.734 171.434C500.311 169.845 501.278 168.427 502.548 167.309C503.817 166.192 505.348 165.412 506.998 165.041L507.829 169.974L509.37 164.793C511.509 164.825 513.583 165.535 515.291 166.82C517 168.106 518.256 169.901 518.877 171.946C519.498 173.991 519.452 176.18 518.747 178.197C518.041 180.215 516.712 181.956 514.951 183.169C513.19 184.383 511.089 185.006 508.95 184.949C506.812 184.892 504.747 184.157 503.053 182.851C501.36 181.545 500.126 179.736 499.529 177.683C498.933 175.631 499.004 173.443 499.734 171.434H499.734Z" stroke="#20253B" stroke-width="3.46096" stroke-miterlimit="10"/>
<path d="M506.742 226.506C509.072 227.35 511.631 227.308 513.932 226.389C516.233 225.469 518.114 223.736 519.218 221.52C520.322 219.303 520.571 216.759 519.917 214.371C519.264 211.983 517.753 209.919 515.674 208.572L514.49 212.553L513.651 207.562C513.642 207.558 513.634 207.555 513.625 207.553C512.379 207.1 511.056 206.898 509.731 206.956C508.407 207.015 507.107 207.333 505.906 207.894C504.705 208.455 503.626 209.246 502.731 210.223C501.836 211.201 501.143 212.344 500.691 213.589C500.239 214.834 500.037 216.156 500.096 217.479C500.156 218.802 500.475 220.1 501.037 221.3C501.599 222.499 502.392 223.577 503.371 224.47C504.35 225.363 505.495 226.055 506.742 226.506H506.742Z" fill="#EE786C"/>
<path d="M507.223 224.702C509.552 225.546 512.111 225.504 514.412 224.585C516.713 223.665 518.595 221.932 519.699 219.716C520.802 217.499 521.051 214.955 520.398 212.567C519.744 210.179 518.234 208.115 516.154 206.768L514.971 210.75L514.131 205.758C514.123 205.754 514.114 205.751 514.105 205.749C512.859 205.296 511.536 205.094 510.212 205.152C508.887 205.211 507.587 205.53 506.386 206.09C505.185 206.651 504.106 207.442 503.212 208.42C502.317 209.397 501.623 210.541 501.171 211.785C500.719 213.03 500.517 214.352 500.577 215.675C500.636 216.998 500.956 218.297 501.518 219.496C502.08 220.696 502.873 221.773 503.852 222.666C504.83 223.559 505.976 224.251 507.222 224.702H507.223Z" stroke="#20253B" stroke-width="3.46096" stroke-miterlimit="10"/>
<path d="M496.237 243.249C496.638 245.526 497.81 247.596 499.557 249.112C501.304 250.628 503.52 251.498 505.832 251.575C508.145 251.653 510.415 250.934 512.26 249.539C514.105 248.144 515.414 246.157 515.967 243.913C516.52 241.668 516.283 239.302 515.297 237.21C514.311 235.119 512.635 233.43 510.55 232.427C508.465 231.424 506.098 231.167 503.846 231.7C501.594 232.233 499.594 233.524 498.182 235.355L502.678 242.115L496.534 238.527C496.058 240.054 495.956 241.674 496.237 243.249Z" fill="#EE786C"/>
<path d="M496.651 241.913C497.052 244.189 498.224 246.259 499.971 247.775C501.718 249.291 503.934 250.161 506.246 250.239C508.559 250.317 510.829 249.598 512.674 248.203C514.519 246.808 515.828 244.821 516.381 242.576C516.934 240.332 516.697 237.965 515.711 235.874C514.725 233.783 513.048 232.094 510.964 231.091C508.879 230.088 506.512 229.831 504.26 230.364C502.008 230.897 500.008 232.187 498.596 234.018L503.092 240.779L496.949 237.191C496.472 238.718 496.37 240.338 496.651 241.913V241.913Z" stroke="#20253B" stroke-width="3.46096" stroke-miterlimit="10"/>
<path d="M4.36759 227.787C5.33273 228.137 6.36618 228.259 7.38648 228.142C8.40678 228.026 9.38603 227.674 10.2471 227.115C11.1081 226.556 11.8274 225.805 12.3482 224.921C12.869 224.037 13.1771 223.044 13.2482 222.02C13.3194 220.997 13.1516 219.971 12.7581 219.024C12.3646 218.076 11.7562 217.233 10.9808 216.56C10.2054 215.888 9.28416 215.404 8.28978 215.148C7.29539 214.891 6.25501 214.869 5.25064 215.083L5.41661 218.493L3.80187 215.571C2.2171 216.315 0.992797 217.657 0.398008 219.302C0.186774 219.878 0.0583587 220.481 0.0165944 221.093C-0.0853286 222.53 0.284286 223.96 1.06943 225.168C1.85457 226.376 3.01244 227.295 4.36759 227.787Z" fill="#EE786C"/>
<path d="M12.3586 267.328C11.7885 264.429 14.2585 261.858 16.6982 260.187C19.138 258.517 21.9887 256.875 22.8211 254.04C24.0175 249.965 20.4538 246.233 17.6802 243.015C15.6224 240.626 13.8553 238.003 12.4157 235.199C11.7899 234.098 11.3636 232.895 11.1565 231.645C10.9378 229.839 11.5188 228.042 12.104 226.319C14.0537 220.579 16.1383 214.888 18.3577 209.244" stroke="#20253B" stroke-width="3.46096" stroke-miterlimit="10"/>
<path d="M4.64103 226.91C5.60618 227.26 6.63962 227.382 7.65992 227.266C8.68021 227.149 9.65947 226.797 10.5205 226.238C11.3815 225.679 12.1008 224.928 12.6216 224.044C13.1424 223.16 13.4505 222.167 13.5216 221.144C13.5928 220.12 13.425 219.094 13.0315 218.147C12.638 217.199 12.0296 216.356 11.2542 215.683C10.4788 215.011 9.55759 214.527 8.56321 214.271C7.56883 214.015 6.52846 213.993 5.52408 214.207L5.69006 217.616L4.07531 214.694C2.49054 215.438 1.26623 216.78 0.671446 218.425C0.460214 219.001 0.331801 219.604 0.290034 220.217C0.188104 221.653 0.557716 223.084 1.34286 224.291C2.128 225.499 3.28588 226.419 4.64103 226.91V226.91Z" stroke="#20253B" stroke-width="3.46096" stroke-miterlimit="10"/>
<path d="M11.5461 208.067C11.9248 207.023 12.5605 206.091 13.3946 205.357C14.2287 204.623 15.2343 204.111 16.3187 203.867L16.8647 207.108L17.8769 203.704C19.2823 203.725 20.6447 204.191 21.7675 205.036C22.8902 205.881 23.7151 207.06 24.1232 208.404C24.5312 209.747 24.5013 211.185 24.0377 212.511C23.574 213.836 22.7007 214.98 21.5438 215.778C20.3869 216.575 19.0062 216.984 17.6012 216.947C16.1961 216.909 14.8394 216.427 13.7268 215.569C12.6143 214.711 11.8035 213.522 11.4115 212.173C11.0195 210.825 11.0666 209.387 11.5461 208.067Z" fill="#EE786C"/>
<path d="M11.9132 206.897C12.292 205.853 12.9277 204.921 13.7618 204.187C14.5958 203.453 15.6014 202.941 16.6859 202.697L17.2319 205.938L18.2441 202.534C19.6495 202.555 21.0119 203.021 22.1346 203.866C23.2574 204.711 24.0823 205.89 24.4904 207.233C24.8984 208.577 24.8685 210.015 24.4049 211.341C23.9412 212.666 23.0679 213.81 21.911 214.607C20.7541 215.405 19.3734 215.814 17.9684 215.777C16.5633 215.739 15.2066 215.256 14.094 214.398C12.9814 213.54 12.1706 212.351 11.7787 211.003C11.3867 209.655 11.4338 208.217 11.9132 206.897V206.897Z" stroke="#20253B" stroke-width="3.46096" stroke-miterlimit="10"/>
<path d="M16.5149 243.081C18.0455 243.636 19.7269 243.608 21.2386 243.004C22.7503 242.4 23.9866 241.261 24.7119 239.805C25.4371 238.349 25.6006 236.677 25.1712 235.108C24.7417 233.539 23.7494 232.183 22.3833 231.298L21.6055 233.914L21.054 230.635C21.0485 230.632 21.0429 230.63 21.0371 230.628C20.2184 230.331 19.349 230.198 18.4787 230.236C17.6084 230.274 16.7542 230.484 15.9649 230.852C15.1756 231.22 14.4667 231.74 13.8787 232.383C13.2907 233.025 12.8352 233.776 12.5381 234.594C12.241 235.412 12.1082 236.281 12.1473 237.15C12.1864 238.02 12.3966 238.873 12.7659 239.661C13.1353 240.449 13.6564 241.157 14.2997 241.744C14.943 242.33 15.6957 242.785 16.5149 243.081Z" fill="#EE786C"/>
<path d="M16.8304 241.896C18.361 242.451 20.0424 242.424 21.5541 241.819C23.0658 241.215 24.3021 240.076 25.0274 238.62C25.7526 237.164 25.9161 235.492 25.4866 233.923C25.0572 232.355 24.0648 230.998 22.6987 230.113L21.921 232.729L21.3694 229.45C21.364 229.447 21.3584 229.445 21.3526 229.444C20.534 229.147 19.665 229.014 18.7952 229.053C17.9253 229.092 17.0716 229.302 16.2829 229.67C14.6899 230.414 13.4581 231.76 12.8584 233.411C12.2587 235.063 12.3403 236.884 13.0852 238.476C13.8301 240.067 15.1772 241.297 16.8304 241.896V241.896Z" stroke="#20253B" stroke-width="3.46096" stroke-miterlimit="10"/>
<path d="M9.61358 254.081C9.87676 255.577 10.6468 256.937 11.7947 257.933C12.9425 258.929 14.3983 259.501 15.9179 259.552C17.4375 259.603 18.9285 259.131 20.1408 258.214C21.3531 257.297 22.213 255.992 22.5764 254.517C22.9397 253.043 22.7843 251.488 22.1363 250.114C21.4883 248.74 20.387 247.63 19.0172 246.971C17.6474 246.312 16.0924 246.143 14.6129 246.494C13.1334 246.844 11.8194 247.692 10.8914 248.895L13.8457 253.336L9.80897 250.979C9.49598 251.982 9.42897 253.047 9.61358 254.081Z" fill="#EE786C"/>
<path d="M9.88702 253.203C10.1502 254.699 10.9203 256.059 12.0681 257.055C13.216 258.051 14.6717 258.623 16.1913 258.674C17.7109 258.725 19.2019 258.252 20.4142 257.336C21.6265 256.419 22.4865 255.114 22.8498 253.639C23.2131 252.164 23.0577 250.61 22.4097 249.236C21.7617 247.862 20.6604 246.752 19.2906 246.093C17.9208 245.434 16.3658 245.265 14.8863 245.615C13.4068 245.966 12.0929 246.813 11.1648 248.016L14.1191 252.458L10.0824 250.101C9.76942 251.104 9.70241 252.168 9.88702 253.203V253.203Z" stroke="#20253B" stroke-width="3.46096" stroke-miterlimit="10"/>
<path d="M233.224 165.235C237.777 165.235 241.468 160.464 241.468 154.578C241.468 148.693 237.777 143.921 233.224 143.921C228.671 143.921 224.98 148.693 224.98 154.578C224.98 160.464 228.671 165.235 233.224 165.235Z" fill="#20253B"/>
<path d="M278.08 165.477C282.633 165.477 286.323 160.706 286.323 154.82C286.323 148.935 282.633 144.164 278.08 144.164C273.527 144.164 269.836 148.935 269.836 154.82C269.836 160.706 273.527 165.477 278.08 165.477Z" fill="#20253B"/>
<path d="M271.776 186.307C271.776 191.122 265.046 195.026 256.744 195.026C248.442 195.026 241.711 191.122 241.711 186.307C241.711 182.136 246.759 178.649 253.504 177.796C254.578 177.655 255.66 177.585 256.744 177.588C258.559 177.582 260.369 177.777 262.141 178.169C267.776 179.424 271.776 182.596 271.776 186.307Z" fill="#20253B"/>
<path d="M235.162 162.813C239.715 162.813 243.405 158.042 243.405 152.156C243.405 146.271 239.715 141.5 235.162 141.5C230.609 141.5 226.918 146.271 226.918 152.156C226.918 158.042 230.609 162.813 235.162 162.813Z" stroke="#20253B" stroke-width="3.46096" stroke-miterlimit="10"/>
<path d="M280.017 163.055C284.57 163.055 288.261 158.284 288.261 152.398C288.261 146.513 284.57 141.742 280.017 141.742C275.464 141.742 271.773 146.513 271.773 152.398C271.773 158.284 275.464 163.055 280.017 163.055Z" stroke="#20253B" stroke-width="3.46096" stroke-miterlimit="10"/>
<path d="M258.681 192.604C266.983 192.604 273.714 188.701 273.714 183.885C273.714 179.07 266.983 175.166 258.681 175.166C250.379 175.166 243.648 179.07 243.648 183.885C243.648 188.701 250.379 192.604 258.681 192.604Z" stroke="#20253B" stroke-width="3.46096" stroke-miterlimit="10"/>
<path d="M262.32 178.896C262.324 179.505 262.095 180.093 261.68 180.539C261.484 180.753 261.246 180.924 260.98 181.041C260.715 181.158 260.428 181.22 260.138 181.221H255.289C254.691 181.2 254.126 180.944 253.717 180.508C253.308 180.072 253.089 179.493 253.106 178.896C253.104 178.424 253.242 177.961 253.504 177.568C254.577 177.417 255.66 177.343 256.743 177.346C258.561 177.34 260.372 177.548 262.141 177.966C262.26 178.261 262.321 178.577 262.32 178.896Z" fill="white"/>
<path d="M235.163 151.672C236.502 151.672 237.588 150.588 237.588 149.25C237.588 147.912 236.502 146.828 235.163 146.828C233.824 146.828 232.738 147.912 232.738 149.25C232.738 150.588 233.824 151.672 235.163 151.672Z" fill="white"/>
<path d="M280.261 151.672C281.6 151.672 282.685 150.588 282.685 149.25C282.685 147.912 281.6 146.828 280.261 146.828C278.921 146.828 277.836 147.912 277.836 149.25C277.836 150.588 278.921 151.672 280.261 151.672Z" fill="white"/>
<path opacity="0.3" d="M282.686 174.439C284.025 174.439 285.111 173.355 285.111 172.017C285.111 170.68 284.025 169.595 282.686 169.595C281.347 169.595 280.262 170.68 280.262 172.017C280.262 173.355 281.347 174.439 282.686 174.439Z" fill="#FEDB29"/>
<path opacity="0.3" d="M223.526 174.439C224.865 174.439 225.951 173.355 225.951 172.017C225.951 170.68 224.865 169.595 223.526 169.595C222.187 169.595 221.102 170.68 221.102 172.017C221.102 173.355 222.187 174.439 223.526 174.439Z" fill="#FEDB29"/>
</g>
<defs>
<clipPath id="clip0">
<rect width="521" height="283" fill="white"/>
</clipPath>
</defs>
</svg>
