<svg width="22" height="6" viewBox="0 0 22 6" fill="none" xmlns="http://www.w3.org/2000/svg">
<path d="M16.3332 2.99998C16.3332 4.46665 17.5332 5.66665 18.9998 5.66665C20.4665 5.66665 21.6665 4.46665 21.6665 2.99998C21.6665 1.53331 20.4665 0.333313 18.9998 0.333313C17.5332 0.333313 16.3332 1.53331 16.3332 2.99998ZM13.6665 2.99998C13.6665 1.53331 12.4665 0.333313 10.9998 0.333313C9.53317 0.333313 8.33317 1.53331 8.33317 2.99998C8.33317 4.46665 9.53317 5.66665 10.9998 5.66665C12.4665 5.66665 13.6665 4.46665 13.6665 2.99998ZM5.6665 2.99998C5.6665 1.53331 4.46651 0.333313 2.99984 0.333313C1.53317 0.333313 0.333172 1.53331 0.333172 2.99998C0.333172 4.46665 1.53317 5.66665 2.99984 5.66665C4.46651 5.66665 5.6665 4.46665 5.6665 2.99998Z" fill="#20253B"/>
</svg>
