<svg width="28" height="23" viewBox="0 0 28 23" fill="none" xmlns="http://www.w3.org/2000/svg">
<path d="M17.6556 8.65426L18.7464 8.74138C18.8348 8.74138 18.9233 8.71234 18.9822 8.65426L19.336 8.30577C19.3949 8.24769 19.4244 8.16057 19.4244 8.10249V6.41814C19.4244 6.24389 19.277 6.12773 19.1296 6.12773H17.4197C17.3313 6.12773 17.2723 6.15677 17.2134 6.21485L12.408 10.9485C11.1993 10.5419 9.81368 10.8033 8.84082 11.7326C7.4847 13.0684 7.4847 15.2174 8.84082 16.5243C10.1969 17.8601 12.3785 17.8601 13.7051 16.5243C14.678 15.5659 14.9433 14.201 14.5011 13.0103L15.3561 12.1682C15.415 12.1101 15.4445 12.023 15.4445 11.9358L15.3561 10.8613C15.3266 10.6871 15.5035 10.5129 15.6804 10.5419L16.7712 10.629C16.8596 10.629 16.948 10.6 17.007 10.5419L17.2428 10.3096C17.3018 10.2515 17.3313 10.1644 17.3313 10.0772L17.2428 9.00275C17.3018 8.79946 17.4787 8.62522 17.6556 8.65426ZM11.3467 15.5659C10.934 15.9725 10.2854 15.9725 9.87265 15.5659C9.45991 15.1594 9.45991 14.5205 9.87265 14.1139C10.2854 13.7073 10.934 13.7073 11.3467 14.1139C11.7299 14.5205 11.7299 15.1594 11.3467 15.5659Z" fill="#FEDB29"/>
<path d="M20.3089 18.8761C18.54 20.3571 16.2995 21.1412 14 21.1412C8.60501 21.1412 4.21238 16.8142 4.21238 11.4998V10.6866H5.77486C6.06967 10.6866 6.33499 10.5414 6.45292 10.28C6.60032 10.0477 6.57084 9.72827 6.42344 9.49595L3.91757 5.69164C3.62276 5.25603 2.88574 5.25603 2.62041 5.69164L0.114546 9.49595C-0.0328581 9.75732 -0.0328582 10.0477 0.085065 10.28C0.232469 10.5124 0.497796 10.6866 0.763123 10.6866H2.32561V11.4998C2.32561 17.8306 7.57319 22.9998 14 22.9998C16.7712 22.9998 19.4245 22.0415 21.5471 20.27C21.9598 19.9506 21.9893 19.3407 21.665 18.9632C21.3112 18.5856 20.7216 18.5276 20.3089 18.8761Z" fill="#FEDB29"/>
<path d="M27.9149 12.7198C27.7675 12.4874 27.5021 12.3132 27.2368 12.3132H25.6743V11.5001C25.6743 5.16922 20.4268 0 13.9999 0C11.2287 0 8.57547 0.958339 6.45286 2.72981C6.04013 3.04926 6.01065 3.65911 6.33493 4.03664C6.65922 4.44321 7.27832 4.47225 7.66157 4.1528C9.43042 2.67173 11.671 1.88764 13.9705 1.88764C19.3654 1.88764 23.7581 6.21468 23.7581 11.5291V12.3422H22.1956C21.9008 12.3422 21.6355 12.4874 21.5175 12.7488C21.3701 12.9811 21.3996 13.3006 21.547 13.5329L24.0824 17.3082C24.2298 17.5405 24.4656 17.6567 24.7309 17.6567C24.9963 17.6567 25.2321 17.5115 25.3795 17.3082L27.8854 13.4748C28.0328 13.2425 28.0328 12.9521 27.9149 12.7198Z" fill="#FEDB29"/>
</svg>
