<svg width="17" height="17" viewBox="0 0 17 17" fill="none" xmlns="http://www.w3.org/2000/svg">
<path d="M0.499052 16.4907C0.729661 16.7217 1.02191 16.8815 1.34087 16.9508C1.65983 17.0202 1.992 16.9962 2.29768 16.8817L4.56368 16.0317C6.3624 16.9729 8.43854 17.2389 10.4164 16.7816C12.3942 16.3243 14.143 15.1738 15.3463 13.5384C16.5495 11.903 17.1278 9.89074 16.9763 7.86583C16.8249 5.84091 15.9537 3.93713 14.5206 2.49904C13.0874 1.06096 11.1869 0.183591 9.16311 0.0257354C7.13928 -0.13212 5.12581 0.439967 3.48713 1.63846C1.84846 2.83694 0.692834 4.58264 0.229427 6.5596C-0.233981 8.53656 0.025443 10.6141 0.960748 12.4163L0.111001 14.683C-0.00558234 14.9896 -0.0309778 15.3235 0.0378777 15.6442C0.106733 15.965 0.266899 16.2589 0.499052 16.4907ZM1.70003 8.48935C1.70101 6.97421 2.20784 5.5028 3.14008 4.30862C4.07232 3.11444 5.37656 2.2659 6.84584 1.89767C8.31511 1.52943 9.86525 1.66259 11.2502 2.27601C12.6352 2.88944 13.7758 3.94798 14.4908 5.28367C15.2059 6.61935 15.4545 8.15566 15.1972 9.64878C14.9399 11.1419 14.1915 12.5063 13.0707 13.5255C11.9499 14.5446 10.5209 15.1602 9.01052 15.2744C7.50014 15.3886 5.99488 14.995 4.73362 14.156L1.70003 15.2893L2.83302 12.2548C2.09101 11.1396 1.69668 9.82904 1.70003 8.48935Z" fill="#20253B"/>
<path d="M7.625 12H9.375V9.375H12V7.625H9.375V5H7.625V7.625H5V9.375H7.625V12Z" fill="#20253B"/>
</svg>
