<svg width="29" height="27" viewBox="0 0 29 27" fill="none" xmlns="http://www.w3.org/2000/svg">
<path d="M23.4354 17.8383C22.4062 20.1567 20.6118 22.0512 18.3525 23.2046C16.0933 24.358 13.5065 24.7003 11.025 24.1743C8.54358 23.6482 6.31814 22.2857 4.72128 20.3148C3.12442 18.3439 2.25305 15.8843 2.25305 13.3477C2.25305 10.8111 3.12442 8.35148 4.72128 6.38059C6.31814 4.40971 8.54358 3.04719 11.025 2.52113C13.5065 1.99506 16.0933 2.33739 18.3525 3.4908C20.6118 4.6442 22.4062 6.53868 23.4354 8.85709C24.0926 8.54498 24.8104 8.38109 25.538 8.37698H25.7283C24.5745 5.49967 22.4548 3.1139 19.7332 1.6294C17.0117 0.144899 13.8583 -0.345684 10.8144 0.241901C7.77054 0.829486 5.02625 2.45857 3.05282 4.84937C1.0794 7.24018 0 10.2435 0 13.3436C0 16.4436 1.0794 19.4469 3.05282 21.8377C5.02625 24.2286 7.77054 25.8576 10.8144 26.4452C13.8583 27.0328 17.0117 26.5422 19.7332 25.0577C22.4548 23.5732 24.5745 21.1875 25.7283 18.3101H25.538C24.8115 18.3047 24.0946 18.1438 23.4354 17.8383Z" fill="#FEDB29"/>
<path d="M26.2493 10.0326C26.0159 9.97879 25.7768 9.95377 25.5374 9.95813C24.8281 9.95818 24.1361 10.1778 23.5566 10.5869C22.9771 10.9959 22.5384 11.5744 22.3009 12.2428H21.9284C21.7892 12.2446 21.6516 12.2727 21.5228 12.3255C21.3081 12.4074 21.1234 12.5526 20.9931 12.7418C20.8627 12.931 20.793 13.1553 20.793 13.3851C20.793 13.6148 20.8627 13.8391 20.9931 14.0283C21.1234 14.2175 21.3081 14.3627 21.5228 14.4446C21.6516 14.4974 21.7892 14.5255 21.9284 14.5274H22.3422C22.6297 15.3507 23.2223 16.0323 23.9978 16.4312C24.4825 16.6863 25.0228 16.8171 25.5705 16.812C25.81 16.8164 26.049 16.7913 26.2824 16.7375C27.0508 16.5746 27.7399 16.1527 28.2344 15.5424C28.7288 14.9321 28.9987 14.1705 28.9987 13.3851C28.9987 12.5996 28.7288 11.838 28.2344 11.2277C27.7399 10.6174 27.0508 10.1955 26.2824 10.0326H26.2493ZM25.5374 14.5274C25.3133 14.5272 25.0941 14.4612 24.9073 14.3374C24.7204 14.2136 24.5741 14.0376 24.4866 13.8312C24.399 13.6249 24.3741 13.3974 24.415 13.177C24.4558 12.9566 24.5605 12.7531 24.7162 12.5918C24.8718 12.4305 25.0715 12.3186 25.2903 12.27C25.509 12.2213 25.7373 12.2381 25.9466 12.3183C26.1559 12.3984 26.3371 12.5384 26.4674 12.7207C26.5978 12.903 26.6716 13.1197 26.6797 13.3437C26.6797 13.6466 26.5594 13.9372 26.3451 14.1514C26.1309 14.3656 25.8404 14.486 25.5374 14.486V14.5274Z" fill="#FEDB29"/>
<path d="M16.5641 12.1931C16.2937 11.4293 15.762 10.7857 15.0631 10.3759C14.3641 9.9662 13.5427 9.81672 12.7442 9.9539C11.9457 10.0911 11.2213 10.5061 10.6992 11.1256C10.177 11.7451 9.89062 12.5293 9.89062 13.3395C9.89062 14.1497 10.177 14.9339 10.6992 15.5534C11.2213 16.1729 11.9457 16.588 12.7442 16.7251C13.5427 16.8623 14.3641 16.7128 15.0631 16.3031C15.762 15.8934 16.2937 15.2497 16.5641 14.486H17.3091C17.5963 14.4615 17.8639 14.3302 18.059 14.1179C18.254 13.9056 18.3622 13.6278 18.3622 13.3395C18.3622 13.0512 18.254 12.7735 18.059 12.5612C17.8639 12.3489 17.5963 12.2175 17.3091 12.1931H16.5641ZM13.3358 14.486C13.1099 14.486 12.889 14.419 12.7012 14.2935C12.5133 14.1679 12.3669 13.9895 12.2805 13.7808C12.194 13.5721 12.1714 13.3424 12.2155 13.1208C12.2595 12.8992 12.3683 12.6957 12.5281 12.5359C12.6878 12.3762 12.8914 12.2674 13.113 12.2233C13.3346 12.1792 13.5642 12.2018 13.773 12.2883C13.9817 12.3748 14.1601 12.5212 14.2856 12.709C14.4111 12.8969 14.4781 13.1177 14.4781 13.3437C14.4781 13.6466 14.3578 13.9372 14.1436 14.1514C13.9293 14.3656 13.6388 14.486 13.3358 14.486Z" fill="#FEDB29"/>
</svg>
