<svg width="31" height="31" viewBox="0 0 31 31" fill="none" xmlns="http://www.w3.org/2000/svg">
<path d="M19.5763 6.88253C19.6497 6.44863 19.5397 6.05089 19.283 5.72546L16.6062 2.14576C16.0929 1.45875 15.1029 1.31412 14.4062 1.82034L13.1595 2.7243C13.1228 2.7243 13.0862 2.68814 13.0862 2.68814L12.8661 1.38643C12.7561 0.518629 11.9861 -0.0960662 11.1061 0.0124094L6.85265 0.482471C5.97263 0.590946 5.34928 1.35028 5.45928 2.21808L5.60595 3.48363C5.56928 3.51979 5.53262 3.51979 5.53262 3.55595L4.10258 2.94125C3.29589 2.61583 2.3792 2.94125 2.01252 3.73674L0.14247 7.7865C-0.0408683 8.14808 -0.0408684 8.61814 0.105802 8.97973C0.252473 9.37747 0.545814 9.66674 0.949158 9.84754L2.30586 10.4622C2.30586 10.4984 2.30586 10.5345 2.30586 10.5707V10.6069L1.09583 11.5108C0.76582 11.7639 0.545814 12.1255 0.472479 12.5233C0.399143 12.921 0.509147 13.3549 0.76582 13.6803L3.44256 17.26C3.95591 17.9471 4.94593 18.0917 5.64262 17.5855L6.96266 16.6815C7.03599 16.7177 7.07266 16.7177 7.14599 16.7538L7.29266 18.0194C7.32933 18.4171 7.54934 18.8149 7.87935 19.068C8.17269 19.2849 8.5027 19.3934 8.86937 19.3934C8.94271 19.3934 8.97938 19.3934 9.05271 19.3934L13.3062 18.9233C13.7095 18.8872 14.1128 18.6702 14.3695 18.3448C14.6262 18.0194 14.7362 17.6216 14.6995 17.1877L14.5529 15.886L15.9462 16.5007C16.7529 16.8623 17.6696 16.5007 18.0363 15.7052L19.9063 11.6555C20.0897 11.2577 20.0897 10.86 19.943 10.4622C19.7963 10.0645 19.503 9.77522 19.0996 9.59443L17.7429 8.97973C17.7429 8.94357 17.7429 8.90741 17.7429 8.87125V8.8351L18.953 7.93113C19.283 7.67802 19.503 7.31644 19.5763 6.88253ZM16.3129 14.295L14.8462 13.6442C14.4429 13.4634 14.0028 13.5357 13.6728 13.825C13.4162 14.0419 13.1228 14.2589 12.8295 14.4035C12.4628 14.6205 12.2428 15.0544 12.2795 15.4521L12.4261 16.8261L9.38272 17.1516L9.23605 15.8499C9.19938 15.3798 8.83271 15.0182 8.39269 14.9097C7.98935 14.8013 7.69601 14.6928 7.40267 14.512C7.21933 14.4035 7.03599 14.3674 6.85265 14.3674C6.63265 14.3674 6.41264 14.4397 6.2293 14.5843L4.8726 15.5244L2.89254 12.8849L4.17591 11.9447C4.54259 11.6916 4.68926 11.2577 4.57926 10.8238C4.54259 10.643 4.50592 10.4622 4.50592 10.3176C4.46925 10.1368 4.46925 9.95601 4.46925 9.73906C4.46925 9.30516 4.21258 8.90741 3.80924 8.72662L2.3792 8.07577L3.7359 5.11076L5.23927 5.76162C5.64262 5.94241 6.1193 5.87009 6.44931 5.54467C6.70598 5.32772 6.92599 5.14692 7.256 4.96613C7.65934 4.74918 7.91601 4.31528 7.87935 3.88137L7.73268 2.54351L10.7761 2.21808L10.9228 3.59211C10.9594 4.02601 11.2894 4.38759 11.6928 4.49607C12.0595 4.60455 12.3895 4.74918 12.7195 4.92997C13.0862 5.14692 13.5628 5.11076 13.8928 4.85766L15.2129 3.91753L17.1929 6.52095L15.8729 7.46107C15.5062 7.71418 15.3595 8.14808 15.4696 8.58199C15.5062 8.76278 15.5429 8.94357 15.5429 9.0882C15.5796 9.269 15.5796 9.44979 15.5796 9.66674C15.5796 10.1006 15.8362 10.4984 16.2396 10.6792L17.6696 11.33L16.3129 14.295Z" fill="#FEDB29"/>
<path d="M30.6135 20.9117C30.6868 20.514 30.5768 20.1162 30.3201 19.827L28.1934 17.0066C27.7167 16.3557 26.7634 16.2111 26.14 16.6812L25.4067 17.2235L25.3333 16.5004C25.2967 16.1026 25.0767 15.7772 24.7833 15.5241C24.49 15.271 24.0866 15.1625 23.6833 15.1987L20.3099 15.5602C19.5032 15.6687 18.9165 16.3919 18.9898 17.1874L19.0632 17.8744L18.2198 17.5128C17.4865 17.1874 16.6064 17.5128 16.2764 18.236L14.8097 21.4541C14.6631 21.8157 14.6264 22.2134 14.7731 22.575C14.9197 22.9366 15.1764 23.2259 15.5431 23.4066L16.3864 23.7682L15.6531 24.3106C15.3231 24.5276 15.1397 24.8891 15.0664 25.2869C14.9931 25.6846 15.1031 26.0462 15.3597 26.3716L17.4865 29.192C17.9631 29.8429 18.8798 29.9875 19.5399 29.5174L20.3832 28.9389L20.4565 29.6982C20.5299 30.4576 21.1899 30.9999 21.9233 30.9999C21.9966 30.9999 22.0333 30.9999 22.1066 30.9999L25.48 30.6384C26.2867 30.5299 26.8734 29.8067 26.8001 29.0112L26.7267 28.3604L27.4601 28.6858C28.1934 29.0112 29.0734 28.6858 29.4035 27.9626L30.8702 24.7445C31.0168 24.3829 31.0535 23.9852 30.9068 23.6236C30.7602 23.262 30.4668 22.9727 30.1368 22.792L29.2935 22.4304L30.0268 21.888C30.3568 21.6349 30.5768 21.3095 30.6135 20.9117ZM27.7167 26.4078L26.7634 26.0101C26.36 25.8293 25.92 25.9016 25.59 26.1909C25.4067 26.3716 25.1867 26.5163 24.9667 26.6248C24.6 26.8417 24.38 27.2756 24.4167 27.6734L24.5267 28.5412L22.5833 28.7581L22.4733 27.9265C22.4366 27.4564 22.0699 27.0948 21.6299 26.9863C21.3366 26.914 21.1532 26.8056 20.8966 26.6971C20.7132 26.5886 20.5299 26.5524 20.3465 26.5524C20.1265 26.5524 19.9065 26.6248 19.7232 26.7694L18.8432 27.3841L17.5598 25.6846L18.3665 25.0699C18.7332 24.8168 18.8798 24.3829 18.7698 23.949C18.7332 23.8044 18.7332 23.6959 18.6965 23.5513C18.6965 23.4428 18.6598 23.2982 18.6598 23.1174C18.6598 22.6835 18.4032 22.2857 17.9998 22.1049L17.0831 21.7072L17.9631 19.7546L18.9165 20.1885C19.3198 20.3693 19.7965 20.297 20.1265 19.9716C20.3099 19.7908 20.4565 19.6823 20.7132 19.5738C21.1166 19.3569 21.3732 18.923 21.3366 18.4891L21.2999 17.6574L23.2433 17.4405L23.3533 18.3083C23.39 18.7422 23.72 19.1038 24.1233 19.2123C24.38 19.2846 24.6367 19.3931 24.8933 19.5377C25.26 19.7546 25.7367 19.7185 26.0667 19.4654L26.9101 18.8507L28.1934 20.5501L27.3867 21.1648C27.0201 21.4179 26.8734 21.8518 26.9834 22.2857C27.0201 22.4304 27.0201 22.5388 27.0567 22.6835C27.0567 22.8281 27.0934 22.9366 27.0934 23.1174C27.0934 23.5513 27.3501 23.949 27.7534 24.1298L28.6701 24.5276L27.7167 26.4078Z" fill="#FEDB29"/>
</svg>
