<svg width="29" height="29" viewBox="0 0 29 29" fill="none" xmlns="http://www.w3.org/2000/svg">
<path d="M18.85 0C21.1459 0 23.0589 1.71551 23.1926 3.92533L23.2 4.17282H20.3C20.3 3.54749 19.7588 2.99572 19.0231 2.92009L18.85 2.91128L8.28095 2.91013L13.3667 5.17961C14.8504 5.84157 15.8358 7.27331 15.9407 8.88417L15.95 9.17016V20.3783L18.85 20.379C19.6136 20.379 20.2093 19.8719 20.2905 19.2602L20.3 19.1175H23.2C23.2 21.3622 21.3691 23.1579 19.1035 23.2833L18.85 23.2903L15.95 23.2899V24.6331C15.95 26.9587 14.1391 28.8597 11.8556 28.9926L11.6 29C10.9914 29 10.3894 28.8718 9.83326 28.6236L2.58326 25.3889C1.01235 24.688 0 23.1241 0 21.3983V4.17282C0 1.92806 1.83091 0.132392 4.09653 0.00699158L4.35 0H18.85ZM4.35 4.47979C3.54919 4.47979 2.9 5.13148 2.9 5.93541V21.3983C2.9 21.9736 3.23748 22.4949 3.76111 22.7285L11.0111 25.9633C11.1965 26.046 11.3971 26.0887 11.6 26.0887C12.4008 26.0887 13.05 25.437 13.05 24.6331V9.17016C13.05 8.59491 12.7125 8.07362 12.1889 7.83999L4.93889 4.60524C4.75349 4.52252 4.55288 4.47979 4.35 4.47979ZM24.0887 6.12781L24.2253 6.24892L28.5753 10.6158C28.6145 10.6551 28.6514 10.6967 28.6859 10.7403L28.5753 10.6158C28.6325 10.6733 28.684 10.7343 28.7296 10.7983C28.7498 10.8267 28.7696 10.8566 28.7882 10.8873C28.7991 10.9049 28.8093 10.9226 28.8192 10.9405C28.8347 10.9688 28.8496 10.9979 28.8634 11.0276C28.8759 11.0543 28.8875 11.0812 28.8982 11.1085C28.9088 11.1352 28.9187 11.1624 28.9277 11.1899C28.9347 11.2116 28.9414 11.2338 28.9475 11.2562C28.9567 11.2891 28.9645 11.322 28.9712 11.3553C28.9759 11.3789 28.9802 11.4032 28.9838 11.4276C28.9884 11.4573 28.992 11.4877 28.9946 11.5184C28.9969 11.5458 28.9985 11.572 28.9993 11.5982C28.9998 11.6128 29 11.6289 29 11.6451L28.9992 11.6935C28.9984 11.7187 28.9969 11.7438 28.9948 11.7689L29 11.6451C29 11.7188 28.9945 11.7912 28.984 11.862C28.9801 11.8873 28.9756 11.9129 28.9704 11.9385C28.9644 11.9688 28.9573 11.9984 28.9494 12.0277C28.9424 12.0532 28.9345 12.0794 28.9259 12.1054C28.9176 12.1307 28.9088 12.155 28.8994 12.1789C28.8884 12.2068 28.8765 12.2349 28.8635 12.2627C28.8496 12.2924 28.8347 12.3215 28.8189 12.3501C28.8093 12.3677 28.7991 12.3854 28.7884 12.403C28.7666 12.4385 28.7436 12.4729 28.7192 12.5063C28.7102 12.5187 28.7008 12.5311 28.6912 12.5434C28.6881 12.5472 28.6848 12.5514 28.6815 12.5556L28.5753 12.6744L24.2253 17.0413C23.659 17.6098 22.741 17.6098 22.1747 17.0413C21.652 16.5166 21.6118 15.6909 22.0541 15.1199L22.1747 14.9828L24.0468 13.1008L18.85 13.1008C18.0492 13.1008 17.4 12.4491 17.4 11.6451C17.4 10.8986 17.9597 10.2834 18.6809 10.1993L18.85 10.1895L24.0483 10.1892L22.1747 8.3075C21.6085 7.73903 21.6085 6.81739 22.1747 6.24892C22.6974 5.72419 23.5199 5.6838 24.0887 6.12781Z" fill="#FEDB29"/>
</svg>
