<svg width="27" height="31" viewBox="0 0 27 31" fill="none" xmlns="http://www.w3.org/2000/svg">
<path d="M10.6932 26.5595H0.75V23.6511C0.75 23.0865 0.983791 22.5751 1.39538 22.2502L1.40175 22.2451L1.40801 22.24C4.59574 19.6093 8.06853 17.8563 8.83825 17.4712C9.34788 17.263 9.4146 16.7507 9.4146 16.559V14.6656V14.4648L9.31424 14.2908C8.88592 13.5484 8.62372 12.7088 8.50732 11.9522L8.41995 11.3843L7.9546 11.3326C7.94011 11.3146 7.92118 11.289 7.89807 11.2533C7.77313 11.0605 7.59735 10.6785 7.39731 9.97114C7.19114 9.22301 7.19009 8.84151 7.21605 8.6765H7.21617H7.21636H7.21655H7.21674H7.21692H7.21711H7.2173H7.21749H7.21768H7.21786H7.21805H7.21824H7.21843H7.21862H7.2188H7.21899H7.21918H7.21937H7.21956H7.21975H7.21993H7.22012H7.22031H7.2205H8.29127L7.92534 7.67019C7.59632 6.7654 7.59753 5.89817 7.81513 5.10938L7.81956 5.09331L7.82328 5.07706C8.04097 4.12466 8.56227 3.34198 9.17502 2.70005L9.17507 2.7001L9.1821 2.69253C9.55171 2.29449 10.0133 1.91884 10.4741 1.63082L10.489 1.62149L10.5035 1.61147C10.8742 1.35485 11.2922 1.13415 11.6937 1.00033C12.0313 0.887809 12.3862 0.806993 12.7615 0.780185L12.7966 0.777676L12.8314 0.771887C12.9547 0.751339 13.0568 0.75 13.2536 0.75C14.2254 0.75 14.9599 1.02555 15.4992 1.34912L15.5131 1.35744L15.5273 1.36514C15.996 1.61962 16.3121 1.91792 16.5076 2.14546C16.6054 2.25928 16.6725 2.35481 16.7127 2.41705C16.7327 2.44811 16.7459 2.47066 16.7528 2.48278L16.7577 2.49154L16.9465 2.86919L17.3577 2.89723C17.3623 2.898 17.3698 2.89939 17.38 2.90167C17.4122 2.90891 17.4688 2.92462 17.5394 2.95642C17.6766 3.01811 17.8781 3.14494 18.0663 3.41415C18.4435 3.95379 18.8711 5.22865 18.2642 8.0919L18.1254 8.74712L18.6658 8.92726C18.6662 8.92972 18.6666 8.93226 18.6671 8.9349C18.6961 9.11116 18.6841 9.50415 18.4693 10.2557L18.4693 10.2556L18.4676 10.2618C18.2791 10.9434 18.106 11.3237 17.9807 11.5214L17.2914 11.1767L17.1059 12.1506C16.9849 12.786 16.808 13.4251 16.5237 14.0223L16.4508 14.1753V14.3447V14.3504V14.356V14.3616V14.3673V14.3729V14.3785V14.3842V14.3898V14.3954V14.4011V14.4067V14.4123V14.4179V14.4235V14.4292V14.4348V14.4404V14.446V14.4516V14.4572V14.4628V14.4684V14.474V14.4796V14.4852V14.4908V14.4964V14.502V14.5076V14.5132V14.5188V14.5244V14.5299V14.5355V14.5411V14.5467V14.5523V14.5578V14.5634V14.569V14.5745V14.5801V14.5856V14.5912V14.5968V14.6023V14.6079V14.6134V14.6189V14.6245V14.63V14.6356V14.6411V14.6466V14.6522V14.6577V14.6632V14.6687V14.6742V14.6798V14.6853V14.6908V14.6963V14.7018V14.7073V14.7128V14.7183V14.7238V14.7293V14.7348V14.7402V14.7457V14.7512V14.7567V14.7622V14.7676V14.7731V14.7786V14.784V14.7895V14.7949V14.8004V14.8058V14.8113V14.8167V14.8221V14.8276V14.833V14.8384V14.8438V14.8493V14.8547V14.8601V14.8655V14.8709V14.8763V14.8817V14.8871V14.8925V14.8979V14.9033V14.9087V14.914V14.9194V14.9248V14.9301V14.9355V14.9409V14.9462V14.9516V14.9569V14.9623V14.9676V14.9729V14.9783V14.9836V14.9889V14.9942V14.9996V15.0049V15.0102V15.0155V15.0208V15.0261V15.0314V15.0367V15.0419V15.0472V15.0525V15.0578V15.063V15.0683V15.0735V15.0788V15.084V15.0893V15.0945V15.0998V15.105V15.1102V15.1154V15.1207V15.1259V15.1311V15.1363V15.1415V15.1467V15.1519V15.1571V15.1622V15.1674V15.1726V15.1778V15.1829V15.1881V15.1932V15.1984V15.2035V15.2087V15.2138V15.2189V15.224V15.2292V15.2343V15.2394V15.2445V15.2496V15.2547V15.2598V15.2648V15.2699V15.275V15.2801V15.2851V15.2902V15.2952V15.3003V15.3053V15.3104V15.3154V15.3204V15.3254V15.3304V15.3355V15.3405V15.3455V15.3505V15.3554V15.3604V15.3654V15.3704V15.3753V15.3803V15.3852V15.3902V15.3951V15.4001V15.405V15.4099V15.4149V15.4198V15.4247V15.4296V15.4345V15.4394V15.4442V15.4491V15.454V15.4589V15.4637V15.4686V15.4734V15.4783V15.4831V15.4879V15.4928V15.4976V15.5024V15.5072V15.512V15.5168V15.5216V15.5264V15.5311V15.5359V15.5407V15.5454V15.5502V15.5549V15.5597V15.5644V15.5691V15.5738V15.5785V15.5833V15.5879V15.5926V15.5973V15.602V15.6067V15.6113V15.616V15.6207V15.6253V15.6299V15.6346V15.6392V15.6438V15.6484V15.653V15.6576V15.6622V15.6668V15.6714V15.676V15.6805V15.6851V15.6896V15.6942V15.6987V15.7032V15.7077V15.7123V15.7168V15.7213V15.7258V15.7302V15.7347V15.7392V15.7437V15.7481V15.7526V15.757V15.7614V15.7659V15.7703V15.7747V15.7791V15.7835V15.7879V15.7923V15.7966V15.801V15.8054V15.8097V15.8141V15.8184V15.8227V15.8271V15.8314V15.8357V15.84V15.8443V15.8486V15.8528V15.8571V15.8614V15.8656V15.8698V15.8741V15.8783V15.8825V15.8867V15.8909V15.8951V15.8993V15.9035V15.9077V15.9118V15.916V15.9202V15.9243V15.9284V15.9325V15.9367V15.9408V15.9449V15.949V15.953V15.9571V15.9612V15.9652V15.9693V15.9733V15.9774V15.9814V15.9854V15.9894V15.9934V15.9974V16.0014V16.0053V16.0093V16.0133V16.0172V16.0211V16.0251V16.029V16.0329V16.0368V16.0407V16.0446V16.0484V16.0523V16.0562V16.06V16.0639V16.0677V16.0715V16.0753V16.0791V16.0829V16.0867V16.0905V16.0943V16.098V16.1018V16.1055V16.1092V16.113V16.1167V16.1204V16.1241V16.1278V16.1314V16.1351V16.1388V16.1424V16.146V16.1497V16.1533V16.1569V16.1605V16.1641V16.1677V16.1713V16.1748V16.1784V16.1819V16.1854V16.189V16.1925V16.196V16.1995V16.203V16.2064V16.2099V16.2134V16.2168V16.2203V16.2237V16.2271V16.2305V16.2339V16.2373V16.2407V16.244V16.2474V16.2507V16.2541V16.2574V16.2607V16.264V16.2673V16.2706V16.2739V16.2771V16.2804V16.2836V16.2869V16.2901V16.2933V16.2965V16.2997V16.3029V16.3061V16.3092V16.3124V16.3155V16.3187V16.3218V16.3249V16.328V16.3311V16.3342V16.3372V16.3403V16.3433V16.3464V16.3494V16.3524V16.3554V16.3584V16.3614V16.3644V16.3673V16.3703V16.3732V16.3761V16.3791V16.382V16.3849V16.3877V16.3906V16.3935V16.3963V16.3992V16.402V16.4048V16.4076V16.4104V16.4132V16.416V16.4187V16.4215V16.4242V16.427V16.4297V16.4324V16.4351V16.4378V16.4404V16.4431V16.4457V16.4484V16.451V16.4536V16.4562V16.4588V16.4614V16.464V16.4665V16.4691V16.4716V16.4741V16.4766V16.4791V16.4816V16.4841V16.4865V16.489V16.4914V16.4939V16.4963V16.4987V16.5011V16.5035V16.5058V16.5082V16.5105V16.5128V16.5152V16.5175V16.5198V16.5221V16.5243V16.5266V16.5288V16.5311V16.5333V16.5355V16.5377V16.5399V16.5421V16.5442V16.5464V16.5485V16.5506V16.5527V16.5548V16.5569V16.559C16.4508 16.9901 16.7435 17.2623 16.7929 17.3083C16.7957 17.3109 16.7977 17.3128 16.7989 17.314L16.8849 17.4L16.9938 17.4545C17.0248 17.47 17.0612 17.488 17.1027 17.5086C17.3817 17.647 17.8898 17.8991 18.5389 18.2586C17.7522 19.1846 17.3494 20.3316 17.3494 21.5973C17.3494 22.7589 17.634 23.6512 18.034 24.3271C17.9257 24.4114 17.8245 24.502 17.7295 24.597L17.718 24.6085L17.707 24.6205C17.2383 25.1318 16.9574 25.7991 16.9965 26.5311C16.9966 26.5405 16.9968 26.55 16.997 26.5595H15.3006L14.3772 22.3648C14.8508 21.6557 15.1291 21.0409 15.2284 20.4989C15.3464 19.8545 15.2097 19.3 14.8529 18.8856C14.5249 18.5047 14.087 18.3322 13.7661 18.2496C13.4358 18.1645 13.1396 18.1517 12.9969 18.1517C12.8544 18.1517 12.5569 18.1645 12.2249 18.2491C11.9029 18.3312 11.4621 18.5027 11.1315 18.8826C10.7706 19.2972 10.6316 19.8539 10.7523 20.5012C10.8535 21.0442 11.1362 21.6592 11.6159 22.3676L10.6932 26.5595ZM7.98886 11.3696C7.98885 11.3697 7.9875 11.3687 7.98485 11.3662C7.98755 11.3682 7.98887 11.3694 7.98886 11.3696ZM17.8749 11.6584C17.8748 11.6582 17.8769 11.6562 17.8811 11.6532C17.877 11.6571 17.8749 11.6586 17.8749 11.6584ZM24.7428 20.3912L24.7213 20.3611L24.6969 20.3332C24.3401 19.9254 23.8824 19.692 23.2981 19.692C22.7722 19.692 22.3161 19.882 22.0297 20.1684L21.9858 20.2123L21.9497 20.2628C21.695 20.6194 21.5533 21.0618 21.5533 21.5331C21.5533 21.977 21.6353 22.4272 21.9706 22.8318C22.1337 23.0485 22.3497 23.2069 22.5423 23.3261C22.7501 23.4547 22.9919 23.5742 23.2377 23.689L23.2519 23.6956L23.2664 23.7016C24.3874 24.1687 25.1365 24.6123 25.5938 25.0158C25.931 25.3133 26.1423 25.7841 26.1423 26.5393C26.1423 27.2135 25.9401 27.7037 25.5772 28.0459C25.2092 28.3891 24.7675 28.6158 24.1645 28.7207L23.543 28.8288V29.4596V30.25H23.3742V29.4917V28.8412L22.7303 28.7493C21.9514 28.638 21.3304 28.3686 20.8531 27.9444C20.5499 27.6563 20.3255 27.2504 20.2365 26.7039L21.22 26.686C21.2997 27.0928 21.4659 27.4614 21.7574 27.7599C22.1863 28.2321 22.7578 28.4125 23.3302 28.4125C23.8913 28.4125 24.3362 28.1985 24.6628 27.8719C25.0343 27.5005 25.1713 26.9977 25.1713 26.5393C25.1713 26.021 25.0377 25.5444 24.702 25.1527C24.4075 24.8092 23.9725 24.5258 23.4215 24.3047C22.2857 23.8312 21.5475 23.4206 21.0987 23.0246C20.7588 22.7246 20.5502 22.2836 20.5502 21.501C20.5502 20.8678 20.7586 20.3877 21.1564 19.9861C21.5371 19.6326 22.0275 19.3993 22.7383 19.2899L23.3742 19.1921V18.5487V17.7262H23.543V18.6128V19.2227L24.14 19.3471C24.7547 19.4751 25.2158 19.7457 25.5834 20.1585C25.8409 20.4741 26.0145 20.8269 26.0948 21.2404L25.1108 21.2583C25.0442 20.9406 24.9273 20.6494 24.7428 20.3912Z" stroke="#FEDB29" stroke-width="1.5"/>
</svg>
