<svg width="31" height="25" viewBox="0 0 31 25" fill="none" xmlns="http://www.w3.org/2000/svg">
<path d="M17.8464 18.2686C18.6279 17.5848 19.1164 16.6079 19.1164 15.5333C19.1164 13.5144 17.4882 11.8862 15.4693 11.8862C13.4504 11.8862 11.8223 13.5144 11.8223 15.5333C11.8223 16.6404 12.3107 17.6173 13.0922 18.2686C11.7571 18.757 10.7477 19.9293 10.5849 21.3946L10.2918 23.902C10.2592 24.2927 10.5197 24.6509 10.9431 24.7161C11.3338 24.7486 11.692 24.4881 11.7571 24.0648L12.0502 21.5574C12.1805 20.3852 13.1899 19.4734 14.3947 19.4734H16.5439C17.7487 19.4734 18.7582 20.3526 18.8884 21.5574L19.1815 24.0648C19.2141 24.423 19.5397 24.7161 19.8979 24.7161C19.9305 24.7161 19.963 24.7161 19.9956 24.7161C20.3863 24.6835 20.6794 24.2927 20.6468 23.902L20.3863 21.3946C20.191 19.9293 19.1815 18.7245 17.8464 18.2686ZM15.5019 13.319C16.7067 13.319 17.6836 14.2959 17.6836 15.5007C17.6836 16.7056 16.7067 17.6825 15.5019 17.6825C14.2971 17.6825 13.3202 16.7056 13.3202 15.5007C13.3202 14.2959 14.2971 13.319 15.5019 13.319Z" fill="#FEDB29"/>
<path d="M14.7846 5.89391V9.37815C14.7846 9.76891 15.1103 10.0945 15.501 10.0945C15.8918 10.0945 16.2174 9.76891 16.2174 9.37815V5.89391C17.5199 5.56828 18.4643 4.39601 18.4643 2.9958C18.4643 1.33508 17.1292 0 15.4685 0C13.8077 0 12.4727 1.33508 12.4727 2.9958C12.5052 4.39601 13.4821 5.56828 14.7846 5.89391ZM15.501 1.4979C16.3477 1.4979 17.0315 2.18172 17.0315 3.02836C17.0315 3.875 16.3477 4.55882 15.501 4.55882C14.6544 4.55882 13.9706 3.875 13.9706 3.02836C13.9706 2.18172 14.6544 1.4979 15.501 1.4979Z" fill="#FEDB29"/>
<path d="M6.67549 9.63807C7.19649 9.63807 7.7175 9.47526 8.20595 9.21475L10.6807 11.6895C10.811 11.8198 11.0064 11.9175 11.2017 11.9175C11.3971 11.9175 11.5599 11.8524 11.7228 11.6895C12.0158 11.3965 12.0158 10.9406 11.7228 10.6475L9.24797 8.17274C9.50847 7.71685 9.67128 7.19585 9.67128 6.64228C9.67128 5.8282 9.34565 5.07925 8.79208 4.52568C7.65238 3.38597 5.6986 3.38597 4.55889 4.52568C3.38662 5.69795 3.38662 7.5866 4.55889 8.75887C5.14502 9.34501 5.89397 9.63807 6.67549 9.63807ZM5.60091 5.60026C5.89397 5.30719 6.28473 5.14438 6.67549 5.14438C7.09881 5.14438 7.457 5.30719 7.75007 5.60026C8.04313 5.89333 8.20595 6.28408 8.20595 6.67484C8.20595 7.09816 8.04313 7.45635 7.75007 7.74942C7.16393 8.33555 6.18704 8.33555 5.60091 7.74942C5.01477 7.16328 5.01477 6.18639 5.60091 5.60026Z" fill="#FEDB29"/>
<path d="M9.37815 14.7506H5.89391C5.56828 13.4481 4.39601 12.5038 2.9958 12.5038C1.33508 12.5038 0 13.8389 0 15.4996C0 17.1603 1.33508 18.4954 2.9958 18.4954C4.39601 18.4954 5.56828 17.5185 5.89391 16.2485H9.37815C9.76891 16.2485 10.0945 15.9229 10.0945 15.5321C10.0945 15.1414 9.80147 14.7506 9.37815 14.7506ZM3.02836 17.03C2.18172 17.03 1.4979 16.3462 1.4979 15.4996C1.4979 14.6529 2.18172 13.9691 3.02836 13.9691C3.875 13.9691 4.55882 14.6529 4.55882 15.4996C4.55882 16.3462 3.875 17.03 3.02836 17.03Z" fill="#FEDB29"/>
<path d="M27.9724 12.5038C26.5722 12.5038 25.3999 13.4807 25.0743 14.7506H21.6226C21.2319 14.7506 20.9062 15.0763 20.9062 15.467C20.9062 15.8578 21.2319 16.1834 21.6226 16.1834H25.1069C25.4325 17.4859 26.6048 18.4303 28.005 18.4303C29.6657 18.4303 31.0008 17.0952 31.0008 15.4345C31.0008 13.7737 29.6331 12.5038 27.9724 12.5038ZM27.9724 17.03C27.1258 17.03 26.442 16.3462 26.442 15.4996C26.442 14.6529 27.1258 13.9691 27.9724 13.9691C28.8191 13.9691 29.5029 14.6529 29.5029 15.4996C29.5029 16.3462 28.8191 17.03 27.9724 17.03Z" fill="#FEDB29"/>
<path d="M19.8307 11.8862C20.026 11.8862 20.1888 11.8211 20.3517 11.6583L22.8265 9.1835C23.2823 9.47657 23.8359 9.60682 24.3569 9.60682C25.1059 9.60682 25.8874 9.31376 26.4735 8.72762C27.0271 8.17405 27.3527 7.4251 27.3527 6.61102C27.3527 5.79695 27.0271 5.048 26.4735 4.49443C25.3338 3.35472 23.38 3.35472 22.2403 4.49443C21.2634 5.47132 21.1006 6.96922 21.7844 8.14149L19.3096 10.6163C19.0166 10.9093 19.0166 11.3652 19.3096 11.6583C19.4399 11.8211 19.6353 11.8862 19.8307 11.8862ZM23.2498 5.60157C23.5428 5.3085 23.9336 5.14569 24.3243 5.14569C24.7151 5.14569 25.1059 5.3085 25.3989 5.60157C25.692 5.89464 25.8548 6.28539 25.8548 6.67615C25.8548 7.09947 25.692 7.45766 25.3989 7.75073C24.8128 8.33686 23.8359 8.33686 23.2498 7.75073C22.6636 7.1646 22.6636 6.18771 23.2498 5.60157Z" fill="#FEDB29"/>
</svg>
