<svg width="28" height="28" viewBox="0 0 28 28" fill="none" xmlns="http://www.w3.org/2000/svg">
<path d="M9.79643 2.1021H24.2589C25.1418 2.1021 25.8985 2.81681 25.8985 3.74174V18.2042C25.8985 19.0871 25.1838 19.8438 24.2589 19.8438V21.9459C26.3189 21.9459 28.0006 20.2642 28.0006 18.2042V3.74174C28.0006 1.68168 26.3189 0 24.2589 0H9.79643C7.73637 0 6.05469 1.68168 6.05469 3.74174H8.15679C8.15679 2.85886 8.8715 2.1021 9.79643 2.1021Z" fill="#FEDB29"/>
<path d="M3.74174 27.9998H18.2042C20.2642 27.9998 21.9459 26.3181 21.9459 24.258V9.79557C21.9459 7.73551 20.2642 6.05383 18.2042 6.05383H3.74174C1.68168 6.05383 0 7.73551 0 9.79557V24.258C0 26.3181 1.68168 27.9998 3.74174 27.9998ZM2.1021 9.79557C2.1021 8.91269 2.81681 8.15593 3.74174 8.15593H18.2042C19.0871 8.15593 19.8438 8.87065 19.8438 9.79557V24.258C19.8438 25.1409 19.1291 25.8977 18.2042 25.8977H3.74174C2.85886 25.8977 2.1021 25.1829 2.1021 24.258V9.79557Z" fill="#FEDB29"/>
</svg>
