<svg width="29" height="29" viewBox="0 0 29 29" fill="none" xmlns="http://www.w3.org/2000/svg">
<path d="M17.6161 3.86656C17.6161 5.57893 16.212 6.98312 14.4995 6.98312C12.787 6.98312 11.3828 5.57893 11.3828 3.86656C11.3828 2.15418 12.787 0.75 14.4995 0.75C16.212 0.75 17.6161 2.15418 17.6161 3.86656Z" stroke="#FEDB29" stroke-width="1.5"/>
<path d="M19.3333 9.44994C20.2725 9.44994 21 10.1775 21 11.1165V16.6497H8V11.1165C8 10.1775 8.72753 9.44994 9.66667 9.44994H19.3333Z" stroke="#FEDB29" stroke-width="1.5"/>
<path d="M14.112 22.0589L14.5 22.0092L14.888 22.0589C16.4149 22.2547 17.6167 23.5451 17.6167 25.1333C17.6167 26.8456 16.2125 28.2498 14.5 28.2498C12.7875 28.2498 11.3833 26.8456 11.3833 25.1333C11.3833 23.5876 12.591 22.2539 14.112 22.0589ZM24.7454 22.0589L25.1333 22.0092L25.5213 22.0589C27.0482 22.2547 28.25 23.5451 28.25 25.1333C28.25 26.8456 26.8458 28.2498 25.1333 28.2498C23.4209 28.2498 22.0167 26.8456 22.0167 25.1333C22.0167 23.5876 23.2244 22.2539 24.7454 22.0589ZM3.4787 22.0589L3.86667 22.0092L4.25463 22.0589C5.78154 22.2547 6.98333 23.5451 6.98333 25.1333C6.98333 26.8456 5.57914 28.2498 3.86667 28.2498C2.15419 28.2498 0.75 26.8456 0.75 25.1333C0.75 23.5876 1.9577 22.2539 3.4787 22.0589Z" stroke="#FEDB29" stroke-width="1.5"/>
</svg>
