<svg width="30" height="30" viewBox="0 0 30 30" fill="none" xmlns="http://www.w3.org/2000/svg">
<path d="M26.3336 10.3111V6.50027C26.3336 4.94193 25.0586 3.66693 23.5002 3.66693H19.6894L16.9977 0.975265C15.8927 -0.129735 14.0936 -0.129735 12.9886 0.975265L10.3111 3.66693H6.50023C4.9419 3.66693 3.6669 4.94193 3.6669 6.50027V10.3111L0.975234 13.0028C-0.129766 14.1078 -0.129766 15.9069 0.975234 17.0119L3.6669 19.7036V23.5003C3.6669 25.0586 4.9419 26.3336 6.50023 26.3336H10.3111L13.0027 29.0253C14.1077 30.1303 15.9069 30.1303 17.0119 29.0253L19.7036 26.3336H23.5002C25.0586 26.3336 26.3336 25.0586 26.3336 23.5003V19.6894L29.0252 16.9978C30.1302 15.8928 30.1302 14.0936 29.0252 12.9886L26.3336 10.3111ZM15.0002 23.5003C10.3111 23.5003 6.50023 19.6894 6.50023 15.0003C6.50023 10.3111 10.3111 6.50027 15.0002 6.50027C19.6894 6.50027 23.5002 10.3111 23.5002 15.0003C23.5002 19.6894 19.6894 23.5003 15.0002 23.5003ZM15.0002 9.3336C11.8694 9.3336 9.33357 11.8694 9.33357 15.0003C9.33357 18.1311 11.8694 20.6669 15.0002 20.6669C18.1311 20.6669 20.6669 18.1311 20.6669 15.0003C20.6669 11.8694 18.1311 9.3336 15.0002 9.3336Z" fill="#20253B"/>
</svg>
