<svg width="20" height="16" viewBox="0 0 20 16" fill="none" xmlns="http://www.w3.org/2000/svg">
<path d="M9.91407 8.36511C7.99224 8.36511 6.42871 9.92868 6.42871 11.8505C6.42871 13.7724 7.99224 15.336 9.91407 15.336C11.8359 15.336 13.3994 13.7724 13.3994 11.8505C13.3994 9.92868 11.8359 8.36511 9.91407 8.36511ZM9.91407 13.7869C8.84637 13.7869 7.97776 12.9183 7.97776 11.8505C7.97776 10.7828 8.84637 9.9142 9.91407 9.9142C10.9818 9.9142 11.8504 10.7828 11.8504 11.8505C11.8504 12.9183 10.9818 13.7869 9.91407 13.7869Z" fill="#20253B"/>
<path d="M19.7449 10.0158C18.8907 8.32388 17.537 6.89055 15.8292 5.8689L17.9257 3.77229C18.2282 3.46983 18.2282 2.97943 17.9258 2.67693C17.6233 2.37447 17.1329 2.37447 16.8304 2.67693L14.3708 5.13661C13.2115 4.65682 11.9672 4.36822 10.6887 4.28515V0.774542C10.6887 0.346762 10.3419 0 9.91411 0C9.48633 0 9.13957 0.346762 9.13957 0.774542V4.28511C7.861 4.36818 6.6167 4.65678 5.45744 5.13657L2.99785 2.67689C2.69535 2.3744 2.20491 2.3744 1.90245 2.67689C1.60003 2.97935 1.60003 3.46975 1.90249 3.77225L3.99906 5.86886C2.29127 6.89052 0.937526 8.32384 0.0832841 10.0158C-0.109499 10.3977 0.0437825 10.8635 0.425631 11.0563C0.807364 11.2491 1.27337 11.0959 1.46611 10.714C2.90281 7.86845 6.10453 5.80906 9.91415 5.80906C13.7266 5.80906 16.9267 7.87093 18.3622 10.714C18.5553 11.0965 19.0214 11.2489 19.4026 11.0563C19.7845 10.8635 19.9378 10.3977 19.7449 10.0158Z" fill="#20253B"/>
</svg>
