<svg width="29" height="25" viewBox="0 0 29 25" fill="none" xmlns="http://www.w3.org/2000/svg">
<path d="M26.8235 11.0494V9.35185C26.8235 7.28395 25.444 5.52469 23.5433 4.96914V3.85802C23.5433 1.72839 21.8266 0 19.7114 0H3.80127C1.7167 0 0 1.72839 0 3.85802V7.16049V18.179V21.142C0 23.2716 1.7167 25 3.83192 25H22.2865C24.8002 25 26.8235 22.9321 26.8235 20.4321V18.7346C28.0497 18.6111 29 17.5617 29 16.2963V13.5185C29 12.2222 28.0497 11.1728 26.8235 11.0494ZM22.2865 23.1481H3.80127C2.69767 23.1481 1.80867 22.2531 1.80867 21.142V18.1481V7.12963V3.85802C1.80867 2.74691 2.69767 1.85185 3.80127 1.85185H19.7114C20.815 1.85185 21.704 2.74691 21.704 3.85802V4.75309H6.31501C6.22304 4.75309 6.13108 4.69136 6.13108 4.5679C6.13108 4.44444 6.19239 4.38272 6.31501 4.38272H19.7421C20.2632 4.38272 20.6617 3.98148 20.6617 3.45679C20.6617 2.9321 20.2632 2.53086 19.7421 2.53086H6.31501C5.21142 2.53086 4.29175 3.42593 4.29175 4.5679C4.29175 5.70988 5.18076 6.60494 6.31501 6.60494H22.2558C23.7579 6.60494 24.9535 7.83951 24.9535 9.32099V11.0185H24.2791C22.4091 11.0185 20.907 12.5309 20.907 14.4136V15.3395C20.907 17.2222 22.4091 18.7346 24.2791 18.7346H24.9841V20.4321C24.9841 21.9136 23.7886 23.1481 22.2865 23.1481Z" fill="#FEDB29"/>
</svg>
