<svg width="32" height="36" viewBox="0 0 32 36" fill="none" xmlns="http://www.w3.org/2000/svg">
<g filter="url(#filter0_d)">
<path d="M21.3333 13.3334H10.6667C9.93333 13.3334 9.33333 13.9334 9.33333 14.6667C9.33333 15.4 9.93333 16 10.6667 16H21.3333C22.0667 16 22.6667 15.4 22.6667 14.6667C22.6667 13.9334 22.0667 13.3334 21.3333 13.3334ZM25.3333 4.00004H24V2.66671C24 1.93337 23.4 1.33337 22.6667 1.33337C21.9333 1.33337 21.3333 1.93337 21.3333 2.66671V4.00004H10.6667V2.66671C10.6667 1.93337 10.0667 1.33337 9.33333 1.33337C8.6 1.33337 8 1.93337 8 2.66671V4.00004H6.66667C5.18667 4.00004 4 5.20004 4 6.66671V25.3334C4 26.8 5.18667 28 6.66667 28H25.3333C26.8 28 28 26.8 28 25.3334V6.66671C28 5.20004 26.8 4.00004 25.3333 4.00004ZM24 25.3334H8C7.26667 25.3334 6.66667 24.7334 6.66667 24V10.6667H25.3333V24C25.3333 24.7334 24.7333 25.3334 24 25.3334ZM17.3333 18.6667H10.6667C9.93333 18.6667 9.33333 19.2667 9.33333 20C9.33333 20.7334 9.93333 21.3334 10.6667 21.3334H17.3333C18.0667 21.3334 18.6667 20.7334 18.6667 20C18.6667 19.2667 18.0667 18.6667 17.3333 18.6667Z" fill="white"/>
</g>
<defs>
<filter id="filter0_d" x="-4" y="0" width="40" height="40" filterUnits="userSpaceOnUse" color-interpolation-filters="sRGB">
<feFlood flood-opacity="0" result="BackgroundImageFix"/>
<feColorMatrix in="SourceAlpha" type="matrix" values="0 0 0 0 0 0 0 0 0 0 0 0 0 0 0 0 0 0 127 0"/>
<feOffset dy="4"/>
<feGaussianBlur stdDeviation="2"/>
<feColorMatrix type="matrix" values="0 0 0 0 0 0 0 0 0 0 0 0 0 0 0 0 0 0 0.25 0"/>
<feBlend mode="normal" in2="BackgroundImageFix" result="effect1_dropShadow"/>
<feBlend mode="normal" in="SourceGraphic" in2="effect1_dropShadow" result="shape"/>
</filter>
</defs>
</svg>
