<svg width="32" height="36" viewBox="0 0 32 36" fill="none" xmlns="http://www.w3.org/2000/svg">
<g filter="url(#filter0_d)">
<path d="M25.332 10.6667H22.9187C22.3187 9.62667 21.492 8.73333 20.492 8.05333L21.732 6.81333C22.252 6.29333 22.252 5.45333 21.732 4.93333C21.212 4.41333 20.372 4.41333 19.852 4.93333L17.892 6.89333C17.2787 6.74667 16.652 6.66667 15.9987 6.66667C15.3454 6.66667 14.7187 6.74667 14.1187 6.89333L12.1454 4.93333C11.6254 4.41333 10.7854 4.41333 10.2654 4.93333C9.74536 5.45333 9.74536 6.29333 10.2654 6.81333L11.492 8.05333C10.5054 8.73333 9.6787 9.62667 9.0787 10.6667H6.66536C5.93203 10.6667 5.33203 11.2667 5.33203 12C5.33203 12.7333 5.93203 13.3333 6.66536 13.3333H8.1187C8.05203 13.7733 7.9987 14.2133 7.9987 14.6667V16H6.66536C5.93203 16 5.33203 16.6 5.33203 17.3333C5.33203 18.0667 5.93203 18.6667 6.66536 18.6667H7.9987V20C7.9987 20.4533 8.05203 20.8933 8.1187 21.3333H6.66536C5.93203 21.3333 5.33203 21.9333 5.33203 22.6667C5.33203 23.4 5.93203 24 6.66536 24H9.0787C10.4654 26.3867 13.0387 28 15.9987 28C18.9587 28 21.532 26.3867 22.9187 24H25.332C26.0654 24 26.6654 23.4 26.6654 22.6667C26.6654 21.9333 26.0654 21.3333 25.332 21.3333H23.8787C23.9454 20.8933 23.9987 20.4533 23.9987 20V18.6667H25.332C26.0654 18.6667 26.6654 18.0667 26.6654 17.3333C26.6654 16.6 26.0654 16 25.332 16H23.9987V14.6667C23.9987 14.2133 23.9454 13.7733 23.8787 13.3333H25.332C26.0654 13.3333 26.6654 12.7333 26.6654 12C26.6654 11.2667 26.0654 10.6667 25.332 10.6667ZM17.332 21.3333H14.6654C13.932 21.3333 13.332 20.7333 13.332 20C13.332 19.2667 13.932 18.6667 14.6654 18.6667H17.332C18.0654 18.6667 18.6654 19.2667 18.6654 20C18.6654 20.7333 18.0654 21.3333 17.332 21.3333ZM17.332 16H14.6654C13.932 16 13.332 15.4 13.332 14.6667C13.332 13.9333 13.932 13.3333 14.6654 13.3333H17.332C18.0654 13.3333 18.6654 13.9333 18.6654 14.6667C18.6654 15.4 18.0654 16 17.332 16Z" fill="white"/>
</g>
<defs>
<filter id="filter0_d" x="-4" y="0" width="40" height="40" filterUnits="userSpaceOnUse" color-interpolation-filters="sRGB">
<feFlood flood-opacity="0" result="BackgroundImageFix"/>
<feColorMatrix in="SourceAlpha" type="matrix" values="0 0 0 0 0 0 0 0 0 0 0 0 0 0 0 0 0 0 127 0"/>
<feOffset dy="4"/>
<feGaussianBlur stdDeviation="2"/>
<feColorMatrix type="matrix" values="0 0 0 0 0 0 0 0 0 0 0 0 0 0 0 0 0 0 0.25 0"/>
<feBlend mode="normal" in2="BackgroundImageFix" result="effect1_dropShadow"/>
<feBlend mode="normal" in="SourceGraphic" in2="effect1_dropShadow" result="shape"/>
</filter>
</defs>
</svg>
