<svg width="20" height="13" viewBox="0 0 20 13" fill="none" xmlns="http://www.w3.org/2000/svg">
<path d="M19.2752 11.0673C19.6721 11.0673 19.9827 10.7567 19.9827 10.3598C19.9827 9.9629 19.6721 9.65229 19.2752 9.65229L5.26316 9.65229C4.95255 8.51337 3.91717 7.66782 2.67472 7.66782C1.20794 7.66782 0 8.8585 0 10.3425C0 11.8266 1.20794 13 2.67472 13C3.89991 13 4.93529 12.1717 5.2459 11.05L19.2752 11.05V11.0673ZM2.67472 11.6022C1.98447 11.6022 1.41501 11.0328 1.41501 10.3425C1.41501 9.65229 1.98447 9.08283 2.67472 9.08283C3.36497 9.08283 3.93443 9.65229 3.93443 10.3425C3.93443 11.0328 3.36497 11.6022 2.67472 11.6022Z" fill="#333333"/>
<path d="M0 3.00867C0 3.40557 0.310613 3.71618 0.707506 3.71618L7.98965 3.71618C8.30026 4.83784 9.33564 5.66614 10.5608 5.66614C11.786 5.66614 12.8214 4.83784 13.132 3.71618H19.2925C19.6894 3.71618 20 3.40557 20 3.00867C20 2.61178 19.6894 2.30117 19.2925 2.30117L13.132 2.30117C12.8214 1.16225 11.786 0.316699 10.5436 0.316699C9.30112 0.316699 8.26575 1.16225 7.95513 2.30117L0.707506 2.30117C0.310613 2.30117 0 2.61178 0 3.00867ZM10.5608 1.71445C11.2511 1.71445 11.8205 2.28391 11.8205 2.97416C11.8205 3.66441 11.2511 4.23387 10.5608 4.23387C9.87058 4.23387 9.30112 3.66441 9.30112 2.97416C9.30112 2.28391 9.85332 1.71445 10.5608 1.71445Z" fill="#333333"/>
</svg>
