<svg width="36" height="38" viewBox="0 0 36 38" fill="none" xmlns="http://www.w3.org/2000/svg">
<g filter="url(#filter0_d)">
<path d="M19.3339 5.15999V5.18666C19.3339 6.07999 19.9339 6.82666 20.7739 7.09333C24.5739 8.27999 27.3339 11.8133 27.3339 16C27.3339 16.6933 27.2539 17.3467 27.1072 17.9867C26.9205 18.84 27.2672 19.72 28.0272 20.1733L28.0405 20.1867C29.1872 20.8533 30.6805 20.2533 30.9872 18.9733C31.2139 18.0133 31.3339 17.0133 31.3339 16C31.3339 10 27.3605 4.90666 21.8939 3.23999C20.6272 2.85333 19.3339 3.82666 19.3339 5.15999ZM16.5872 25.2267C12.6005 24.6533 9.36054 21.4133 8.77387 17.44C8.05387 12.64 10.9872 8.41333 15.2139 7.09333C16.0672 6.83999 16.6672 6.07999 16.6672 5.18666V5.15999C16.6672 3.82666 15.3739 2.85333 14.0939 3.23999C8.08054 5.07999 3.88054 11.0533 4.7872 17.8533C5.57387 23.6933 10.2939 28.4133 16.1339 29.2C20.3205 29.76 24.1872 28.3867 26.9739 25.8267C27.9605 24.92 27.7872 23.3067 26.6272 22.64C25.8539 22.1867 24.8939 22.3333 24.2272 22.9333C22.2672 24.72 19.5472 25.6667 16.5872 25.2267Z" fill="white"/>
</g>
<defs>
<filter id="filter0_d" x="-2" y="0" width="40" height="40" filterUnits="userSpaceOnUse" color-interpolation-filters="sRGB">
<feFlood flood-opacity="0" result="BackgroundImageFix"/>
<feColorMatrix in="SourceAlpha" type="matrix" values="0 0 0 0 0 0 0 0 0 0 0 0 0 0 0 0 0 0 127 0"/>
<feOffset dy="4"/>
<feGaussianBlur stdDeviation="2"/>
<feColorMatrix type="matrix" values="0 0 0 0 0 0 0 0 0 0 0 0 0 0 0 0 0 0 0.25 0"/>
<feBlend mode="normal" in2="BackgroundImageFix" result="effect1_dropShadow"/>
<feBlend mode="normal" in="SourceGraphic" in2="effect1_dropShadow" result="shape"/>
</filter>
</defs>
</svg>
